{
.appVersion = "983";
DisplayStrings = (
"grumpy wizards grab toxic brew for the fresh evil queen and jack",
"c\U00B8\U00E7",
"A grumpy wizard /e.001 l/f.001  /g.001 rabbed toxic jam from the evil queen mar/k.001 us  /z.001 uckerberg!",
"+/minus \U00D7\U00F7=/notequal ></greaterequal/lessequal \U00B1~%/perthousand @&\U00B6\U00A7\U00A9\U00AE/trademark \U00B0|\U00A6/dagger/daggerdbl"
);
date = "2017-03-14 19:25:40 +0000";
disablesNiceNames = 1;
familyName = "League Spartan TF";
featurePrefixes = (
{
automatic = 1;
code = "languagesystem DFLT dflt;\012";
name = Languagesystems;
}
);
features = (
{
automatic = 1;
code = "feature sups;\012feature frac;\012feature ordn;\012feature salt;\012feature ss01;\012feature ss02;\012";
name = aalt;
},
{
automatic = 1;
code = "sub one by onesuperior;\012sub two by twosuperior;\012sub three by threesuperior;\012";
name = sups;
},
{
automatic = 1;
code = "sub one slash four by onequarter;\012sub one slash two by onehalf;\012sub three slash four by threequarters;\012";
name = frac;
},
{
automatic = 1;
code = "sub [zero one two three four five six seven eight nine] [A a]' by ordfeminine;\012sub [zero one two three four five six seven eight nine] [O o]' by ordmasculine;\012";
name = ordn;
},
{
automatic = 1;
code = "sub f f j by f_f_j;\012sub f f t by f_f_t;\012sub f j by f_j;\012sub f t by f_t;\012";
name = dlig;
},
{
automatic = 1;
code = "sub f f l by f_f_l;\012sub f f i by f_f_i;\012sub f i by fi;\012sub f f by f_f;\012sub f l by fl;\012";
name = liga;
},
{
automatic = 1;
code = "sub C by C.ss01;\012sub Q by Q.ss01;\012sub R by R.ss01;\012";
name = salt;
},
{
automatic = 1;
code = "sub C by C.ss01;\012sub Q by Q.ss01;\012sub R by R.ss01;\012";
name = ss01;
},
{
automatic = 1;
code = "sub Q by Q.ss02;\012";
name = ss02;
}
);
fontMaster = (
{
ascender = 900;
capHeight = 825;
descender = -350;
id = "7B60DD57-6012-4D0F-BD38-A72A4BAC0E9D";
weight = Light;
weightValue = 68;
widthValue = 5;
xHeight = 513;
},
{
ascender = 900;

glyphs = (
{
glyphname = A;
lastChange = "2017-03-25 14:28:53 +0000";
layers = (
{
layerId = "A4E552E4-62BE-43BB-A58F-34F0EE3B77B8";
paths = (
{
closed = 1;
nodes = (
"-28 0 LINE",
"174 0 LINE",
"235 165 LINE",
"549 165 LINE",
"610 0 LINE",
"812 0 LINE",
"479 825 LINE",
"305 825 LINE"
);
},
{
closed = 1;
nodes = (
"391 570 LINE",
"393 570 LINE",
"485 330 LINE",
"299 330 LINE"
);
}
);
width = 784;
},
{
layerId = "7B60DD57-6012-4D0F-BD38-A72A4BAC0E9D";
paths = (
{
closed = 1;
nodes = (
"-12 0 LINE",
"64 0 LINE",
"143 214 LINE",
"501 214 LINE",
"580 0 LINE",
"656 0 LINE",
"357 825 LINE",
"287 825 LINE"
);
},
{
closed = 1;
nodes = (
"321 723 LINE",
"323 723 LINE",
"482 279 LINE",
"162 279 LINE"
);
}
);
width = 644;
},
{
layerId = "3FEB53C4-AE65-4B2F-B735-1C16ECFA7AEE";
paths = (
{
closed = 1;
nodes = (
"-55 0 LINE",
"147 0 LINE",
"226 165 LINE",
"540 165 LINE",
"583 0 LINE",
"785 0 LINE",
"539 825 LINE",
"365 825 LINE"
);
},
{
closed = 1;
nodes = (
"424 570 LINE",
"426 570 LINE",
"493 330 LINE",
"307 330 LINE"
);
}
);
width = 784;
}
);
leftKerningGroup = A;
rightKerningGroup = d;
unicode = 0041;
},
{
glyphname = Aacute;
lastChange = "2017-03-22 17:52:50 +0000";
layers = (
{
layerId = "A4E552E4-62BE-43BB-A58F-34F0EE3B77B8";
paths = (
{
closed = 1;
nodes = (
"-28 0 LINE",
"174 0 LINE",
"235 165 LINE",
"549 165 LINE",
"610 0 LINE",
"812 0 LINE",
"479 825 LINE",
"305 825 LINE"
);
},
{
closed = 1;
nodes = (
"391 570 LINE",
"393 570 LINE",
"485 330 LINE",
"299 330 LINE"
);
},
{
closed = 1;
nodes = (
"627 1037 LINE",
"536 1152 LINE",
"333 976 LINE",
"389 899 LINE"
);
}
);
width = 784;
},
{
layerId = "7B60DD57-6012-4D0F-BD38-A72A4BAC0E9D";
paths = (
{
closed = 1;
nodes = (
"-28 0 LINE",
"174 0 LINE",
"235 165 LINE",
"549 165 LINE",
"610 0 LINE",
"812 0 LINE",
"479 825 LINE",
"305 825 LINE"
);
},
{
closed = 1;
nodes = (
"391 570 LINE",
"393 570 LINE",
"485 330 LINE",
"299 330 LINE"
);
},
{
closed = 1;
nodes = (
"627 1037 LINE",
"536 1152 LINE",
"333 976 LINE",
"389 899 LINE"
);
}
);
width = 784;
},
{
layerId = "3FEB53C4-AE65-4B2F-B735-1C16ECFA7AEE";
paths = (
{
closed = 1;
nodes = (
"-115 0 LINE",
"87 0 LINE",
"166 165 LINE",
"480 165 LINE",
"523 0 LINE",
"725 0 LINE",
"479 825 LINE",
"305 825 LINE"
);
},
{
closed = 1;
nodes = (
"364 570 LINE",
"366 570 LINE",
"433 330 LINE",
"247 330 LINE"
);
},
{
closed = 1;
nodes = (
"649 1037 LINE",
"570 1152 LINE",
"349 976 LINE",
"397 899 LINE"
);
}
);
width = 784;
}
);
leftKerningGroup = A;
rightKerningGroup = d;
unicode = 00C1;
},
{
glyphname = Abreve;
lastChange = "2017-03-22 17:52:50 +0000";
layers = (
{
layerId = "A4E552E4-62BE-43BB-A58F-34F0EE3B77B8";
paths = (
{
closed = 1;
nodes = (
"-28 0 LINE",
"174 0 LINE",
"235 165 LINE",
"549 165 LINE",
"610 0 LINE",
"812 0 LINE",
"479 825 LINE",
"305 825 LINE"
);
},
{
closed = 1;
nodes = (
"391 570 LINE",
"393 570 LINE",
"485 330 LINE",
"299 330 LINE"
);
},
{
closed = 1;
nodes = (
"497 1152 LINE",
"497 1152 OFFCURVE",
"486 1049 OFFCURVE",
"392 1049 CURVE SMOOTH",
"298 1049 OFFCURVE",
"287 1152 OFFCURVE",
"287 1152 CURVE",
"161 1121 LINE",
"173 1014 OFFCURVE",
"263 940 OFFCURVE",
"392 940 CURVE SMOOTH",
"521 940 OFFCURVE",
"611 1014 OFFCURVE",
"623 1121 CURVE"
);
}
);
width = 784;
},
{
layerId = "7B60DD57-6012-4D0F-BD38-A72A4BAC0E9D";
paths = (
{
closed = 1;
nodes = (
"-28 0 LINE",
"174 0 LINE",
"235 165 LINE",
"549 165 LINE",
"610 0 LINE",
"812 0 LINE",
"479 825 LINE",
"305 825 LINE"
);
},
{
closed = 1;
nodes = (
"391 570 LINE",
"393 570 LINE",
"485 330 LINE",
"299 330 LINE"
);
},
{
closed = 1;
nodes = (
"497 1152 LINE",
"497 1152 OFFCURVE",
"486 1049 OFFCURVE",
"392 1049 CURVE SMOOTH",
"298 1049 OFFCURVE",
"287 1152 OFFCURVE",
"287 1152 CURVE",
"161 1121 LINE",
"173 1014 OFFCURVE",
"263 940 OFFCURVE",
"392 940 CURVE SMOOTH",
"521 940 OFFCURVE",
"611 1014 OFFCURVE",
"623 1121 CURVE"
);
}
);
width = 784;
},
{
layerId = "3FEB53C4-AE65-4B2F-B735-1C16ECFA7AEE";
paths = (
{
closed = 1;
nodes = (
"-115 0 LINE",
"87 0 LINE",
"166 165 LINE",
"480 165 LINE",
"523 0 LINE",
"725 0 LINE",
"479 825 LINE",
"305 825 LINE"
);
},
{
closed = 1;
nodes = (
"364 570 LINE",
"366 570 LINE",
"433 330 LINE",
"247 330 LINE"
);
},
{
closed = 1;
nodes = (
"531 1152 LINE",
"531 1152 OFFCURVE",
"510 1049 OFFCURVE",
"416 1049 CURVE SMOOTH",
"322 1049 OFFCURVE",
"321 1152 OFFCURVE",
"321 1152 CURVE",
"192 1121 LINE",
"193 1014 OFFCURVE",
"275 940 OFFCURVE",
"404 940 CURVE SMOOTH",
"533 940 OFFCURVE",
"631 1014 OFFCURVE",
"654 1121 CURVE"
);
}
);
width = 784;
}
);
leftKerningGroup = A;
rightKerningGroup = d;
unicode = 0102;
},
{
glyphname = Acircumflex;
lastChange = "2017-03-22 17:52:50 +0000";
layers = (
{
layerId = "A4E552E4-62BE-43BB-A58F-34F0EE3B77B8";
paths = (
{
closed = 1;
nodes = (
"-28 0 LINE",
"174 0 LINE",
"235 165 LINE",
"549 165 LINE",
"610 0 LINE",
"812 0 LINE",
"479 825 LINE",
"305 825 LINE"
);
},
{
closed = 1;
nodes = (
"391 570 LINE",
"393 570 LINE",
"485 330 LINE",
"299 330 LINE"
);
},
{
closed = 1;
nodes = (
"392 1011 LINE",
"545 899 LINE",
"613 990 LINE",
"392 1152 LINE",
"171 990 LINE",
"239 899 LINE"
);
}
);
width = 784;
},
{
layerId = "7B60DD57-6012-4D0F-BD38-A72A4BAC0E9D";
paths = (
{
closed = 1;
nodes = (
"-28 0 LINE",
"174 0 LINE",
"235 165 LINE",
"549 165 LINE",
"610 0 LINE",
"812 0 LINE",
"479 825 LINE",
"305 825 LINE"
);
},
{
closed = 1;
nodes = (
"391 570 LINE",
"393 570 LINE",
"485 330 LINE",
"299 330 LINE"
);
},
{
closed = 1;
nodes = (
"392 1011 LINE",
"545 899 LINE",
"613 990 LINE",
"392 1152 LINE",
"171 990 LINE",
"239 899 LINE"
);
}
);
width = 784;
},
{
layerId = "3FEB53C4-AE65-4B2F-B735-1C16ECFA7AEE";
paths = (
{
closed = 1;
nodes = (
"-115 0 LINE",
"87 0 LINE",
"166 165 LINE",
"480 165 LINE",
"523 0 LINE",
"725 0 LINE",
"479 825 LINE",
"305 825 LINE"
);
},
{
closed = 1;
nodes = (
"364 570 LINE",
"366 570 LINE",
"433 330 LINE",
"247 330 LINE"
);
},
{
closed = 1;
nodes = (
"412 1011 LINE",
"553 899 LINE",
"630 990 LINE",
"426 1152 LINE",
"188 990 LINE",
"247 899 LINE"
);
}
);
width = 784;
}
);
leftKerningGroup = A;
rightKerningGroup = d;
unicode = 00C2;
},
{
glyphname = Adieresis;
lastChange = "2017-03-22 17:52:50 +0000";
layers = (
{
layerId = "A4E552E4-62BE-43BB-A58F-34F0EE3B77B8";
paths = (
{
closed = 1;
nodes = (
"-28 0 LINE",
"174 0 LINE",
"235 165 LINE",
"549 165 LINE",
"610 0 LINE",
"812 0 LINE",
"479 825 LINE",
"305 825 LINE"
);
},
{
closed = 1;
nodes = (
"391 570 LINE",
"393 570 LINE",
"485 330 LINE",
"299 330 LINE"
);
},
{
closed = 1;
nodes = (
"222 1103 OFFCURVE",
"181 1062 OFFCURVE",
"181 1011 CURVE SMOOTH",
"181 960 OFFCURVE",
"222 919 OFFCURVE",
"273 919 CURVE SMOOTH",
"324 919 OFFCURVE",
"365 960 OFFCURVE",
"365 1011 CURVE SMOOTH",
"365 1062 OFFCURVE",
"324 1103 OFFCURVE",
"273 1103 CURVE SMOOTH"
);
},
{
closed = 1;
nodes = (
"459 1103 OFFCURVE",
"418 1062 OFFCURVE",
"418 1011 CURVE SMOOTH",
"418 960 OFFCURVE",
"459 919 OFFCURVE",
"510 919 CURVE SMOOTH",
"561 919 OFFCURVE",
"602 960 OFFCURVE",
"602 1011 CURVE SMOOTH",
"602 1062 OFFCURVE",
"561 1103 OFFCURVE",
"510 1103 CURVE SMOOTH"
);
}
);
width = 784;
},
{
layerId = "7B60DD57-6012-4D0F-BD38-A72A4BAC0E9D";
paths = (
{
closed = 1;
nodes = (
"-28 0 LINE",
"174 0 LINE",
"235 165 LINE",
"549 165 LINE",
"610 0 LINE",
"812 0 LINE",
"479 825 LINE",
"305 825 LINE"
);
},
{
closed = 1;
nodes = (
"391 570 LINE",
"393 570 LINE",
"485 330 LINE",
"299 330 LINE"
);
},
{
closed = 1;
nodes = (
"222 1103 OFFCURVE",
"181 1062 OFFCURVE",
"181 1011 CURVE SMOOTH",
"181 960 OFFCURVE",
"222 919 OFFCURVE",
"273 919 CURVE SMOOTH",
"324 919 OFFCURVE",
"365 960 OFFCURVE",
"365 1011 CURVE SMOOTH",
"365 1062 OFFCURVE",
"324 1103 OFFCURVE",
"273 1103 CURVE SMOOTH"
);
},
{
closed = 1;
nodes = (
"459 1103 OFFCURVE",
"418 1062 OFFCURVE",
"418 1011 CURVE SMOOTH",
"418 960 OFFCURVE",
"459 919 OFFCURVE",
"510 919 CURVE SMOOTH",
"561 919 OFFCURVE",
"602 960 OFFCURVE",
"602 1011 CURVE SMOOTH",
"602 1062 OFFCURVE",
"561 1103 OFFCURVE",
"510 1103 CURVE SMOOTH"
);
}
);
width = 784;
},
{
layerId = "3FEB53C4-AE65-4B2F-B735-1C16ECFA7AEE";
paths = (
{
closed = 1;
nodes = (
"-115 0 LINE",
"87 0 LINE",
"166 165 LINE",
"480 165 LINE",
"523 0 LINE",
"725 0 LINE",
"479 825 LINE",
"305 825 LINE"
);
},
{
closed = 1;
nodes = (
"364 570 LINE",
"366 570 LINE",
"433 330 LINE",
"247 330 LINE"
);
},
{
closed = 1;
nodes = (
"251 1103 OFFCURVE",
"206 1062 OFFCURVE",
"201 1011 CURVE SMOOTH",
"195 960 OFFCURVE",
"232 919 OFFCURVE",
"283 919 CURVE SMOOTH",
"334 919 OFFCURVE",
"379 960 OFFCURVE",
"385 1011 CURVE SMOOTH",
"390 1062 OFFCURVE",
"353 1103 OFFCURVE",
"302 1103 CURVE SMOOTH"
);
},
{
closed = 1;
nodes = (
"488 1103 OFFCURVE",
"443 1062 OFFCURVE",
"438 1011 CURVE SMOOTH",
"432 960 OFFCURVE",
"469 919 OFFCURVE",
"520 919 CURVE SMOOTH",
"571 919 OFFCURVE",
"616 960 OFFCURVE",
"622 1011 CURVE SMOOTH",
"627 1062 OFFCURVE",
"590 1103 OFFCURVE",
"539 1103 CURVE SMOOTH"
);
}
);
width = 784;
}
);
leftKerningGroup = A;
rightKerningGroup = d;
unicode = 00C4;
},
{
glyphname = Agrave;
lastChange = "2017-03-22 17:52:50 +0000";
layers = (
{
layerId = "A4E552E4-62BE-43BB-A58F-34F0EE3B77B8";
paths = (
{
closed = 1;
nodes = (
"-28 0 LINE",
"174 0 LINE",
"235 165 LINE",
"549 165 LINE",
"610 0 LINE",
"812 0 LINE",
"479 825 LINE",
"305 825 LINE"
);
},
{
closed = 1;
nodes = (
"391 570 LINE",
"393 570 LINE",
"485 330 LINE",
"299 330 LINE"
);
},
{
closed = 1;
nodes = (
"394 899 LINE",
"450 976 LINE",
"247 1152 LINE",
"156 1037 LINE"
);
}
);
width = 784;
},
{
layerId = "7B60DD57-6012-4D0F-BD38-A72A4BAC0E9D";
paths = (
{
closed = 1;
nodes = (
"-28 0 LINE",
"174 0 LINE",
"235 165 LINE",
"549 165 LINE",
"610 0 LINE",
"812 0 LINE",
"479 825 LINE",
"305 825 LINE"
);
},
{
closed = 1;
nodes = (
"391 570 LINE",
"393 570 LINE",
"485 330 LINE",
"299 330 LINE"
);
},
{
closed = 1;
nodes = (
"394 899 LINE",
"450 976 LINE",
"247 1152 LINE",
"156 1037 LINE"
);
}
);
width = 784;
},
{
layerId = "3FEB53C4-AE65-4B2F-B735-1C16ECFA7AEE";
paths = (
{
closed = 1;
nodes = (
"-115 0 LINE",
"87 0 LINE",
"166 165 LINE",
"480 165 LINE",
"523 0 LINE",
"725 0 LINE",
"479 825 LINE",
"305 825 LINE"
);
},
{
closed = 1;
nodes = (
"364 570 LINE",
"366 570 LINE",
"433 330 LINE",
"247 330 LINE"
);
},
{
closed = 1;
nodes = (
"402 899 LINE",
"466 976 LINE",
"281 1152 LINE",
"178 1037 LINE"
);
}
);
width = 784;
}
);
leftKerningGroup = A;
rightKerningGroup = d;
unicode = 00C0;
},
{
glyphname = Amacron;
lastChange = "2017-03-22 17:52:50 +0000";
layers = (
{
layerId = "A4E552E4-62BE-43BB-A58F-34F0EE3B77B8";
paths = (
{
closed = 1;
nodes = (
"-28 0 LINE",
"174 0 LINE",
"235 165 LINE",
"549 165 LINE",
"610 0 LINE",
"812 0 LINE",
"479 825 LINE",
"305 825 LINE"
);
},
{
closed = 1;
nodes = (
"391 570 LINE",
"393 570 LINE",
"485 330 LINE",
"299 330 LINE"
);
},
{
closed = 1;
nodes = (
"596 946 LINE",
"596 1066 LINE",
"188 1066 LINE",
"188 946 LINE"
);
}
);
width = 784;
},
{
layerId = "7B60DD57-6012-4D0F-BD38-A72A4BAC0E9D";
paths = (
{
closed = 1;
nodes = (
"-28 0 LINE",
"174 0 LINE",
"235 165 LINE",
"549 165 LINE",
"610 0 LINE",
"812 0 LINE",
"479 825 LINE",
"305 825 LINE"
);
},
{
closed = 1;
nodes = (
"391 570 LINE",
"393 570 LINE",
"485 330 LINE",
"299 330 LINE"
);
},
{
closed = 1;
nodes = (
"596 946 LINE",
"596 1066 LINE",
"188 1066 LINE",
"188 946 LINE"
);
}
);
width = 784;
},
{
layerId = "3FEB53C4-AE65-4B2F-B735-1C16ECFA7AEE";
paths = (
{
closed = 1;
nodes = (
"-115 0 LINE",
"87 0 LINE",
"166 165 LINE",
"480 165 LINE",
"523 0 LINE",
"725 0 LINE",
"479 825 LINE",
"305 825 LINE"
);
},
{
closed = 1;
nodes = (
"364 570 LINE",
"366 570 LINE",
"433 330 LINE",
"247 330 LINE"
);
},
{
closed = 1;
nodes = (
"609 946 LINE",
"621 1066 LINE",
"213 1066 LINE",
"201 946 LINE"
);
}
);
width = 784;
}
);
leftKerningGroup = A;
rightKerningGroup = d;
unicode = 0100;
},
{
glyphname = Aogonek;
lastChange = "2017-03-22 17:52:50 +0000";
layers = (
{
layerId = "A4E552E4-62BE-43BB-A58F-34F0EE3B77B8";
paths = (
{
closed = 1;
nodes = (
"549 -245 OFFCURVE",
"623 -275 OFFCURVE",
"675 -275 CURVE SMOOTH",
"767 -275 OFFCURVE",
"812 -203 OFFCURVE",
"812 -203 CURVE",
"740 -149 LINE",
"740 -149 OFFCURVE",
"720 -179 OFFCURVE",
"689 -179 CURVE SMOOTH",
"672 -179 OFFCURVE",
"652 -165 OFFCURVE",
"652 -140 CURVE SMOOTH",
"652 -70 OFFCURVE",
"711 0 OFFCURVE",
"711 0 CURVE",
"812 0 LINE",
"479 825 LINE",
"305 825 LINE",
"-28 0 LINE",
"174 0 LINE",
"235 165 LINE",
"549 165 LINE",
"610 0 LINE",
"629 0 LINE",
"599 -36 OFFCURVE",
"549 -103 OFFCURVE",
"549 -158 CURVE SMOOTH"
);
},
{
closed = 1;
nodes = (
"391 570 LINE",
"393 570 LINE",
"485 330 LINE",
"299 330 LINE"
);
}
);
width = 784;
},
{
layerId = "7B60DD57-6012-4D0F-BD38-A72A4BAC0E9D";
paths = (
{
closed = 1;
nodes = (
"549 -245 OFFCURVE",
"623 -275 OFFCURVE",
"675 -275 CURVE SMOOTH",
"767 -275 OFFCURVE",
"812 -203 OFFCURVE",
"812 -203 CURVE",
"740 -149 LINE",
"740 -149 OFFCURVE",
"720 -179 OFFCURVE",
"689 -179 CURVE SMOOTH",
"672 -179 OFFCURVE",
"652 -165 OFFCURVE",
"652 -140 CURVE SMOOTH",
"652 -70 OFFCURVE",
"711 0 OFFCURVE",
"711 0 CURVE",
"812 0 LINE",
"479 825 LINE",
"305 825 LINE",
"-28 0 LINE",
"174 0 LINE",
"235 165 LINE",
"549 165 LINE",
"610 0 LINE",
"629 0 LINE",
"599 -36 OFFCURVE",
"549 -103 OFFCURVE",
"549 -158 CURVE SMOOTH"
);
},
{
closed = 1;
nodes = (
"391 570 LINE",
"393 570 LINE",
"485 330 LINE",
"299 330 LINE"
);
}
);
width = 784;
},
{
layerId = "3FEB53C4-AE65-4B2F-B735-1C16ECFA7AEE";
paths = (
{
closed = 1;
nodes = (
"437 -245 OFFCURVE",
"507 -275 OFFCURVE",
"559 -275 CURVE SMOOTH",
"651 -275 OFFCURVE",
"704 -203 OFFCURVE",
"704 -203 CURVE",
"638 -149 LINE",
"638 -149 OFFCURVE",
"614 -179 OFFCURVE",
"583 -179 CURVE SMOOTH",
"566 -179 OFFCURVE",
"548 -165 OFFCURVE",
"551 -140 CURVE SMOOTH",
"558 -70 OFFCURVE",
"624 0 OFFCURVE",
"624 0 CURVE",
"725 0 LINE",
"479 825 LINE",
"305 825 LINE",
"-115 0 LINE",
"87 0 LINE",
"166 165 LINE",
"480 165 LINE",
"523 0 LINE",
"542 0 LINE",
"509 -36 OFFCURVE",
"451 -103 OFFCURVE",
"446 -158 CURVE SMOOTH"
);
},
{
closed = 1;
nodes = (
"364 570 LINE",
"366 570 LINE",
"433 330 LINE",
"247 330 LINE"
);
}
);
width = 784;
}
);
leftKerningGroup = A;
rightKerningGroup = d;
unicode = 0104;
},
{
glyphname = Aring;
lastChange = "2017-03-22 17:52:50 +0000";
layers = (
{
layerId = "A4E552E4-62BE-43BB-A58F-34F0EE3B77B8";
paths = (
{
closed = 1;
nodes = (
"-28 0 LINE",
"174 0 LINE",
"235 165 LINE",
"549 165 LINE",
"610 0 LINE",
"812 0 LINE",
"479 825 LINE",
"305 825 LINE"
);
},
{
closed = 1;
nodes = (
"391 570 LINE",
"393 570 LINE",
"485 330 LINE",
"299 330 LINE"
);
},
{
closed = 1;
nodes = (
"231 961 OFFCURVE",
"296 902 OFFCURVE",
"392 902 CURVE SMOOTH",
"486 902 OFFCURVE",
"553 961 OFFCURVE",
"553 1045 CURVE SMOOTH",
"553 1128 OFFCURVE",
"483 1187 OFFCURVE",
"392 1187 CURVE SMOOTH",
"302 1187 OFFCURVE",
"231 1128 OFFCURVE",
"231 1045 CURVE SMOOTH"
);
},
{
closed = 1;
nodes = (
"331 1079 OFFCURVE",
"359 1107 OFFCURVE",
"392 1107 CURVE SMOOTH",
"426 1107 OFFCURVE",
"453 1079 OFFCURVE",
"453 1045 CURVE SMOOTH",
"453 1010 OFFCURVE",
"427 981 OFFCURVE",
"392 981 CURVE SMOOTH",
"356 981 OFFCURVE",
"331 1010 OFFCURVE",
"331 1045 CURVE SMOOTH"
);
}
);
width = 784;
},
{
layerId = "7B60DD57-6012-4D0F-BD38-A72A4BAC0E9D";
paths = (
{
closed = 1;
nodes = (
"-28 0 LINE",
"174 0 LINE",
"235 165 LINE",
"549 165 LINE",
"610 0 LINE",
"812 0 LINE",
"479 825 LINE",
"305 825 LINE"
);
},
{
closed = 1;
nodes = (
"391 570 LINE",
"393 570 LINE",
"485 330 LINE",
"299 330 LINE"
);
},
{
closed = 1;
nodes = (
"231 961 OFFCURVE",
"296 902 OFFCURVE",
"392 902 CURVE SMOOTH",
"486 902 OFFCURVE",
"553 961 OFFCURVE",
"553 1045 CURVE SMOOTH",
"553 1128 OFFCURVE",
"483 1187 OFFCURVE",
"392 1187 CURVE SMOOTH",
"302 1187 OFFCURVE",
"231 1128 OFFCURVE",
"231 1045 CURVE SMOOTH"
);
},
{
closed = 1;
nodes = (
"331 1079 OFFCURVE",
"359 1107 OFFCURVE",
"392 1107 CURVE SMOOTH",
"426 1107 OFFCURVE",
"453 1079 OFFCURVE",
"453 1045 CURVE SMOOTH",
"453 1010 OFFCURVE",
"427 981 OFFCURVE",
"392 981 CURVE SMOOTH",
"356 981 OFFCURVE",
"331 1010 OFFCURVE",
"331 1045 CURVE SMOOTH"
);
}
);
width = 784;
},
{
layerId = "3FEB53C4-AE65-4B2F-B735-1C16ECFA7AEE";
paths = (
{
closed = 1;
nodes = (
"-115 0 LINE",
"87 0 LINE",
"166 165 LINE",
"480 165 LINE",
"523 0 LINE",
"725 0 LINE",
"479 825 LINE",
"305 825 LINE"
);
},
{
closed = 1;
nodes = (
"364 570 LINE",
"366 570 LINE",
"433 330 LINE",
"247 330 LINE"
);
},
{
closed = 1;
nodes = (
"245 961 OFFCURVE",
"304 902 OFFCURVE",
"400 902 CURVE SMOOTH",
"494 902 OFFCURVE",
"567 961 OFFCURVE",
"576 1045 CURVE SMOOTH",
"585 1128 OFFCURVE",
"521 1187 OFFCURVE",
"430 1187 CURVE SMOOTH",
"340 1187 OFFCURVE",
"263 1128 OFFCURVE",
"254 1045 CURVE SMOOTH"
);
},
{
closed = 1;
nodes = (
"358 1079 OFFCURVE",
"389 1107 OFFCURVE",
"422 1107 CURVE SMOOTH",
"456 1107 OFFCURVE",
"480 1079 OFFCURVE",
"476 1045 CURVE SMOOTH",
"472 1010 OFFCURVE",
"443 981 OFFCURVE",
"408 981 CURVE SMOOTH",
"372 981 OFFCURVE",
"350 1010 OFFCURVE",
"354 1045 CURVE SMOOTH"
);
}
);
width = 784;
}
);
leftKerningGroup = A;
rightKerningGroup = d;
unicode = 00C5;
},
{
glyphname = Atilde;
lastChange = "2017-03-22 17:52:50 +0000";
layers = (
{
layerId = "A4E552E4-62BE-43BB-A58F-34F0EE3B77B8";
paths = (
{
closed = 1;
nodes = (
"-28 0 LINE",
"174 0 LINE",
"235 165 LINE",
"549 165 LINE",
"610 0 LINE",
"812 0 LINE",
"479 825 LINE",
"305 825 LINE"
);
},
{
closed = 1;
nodes = (
"391 570 LINE",
"393 570 LINE",
"485 330 LINE",
"299 330 LINE"
);
},
{
closed = 1;
nodes = (
"383 954 OFFCURVE",
"448 927 OFFCURVE",
"487 927 CURVE SMOOTH",
"597 927 OFFCURVE",
"623 1099 OFFCURVE",
"623 1099 CURVE SMOOTH",
"522 1099 LINE SMOOTH",
"522 1099 OFFCURVE",
"509 1053 OFFCURVE",
"477 1053 CURVE SMOOTH",
"441 1053 OFFCURVE",
"401 1072 OFFCURVE",
"401 1072 CURVE SMOOTH",
"401 1072 OFFCURVE",
"336 1099 OFFCURVE",
"297 1099 CURVE SMOOTH",
"187 1099 OFFCURVE",
"161 927 OFFCURVE",
"161 927 CURVE",
"262 927 LINE",
"262 927 OFFCURVE",
"275 973 OFFCURVE",
"307 973 CURVE SMOOTH",
"343 973 OFFCURVE",
"383 954 OFFCURVE",
"383 954 CURVE SMOOTH"
);
}
);
width = 784;
},
{
layerId = "7B60DD57-6012-4D0F-BD38-A72A4BAC0E9D";
paths = (
{
closed = 1;
nodes = (
"-28 0 LINE",
"174 0 LINE",
"235 165 LINE",
"549 165 LINE",
"610 0 LINE",
"812 0 LINE",
"479 825 LINE",
"305 825 LINE"
);
},
{
closed = 1;
nodes = (
"391 570 LINE",
"393 570 LINE",
"485 330 LINE",
"299 330 LINE"
);
},
{
closed = 1;
nodes = (
"383 954 OFFCURVE",
"448 927 OFFCURVE",
"487 927 CURVE SMOOTH",
"597 927 OFFCURVE",
"623 1099 OFFCURVE",
"623 1099 CURVE SMOOTH",
"522 1099 LINE SMOOTH",
"522 1099 OFFCURVE",
"509 1053 OFFCURVE",
"477 1053 CURVE SMOOTH",
"441 1053 OFFCURVE",
"401 1072 OFFCURVE",
"401 1072 CURVE SMOOTH",
"401 1072 OFFCURVE",
"336 1099 OFFCURVE",
"297 1099 CURVE SMOOTH",
"187 1099 OFFCURVE",
"161 927 OFFCURVE",
"161 927 CURVE",
"262 927 LINE",
"262 927 OFFCURVE",
"275 973 OFFCURVE",
"307 973 CURVE SMOOTH",
"343 973 OFFCURVE",
"383 954 OFFCURVE",
"383 954 CURVE SMOOTH"
);
}
);
width = 784;
},
{
layerId = "3FEB53C4-AE65-4B2F-B735-1C16ECFA7AEE";
paths = (
{
closed = 1;
nodes = (
"-115 0 LINE",
"87 0 LINE",
"166 165 LINE",
"480 165 LINE",
"523 0 LINE",
"725 0 LINE",
"479 825 LINE",
"305 825 LINE"
);
},
{
closed = 1;
nodes = (
"364 570 LINE",
"366 570 LINE",
"433 330 LINE",
"247 330 LINE"
);
},
{
closed = 1;
nodes = (
"397 954 OFFCURVE",
"459 927 OFFCURVE",
"498 927 CURVE SMOOTH",
"608 927 OFFCURVE",
"652 1099 OFFCURVE",
"652 1099 CURVE SMOOTH",
"551 1099 LINE SMOOTH",
"551 1099 OFFCURVE",
"533 1053 OFFCURVE",
"501 1053 CURVE SMOOTH",
"465 1053 OFFCURVE",
"427 1072 OFFCURVE",
"427 1072 CURVE SMOOTH",
"427 1072 OFFCURVE",
"365 1099 OFFCURVE",
"326 1099 CURVE SMOOTH",
"216 1099 OFFCURVE",
"172 927 OFFCURVE",
"172 927 CURVE",
"273 927 LINE",
"273 927 OFFCURVE",
"291 973 OFFCURVE",
"323 973 CURVE SMOOTH",
"359 973 OFFCURVE",
"397 954 OFFCURVE",
"397 954 CURVE SMOOTH"
);
}
);
width = 784;
}
);
leftKerningGroup = A;
rightKerningGroup = d;
unicode = 00C3;
},
{
glyphname = AE;
lastChange = "2017-03-22 17:52:50 +0000";
layers = (
{
layerId = "A4E552E4-62BE-43BB-A58F-34F0EE3B77B8";
paths = (
{
closed = 1;
nodes = (
"460 0 LINE",
"932 0 LINE",
"932 165 LINE",
"648 165 LINE",
"648 331 LINE",
"920 331 LINE",
"920 496 LINE",
"648 496 LINE",
"648 660 LINE",
"932 660 LINE",
"932 825 LINE",
"372 825 LINE",
"-5 0 LINE",
"197 0 LINE",
"267 165 LINE",
"460 165 LINE"
);
},
{
closed = 1;
nodes = (
"458 632 LINE",
"460 632 LINE",
"460 330 LINE",
"333 330 LINE"
);
}
);
width = 980;
},
{
layerId = "7B60DD57-6012-4D0F-BD38-A72A4BAC0E9D";
paths = (
{
closed = 1;
nodes = (
"460 0 LINE",
"932 0 LINE",
"932 165 LINE",
"648 165 LINE",
"648 331 LINE",
"920 331 LINE",
"920 496 LINE",
"648 496 LINE",
"648 660 LINE",
"932 660 LINE",
"932 825 LINE",
"372 825 LINE",
"-5 0 LINE",
"197 0 LINE",
"267 165 LINE",
"460 165 LINE"
);
},
{
closed = 1;
nodes = (
"458 632 LINE",
"460 632 LINE",
"460 330 LINE",
"333 330 LINE"
);
}
);
width = 980;
},
{
layerId = "3FEB53C4-AE65-4B2F-B735-1C16ECFA7AEE";
paths = (
{
closed = 1;
nodes = (
"373 0 LINE",
"845 0 LINE",
"863 165 LINE",
"579 165 LINE",
"596 331 LINE",
"868 331 LINE",
"885 496 LINE",
"613 496 LINE",
"631 660 LINE",
"915 660 LINE",
"932 825 LINE",
"372 825 LINE",
"-92 0 LINE",
"110 0 LINE",
"198 165 LINE",
"391 165 LINE"
);
},
{
closed = 1;
nodes = (
"438 632 LINE",
"440 632 LINE",
"408 330 LINE",
"281 330 LINE"
);
}
);
width = 980;
}
);
rightKerningGroup = d;
unicode = 00C6;
},
{
glyphname = B;
lastChange = "2017-03-22 17:52:50 +0000";
layers = (
{
layerId = "A4E552E4-62BE-43BB-A58F-34F0EE3B77B8";
paths = (
{
closed = 1;
nodes = (
"60 0 LINE",
"377 0 LINE SMOOTH",
"548 0 OFFCURVE",
"643 94 OFFCURVE",
"643 230 CURVE SMOOTH",
"643 363 OFFCURVE",
"580 420 OFFCURVE",
"477 438 CURVE",
"548 455 OFFCURVE",
"608 518 OFFCURVE",
"608 615 CURVE SMOOTH",
"608 772 OFFCURVE",
"486 825 OFFCURVE",
"344 825 CURVE SMOOTH",
"60 825 LINE"
);
},
{
closed = 1;
nodes = (
"248 340 LINE",
"307 340 LINE SMOOTH",
"396 340 OFFCURVE",
"445 313 OFFCURVE",
"445 237 CURVE SMOOTH",
"445 172 OFFCURVE",
"396 145 OFFCURVE",
"307 145 CURVE SMOOTH",
"248 145 LINE"
);
},
{
closed = 1;
nodes = (
"248 680 LINE",
"301 680 LINE SMOOTH",
"383 680 OFFCURVE",
"422 655 OFFCURVE",
"422 596 CURVE SMOOTH",
"422 527 OFFCURVE",
"382 502 OFFCURVE",
"301 502 CURVE SMOOTH",
"248 502 LINE"
);
}
);
width = 666;
},
{
layerId = "7B60DD57-6012-4D0F-BD38-A72A4BAC0E9D";
paths = (
{
closed = 1;
nodes = (
"60 0 LINE",
"317 0 LINE SMOOTH",
"488 0 OFFCURVE",
"560 104 OFFCURVE",
"560 230 CURVE SMOOTH",
"560 357 OFFCURVE",
"451 419 OFFCURVE",
"392 424 CURVE",
"445 434 OFFCURVE",
"518 518 OFFCURVE",
"518 625 CURVE SMOOTH",
"518 782 OFFCURVE",
"396 825 OFFCURVE",
"264 825 CURVE SMOOTH",
"60 825 LINE"
);
},
{
closed = 1;
nodes = (
"128 390 LINE",
"307 390 LINE SMOOTH",
"436 390 OFFCURVE",
"492 313 OFFCURVE",
"492 227 CURVE SMOOTH",
"492 152 OFFCURVE",
"456 65 OFFCURVE",
"317 65 CURVE SMOOTH",
"128 65 LINE"
);
},
{
closed = 1;
nodes = (
"128 760 LINE",
"271 760 LINE SMOOTH",
"393 760 OFFCURVE",
"452 715 OFFCURVE",
"452 616 CURVE SMOOTH",
"452 537 OFFCURVE",
"402 452 OFFCURVE",
"291 452 CURVE SMOOTH",
"128 452 LINE"
);
}
);
width = 593;
},
{
layerId = "3FEB53C4-AE65-4B2F-B735-1C16ECFA7AEE";
paths = (
{
closed = 1;
nodes = (
"-27 0 LINE",
"290 0 LINE SMOOTH",
"461 0 OFFCURVE",
"566 94 OFFCURVE",
"580 230 CURVE SMOOTH",
"594 363 OFFCURVE",
"537 420 OFFCURVE",
"436 438 CURVE",
"509 455 OFFCURVE",
"576 518 OFFCURVE",
"586 615 CURVE SMOOTH",
"602 772 OFFCURVE",
"486 825 OFFCURVE",
"344 825 CURVE SMOOTH",
"60 825 LINE"
);
},
{
closed = 1;
nodes = (
"197 340 LINE",
"256 340 LINE SMOOTH",
"345 340 OFFCURVE",
"391 313 OFFCURVE",
"383 237 CURVE SMOOTH",
"376 172 OFFCURVE",
"325 145 OFFCURVE",
"236 145 CURVE SMOOTH",
"177 145 LINE"
);
},
{
closed = 1;
nodes = (
"233 680 LINE",
"286 680 LINE SMOOTH",
"368 680 OFFCURVE",
"404 655 OFFCURVE",
"398 596 CURVE SMOOTH",
"391 527 OFFCURVE",
"348 502 OFFCURVE",
"267 502 CURVE SMOOTH",
"214 502 LINE"
);
}
);
width = 666;
}
);
rightKerningGroup = d;
unicode = 0042;
},
{
glyphname = C;
lastChange = "2017-03-22 17:52:50 +0000";
layers = (
{
layerId = "A4E552E4-62BE-43BB-A58F-34F0EE3B77B8";
paths = (
{
closed = 1;
nodes = (
"658 808 LINE",
"599 835 OFFCURVE",
"554 840 OFFCURVE",
"475 840 CURVE SMOOTH",
"234 840 OFFCURVE",
"23 654 OFFCURVE",
"23 413 CURVE SMOOTH",
"23 172 OFFCURVE",
"216 -15 OFFCURVE",
"475 -15 CURVE SMOOTH",
"545 -15 OFFCURVE",
"600 -11 OFFCURVE",
"658 15 CURVE",
"658 220 LINE",
"633 198 OFFCURVE",
"591 167 OFFCURVE",
"475 167 CURVE SMOOTH",
"312 167 OFFCURVE",
"234 290 OFFCURVE",
"234 413 CURVE SMOOTH",
"234 536 OFFCURVE",
"321 659 OFFCURVE",
"475 659 CURVE SMOOTH",
"590 659 OFFCURVE",
"633 626 OFFCURVE",
"658 603 CURVE"
);
}
);
width = 697;
},
{
layerId = "7B60DD57-6012-4D0F-BD38-A72A4BAC0E9D";
paths = (
{
closed = 1;
nodes = (
"588 803 LINE",
"552 825 OFFCURVE",
"502 840 OFFCURVE",
"415 840 CURVE SMOOTH",
"184 840 OFFCURVE",
"23 654 OFFCURVE",
"23 413 CURVE SMOOTH",
"23 172 OFFCURVE",
"166 -15 OFFCURVE",
"415 -15 CURVE SMOOTH",
"495 -15 OFFCURVE",
"558 5 OFFCURVE",
"588 25 CURVE",
"588 101 LINE",
"567 86 OFFCURVE",
"517 53 OFFCURVE",
"415 53 CURVE SMOOTH",
"262 53 OFFCURVE",
"98 170 OFFCURVE",
"98 413 CURVE SMOOTH",
"98 656 OFFCURVE",
"271 773 OFFCURVE",
"415 773 CURVE SMOOTH",
"520 773 OFFCURVE",
"569 740 OFFCURVE",
"588 727 CURVE"
);
}
);
width = 627;
},
{
layerId = "3FEB53C4-AE65-4B2F-B735-1C16ECFA7AEE";
paths = (
{
closed = 1;
nodes = (
"656 808 LINE",
"600 835 OFFCURVE",
"556 840 OFFCURVE",
"477 840 CURVE SMOOTH",
"236 840 OFFCURVE",
"5 654 OFFCURVE",
"-20 413 CURVE SMOOTH",
"-46 172 OFFCURVE",
"128 -15 OFFCURVE",
"387 -15 CURVE SMOOTH",
"457 -15 OFFCURVE",
"512 -11 OFFCURVE",
"573 15 CURVE",
"594 220 LINE",
"567 198 OFFCURVE",
"522 167 OFFCURVE",
"406 167 CURVE SMOOTH",
"243 167 OFFCURVE",
"178 290 OFFCURVE",
"191 413 CURVE SMOOTH",
"204 536 OFFCURVE",
"304 659 OFFCURVE",
"458 659 CURVE SMOOTH",
"573 659 OFFCURVE",
"612 626 OFFCURVE",
"635 603 CURVE"
);
}
);
width = 697;
}
);
leftKerningGroup = C;
rightKerningGroup = C;
unicode = 0043;
},
{
glyphname = Cacute;
lastChange = "2017-03-22 17:52:50 +0000";
layers = (
{
components = (
{
name = C;
}
);
layerId = "A4E552E4-62BE-43BB-A58F-34F0EE3B77B8";
paths = (
{
closed = 1;
nodes = (
"565 1037 LINE",
"474 1152 LINE",
"271 976 LINE",
"327 899 LINE"
);
}
);
width = 753;
},
{
components = (
{
name = C;
}
);
layerId = "7B60DD57-6012-4D0F-BD38-A72A4BAC0E9D";
paths = (
{
closed = 1;
nodes = (
"565 1037 LINE",
"474 1152 LINE",
"271 976 LINE",
"327 899 LINE"
);
}
);
width = 753;
},
{
components = (
{
name = C;
}
);
layerId = "3FEB53C4-AE65-4B2F-B735-1C16ECFA7AEE";
paths = (
{
closed = 1;
nodes = (
"587 1037 LINE",
"508 1152 LINE",
"287 976 LINE",
"335 899 LINE"
);
}
);
width = 753;
}
);
leftKerningGroup = C;
rightKerningGroup = C;
unicode = 0106;
},
{
glyphname = Ccaron;
lastChange = "2017-03-22 17:52:50 +0000";
layers = (
{
components = (
{
name = C;
}
);
layerId = "A4E552E4-62BE-43BB-A58F-34F0EE3B77B8";
paths = (
{
closed = 1;
nodes = (
"431 899 LINE",
"652 1061 LINE",
"584 1152 LINE",
"431 1040 LINE",
"278 1152 LINE",
"210 1061 LINE"
);
}
);
width = 753;
},
{
components = (
{
name = C;
}
);
layerId = "7B60DD57-6012-4D0F-BD38-A72A4BAC0E9D";
paths = (
{
closed = 1;
nodes = (
"431 899 LINE",
"652 1061 LINE",
"584 1152 LINE",
"431 1040 LINE",
"278 1152 LINE",
"210 1061 LINE"
);
}
);
width = 753;
},
{
components = (
{
name = C;
}
);
layerId = "3FEB53C4-AE65-4B2F-B735-1C16ECFA7AEE";
paths = (
{
closed = 1;
nodes = (
"439 899 LINE",
"677 1061 LINE",
"618 1152 LINE",
"454 1040 LINE",
"312 1152 LINE",
"235 1061 LINE"
);
}
);
width = 753;
}
);
leftKerningGroup = C;
rightKerningGroup = C;
unicode = 010C;
},
{
glyphname = Ccedilla;
lastChange = "2017-03-22 17:52:50 +0000";
layers = (
{
components = (
{
name = C;
}
);
layerId = "A4E552E4-62BE-43BB-A58F-34F0EE3B77B8";
paths = (
{
closed = 1;
nodes = (
"338 7 LINE",
"297 -121 LINE",
"307 -129 LINE",
"307 -129 OFFCURVE",
"322 -120 OFFCURVE",
"358 -120 CURVE SMOOTH",
"386 -120 OFFCURVE",
"420 -134 OFFCURVE",
"420 -165 CURVE SMOOTH",
"420 -184 OFFCURVE",
"407 -204 OFFCURVE",
"370 -204 CURVE SMOOTH",
"324 -204 OFFCURVE",
"288 -157 OFFCURVE",
"288 -157 CURVE",
"216 -211 LINE",
"216 -211 OFFCURVE",
"280 -294 OFFCURVE",
"370 -294 CURVE SMOOTH",
"481 -294 OFFCURVE",
"522 -228 OFFCURVE",
"522 -165 CURVE SMOOTH",
"522 -96 OFFCURVE",
"448 -63 OFFCURVE",
"393 -63 CURVE",
"413 -2 LINE"
);
}
);
width = 753;
},
{
components = (
{
name = C;
}
);
layerId = "7B60DD57-6012-4D0F-BD38-A72A4BAC0E9D";
paths = (
{
closed = 1;
nodes = (
"338 7 LINE",
"297 -121 LINE",
"307 -129 LINE",
"307 -129 OFFCURVE",
"322 -120 OFFCURVE",
"358 -120 CURVE SMOOTH",
"386 -120 OFFCURVE",
"420 -134 OFFCURVE",
"420 -165 CURVE SMOOTH",
"420 -184 OFFCURVE",
"407 -204 OFFCURVE",
"370 -204 CURVE SMOOTH",
"324 -204 OFFCURVE",
"288 -157 OFFCURVE",
"288 -157 CURVE",
"216 -211 LINE",
"216 -211 OFFCURVE",
"280 -294 OFFCURVE",
"370 -294 CURVE SMOOTH",
"481 -294 OFFCURVE",
"522 -228 OFFCURVE",
"522 -165 CURVE SMOOTH",
"522 -96 OFFCURVE",
"448 -63 OFFCURVE",
"393 -63 CURVE",
"413 -2 LINE"
);
}
);
width = 753;
},
{
components = (
{
name = C;
}
);
layerId = "3FEB53C4-AE65-4B2F-B735-1C16ECFA7AEE";
paths = (
{
closed = 1;
nodes = (
"252 7 LINE",
"198 -121 LINE",
"207 -129 LINE",
"207 -129 OFFCURVE",
"223 -120 OFFCURVE",
"259 -120 CURVE SMOOTH",
"287 -120 OFFCURVE",
"319 -134 OFFCURVE",
"316 -165 CURVE SMOOTH",
"314 -184 OFFCURVE",
"299 -204 OFFCURVE",
"262 -204 CURVE SMOOTH",
"216 -204 OFFCURVE",
"185 -157 OFFCURVE",
"185 -157 CURVE",
"107 -211 LINE",
"107 -211 OFFCURVE",
"162 -294 OFFCURVE",
"252 -294 CURVE SMOOTH",
"363 -294 OFFCURVE",
"411 -228 OFFCURVE",
"418 -165 CURVE SMOOTH",
"425 -96 OFFCURVE",
"355 -63 OFFCURVE",
"300 -63 CURVE",
"326 -2 LINE"
);
}
);
width = 753;
}
);
leftKerningGroup = C;
rightKerningGroup = C;
unicode = 00C7;
},
{
glyphname = D;
lastChange = "2017-03-22 17:52:50 +0000";
layers = (
{
layerId = "A4E552E4-62BE-43BB-A58F-34F0EE3B77B8";
paths = (
{
closed = 1;
nodes = (
"60 0 LINE",
"309 0 LINE SMOOTH",
"536 0 OFFCURVE",
"700 172 OFFCURVE",
"700 413 CURVE SMOOTH",
"700 653 OFFCURVE",
"535 825 OFFCURVE",
"309 825 CURVE SMOOTH",
"60 825 LINE"
);
},
{
closed = 1;
nodes = (
"287 657 LINE SMOOTH",
"427 657 OFFCURVE",
"502 550 OFFCURVE",
"502 412 CURVE SMOOTH",
"501 274 OFFCURVE",
"426 168 OFFCURVE",
"287 168 CURVE SMOOTH",
"248 168 LINE",
"248 657 LINE"
);
}
);
width = 722;
},
{
layerId = "7B60DD57-6012-4D0F-BD38-A72A4BAC0E9D";
paths = (
{
closed = 1;
nodes = (
"60 0 LINE",
"229 0 LINE SMOOTH",
"486 0 OFFCURVE",
"610 172 OFFCURVE",
"610 413 CURVE SMOOTH",
"610 653 OFFCURVE",
"485 825 OFFCURVE",
"229 825 CURVE SMOOTH",
"60 825 LINE"
);
},
{
closed = 1;
nodes = (
"207 757 LINE SMOOTH",
"427 757 OFFCURVE",
"543 630 OFFCURVE",
"542 412 CURVE SMOOTH",
"541 194 OFFCURVE",
"426 68 OFFCURVE",
"207 68 CURVE SMOOTH",
"128 68 LINE",
"128 757 LINE"
);
}
);
width = 635;
},
{
layerId = "3FEB53C4-AE65-4B2F-B735-1C16ECFA7AEE";
paths = (
{
closed = 1;
nodes = (
"-27 0 LINE",
"222 0 LINE SMOOTH",
"449 0 OFFCURVE",
"631 172 OFFCURVE",
"657 413 CURVE SMOOTH",
"682 653 OFFCURVE",
"535 825 OFFCURVE",
"309 825 CURVE SMOOTH",
"60 825 LINE"
);
},
{
closed = 1;
nodes = (
"269 657 LINE SMOOTH",
"409 657 OFFCURVE",
"473 550 OFFCURVE",
"459 412 CURVE SMOOTH",
"443 274 OFFCURVE",
"357 168 OFFCURVE",
"218 168 CURVE SMOOTH",
"179 168 LINE",
"230 657 LINE"
);
}
);
width = 722;
}
);
rightKerningGroup = d;
unicode = 0044;
},
{
glyphname = Eth;
lastChange = "2017-03-22 17:52:50 +0000";
layers = (
{
layerId = "A4E552E4-62BE-43BB-A58F-34F0EE3B77B8";
paths = (
{
closed = 1;
nodes = (
"98 0 LINE",
"337 0 LINE SMOOTH",
"563 0 OFFCURVE",
"752 171 OFFCURVE",
"753 412 CURVE SMOOTH",
"753 653 OFFCURVE",
"564 825 OFFCURVE",
"337 825 CURVE SMOOTH",
"98 825 LINE",
"98 489 LINE",
"16 489 LINE",
"16 336 LINE",
"98 336 LINE"
);
},
{
closed = 1;
nodes = (
"550 275 OFFCURVE",
"455 168 OFFCURVE",
"315 168 CURVE SMOOTH",
"286 168 LINE",
"286 336 LINE",
"395 336 LINE",
"395 489 LINE",
"286 489 LINE",
"286 657 LINE",
"315 657 LINE SMOOTH",
"454 657 OFFCURVE",
"549 550 OFFCURVE",
"550 413 CURVE SMOOTH"
);
}
);
width = 776;
},
{
layerId = "7B60DD57-6012-4D0F-BD38-A72A4BAC0E9D";
paths = (
{
closed = 1;
nodes = (
"98 0 LINE",
"337 0 LINE SMOOTH",
"563 0 OFFCURVE",
"752 171 OFFCURVE",
"753 412 CURVE SMOOTH",
"753 653 OFFCURVE",
"564 825 OFFCURVE",
"337 825 CURVE SMOOTH",
"98 825 LINE",
"98 489 LINE",
"16 489 LINE",
"16 336 LINE",
"98 336 LINE"
);
},
{
closed = 1;
nodes = (
"550 275 OFFCURVE",
"455 168 OFFCURVE",
"315 168 CURVE SMOOTH",
"286 168 LINE",
"286 336 LINE",
"395 336 LINE",
"395 489 LINE",
"286 489 LINE",
"286 657 LINE",
"315 657 LINE SMOOTH",
"454 657 OFFCURVE",
"549 550 OFFCURVE",
"550 413 CURVE SMOOTH"
);
}
);
width = 776;
},
{
layerId = "3FEB53C4-AE65-4B2F-B735-1C16ECFA7AEE";
paths = (
{
closed = 1;
nodes = (
"11 0 LINE",
"250 0 LINE SMOOTH",
"476 0 OFFCURVE",
"683 171 OFFCURVE",
"710 412 CURVE SMOOTH",
"735 653 OFFCURVE",
"564 825 OFFCURVE",
"337 825 CURVE SMOOTH",
"98 825 LINE",
"63 489 LINE",
"-19 489 LINE",
"-35 336 LINE",
"47 336 LINE"
);
},
{
closed = 1;
nodes = (
"492 275 OFFCURVE",
"386 168 OFFCURVE",
"246 168 CURVE SMOOTH",
"217 168 LINE",
"235 336 LINE",
"344 336 LINE",
"360 489 LINE",
"251 489 LINE",
"268 657 LINE",
"297 657 LINE SMOOTH",
"436 657 OFFCURVE",
"520 550 OFFCURVE",
"507 413 CURVE SMOOTH"
);
}
);
width = 776;
}
);
rightKerningGroup = d;
unicode = 00D0;
},
{
glyphname = Dcaron;
lastChange = "2017-03-22 17:52:50 +0000";
layers = (
{
layerId = "A4E552E4-62BE-43BB-A58F-34F0EE3B77B8";
paths = (
{
closed = 1;
nodes = (
"60 0 LINE",
"299 0 LINE SMOOTH",
"526 0 OFFCURVE",
"715 172 OFFCURVE",
"715 413 CURVE SMOOTH",
"715 653 OFFCURVE",
"525 825 OFFCURVE",
"299 825 CURVE SMOOTH",
"60 825 LINE"
);
},
{
closed = 1;
nodes = (
"277 657 LINE SMOOTH",
"417 657 OFFCURVE",
"512 550 OFFCURVE",
"512 412 CURVE SMOOTH",
"511 274 OFFCURVE",
"416 168 OFFCURVE",
"277 168 CURVE SMOOTH",
"248 168 LINE",
"248 657 LINE"
);
},
{
closed = 1;
nodes = (
"360 899 LINE",
"581 1061 LINE",
"513 1152 LINE",
"360 1040 LINE",
"207 1152 LINE",
"139 1061 LINE"
);
}
);
width = 738;
},
{
layerId = "7B60DD57-6012-4D0F-BD38-A72A4BAC0E9D";
paths = (
{
closed = 1;
nodes = (
"60 0 LINE",
"299 0 LINE SMOOTH",
"526 0 OFFCURVE",
"715 172 OFFCURVE",
"715 413 CURVE SMOOTH",
"715 653 OFFCURVE",
"525 825 OFFCURVE",
"299 825 CURVE SMOOTH",
"60 825 LINE"
);
},
{
closed = 1;
nodes = (
"277 657 LINE SMOOTH",
"417 657 OFFCURVE",
"512 550 OFFCURVE",
"512 412 CURVE SMOOTH",
"511 274 OFFCURVE",
"416 168 OFFCURVE",
"277 168 CURVE SMOOTH",
"248 168 LINE",
"248 657 LINE"
);
},
{
closed = 1;
nodes = (
"360 899 LINE",
"581 1061 LINE",
"513 1152 LINE",
"360 1040 LINE",
"207 1152 LINE",
"139 1061 LINE"
);
}
);
width = 738;
},
{
layerId = "3FEB53C4-AE65-4B2F-B735-1C16ECFA7AEE";
paths = (
{
closed = 1;
nodes = (
"-27 0 LINE",
"212 0 LINE SMOOTH",
"439 0 OFFCURVE",
"646 172 OFFCURVE",
"672 413 CURVE SMOOTH",
"697 653 OFFCURVE",
"525 825 OFFCURVE",
"299 825 CURVE SMOOTH",
"60 825 LINE"
);
},
{
closed = 1;
nodes = (
"259 657 LINE SMOOTH",
"399 657 OFFCURVE",
"483 550 OFFCURVE",
"469 412 CURVE SMOOTH",
"453 274 OFFCURVE",
"347 168 OFFCURVE",
"208 168 CURVE SMOOTH",
"179 168 LINE",
"230 657 LINE"
);
},
{
closed = 1;
nodes = (
"368 899 LINE",
"606 1061 LINE",
"547 1152 LINE",
"383 1040 LINE",
"241 1152 LINE",
"164 1061 LINE"
);
}
);
width = 738;
}
);
rightKerningGroup = d;
unicode = 010E;
},
{
glyphname = Dcroat;
lastChange = "2017-03-22 17:52:50 +0000";
layers = (
{
layerId = "A4E552E4-62BE-43BB-A58F-34F0EE3B77B8";
paths = (
{
closed = 1;
nodes = (
"16 336 LINE",
"98 336 LINE",
"98 0 LINE",
"337 0 LINE SMOOTH",
"564 0 OFFCURVE",
"753 172 OFFCURVE",
"753 413 CURVE SMOOTH",
"753 653 OFFCURVE",
"563 825 OFFCURVE",
"337 825 CURVE SMOOTH",
"98 825 LINE",
"98 489 LINE",
"16 489 LINE"
);
},
{
closed = 1;
nodes = (
"315 657 LINE SMOOTH",
"455 657 OFFCURVE",
"550 550 OFFCURVE",
"550 412 CURVE SMOOTH",
"549 274 OFFCURVE",
"454 168 OFFCURVE",
"315 168 CURVE SMOOTH",
"286 168 LINE",
"286 336 LINE",
"395 336 LINE",
"395 489 LINE",
"286 489 LINE",
"286 657 LINE"
);
}
);
width = 776;
},
{
layerId = "7B60DD57-6012-4D0F-BD38-A72A4BAC0E9D";
paths = (
{
closed = 1;
nodes = (
"16 336 LINE",
"98 336 LINE",
"98 0 LINE",
"337 0 LINE SMOOTH",
"564 0 OFFCURVE",
"753 172 OFFCURVE",
"753 413 CURVE SMOOTH",
"753 653 OFFCURVE",
"563 825 OFFCURVE",
"337 825 CURVE SMOOTH",
"98 825 LINE",
"98 489 LINE",
"16 489 LINE"
);
},
{
closed = 1;
nodes = (
"315 657 LINE SMOOTH",
"455 657 OFFCURVE",
"550 550 OFFCURVE",
"550 412 CURVE SMOOTH",
"549 274 OFFCURVE",
"454 168 OFFCURVE",
"315 168 CURVE SMOOTH",
"286 168 LINE",
"286 336 LINE",
"395 336 LINE",
"395 489 LINE",
"286 489 LINE",
"286 657 LINE"
);
}
);
width = 776;
},
{
layerId = "3FEB53C4-AE65-4B2F-B735-1C16ECFA7AEE";
paths = (
{
closed = 1;
nodes = (
"-35 336 LINE",
"47 336 LINE",
"11 0 LINE",
"250 0 LINE SMOOTH",
"477 0 OFFCURVE",
"684 172 OFFCURVE",
"710 413 CURVE SMOOTH",
"735 653 OFFCURVE",
"563 825 OFFCURVE",
"337 825 CURVE SMOOTH",
"98 825 LINE",
"63 489 LINE",
"-19 489 LINE"
);
},
{
closed = 1;
nodes = (
"297 657 LINE SMOOTH",
"437 657 OFFCURVE",
"521 550 OFFCURVE",
"507 412 CURVE SMOOTH",
"491 274 OFFCURVE",
"385 168 OFFCURVE",
"246 168 CURVE SMOOTH",
"217 168 LINE",
"235 336 LINE",
"344 336 LINE",
"360 489 LINE",
"251 489 LINE",
"268 657 LINE"
);
}
);
width = 776;
}
);
rightKerningGroup = d;
unicode = 0110;
},
{
glyphname = E;
lastChange = "2017-03-25 13:08:33 +0000";
layers = (
{
layerId = "A4E552E4-62BE-43BB-A58F-34F0EE3B77B8";
paths = (
{
closed = 1;
nodes = (
"60 0 LINE",
"552 0 LINE",
"552 165 LINE",
"248 165 LINE",
"248 331 LINE",
"540 331 LINE",
"540 496 LINE",
"248 496 LINE",
"248 660 LINE",
"552 660 LINE",
"552 825 LINE",
"60 825 LINE"
);
}
);
width = 600;
},
{
layerId = "7B60DD57-6012-4D0F-BD38-A72A4BAC0E9D";
paths = (
{
closed = 1;
nodes = (
"70 0 LINE",
"492 0 LINE",
"492 65 LINE",
"138 65 LINE",
"138 381 LINE",
"480 381 LINE",
"480 446 LINE",
"138 446 LINE",
"138 760 LINE",
"492 760 LINE",
"492 825 LINE",
"70 825 LINE"
);
}
);
width = 552;
},
{
layerId = "3FEB53C4-AE65-4B2F-B735-1C16ECFA7AEE";
paths = (
{
closed = 1;
nodes = (
"33 0 LINE",
"525 0 LINE",
"543 165 LINE",
"239 165 LINE",
"256 331 LINE",
"548 331 LINE",
"565 496 LINE",
"273 496 LINE",
"291 660 LINE",
"595 660 LINE",
"612 825 LINE",
"120 825 LINE"
);
}
);
width = 601;
}
);
rightKerningGroup = E;
unicode = 0045;
},
{
glyphname = Eacute;
lastChange = "2017-03-22 17:52:50 +0000";
layers = (
{
layerId = "A4E552E4-62BE-43BB-A58F-34F0EE3B77B8";
paths = (
{
closed = 1;
nodes = (
"60 0 LINE",
"532 0 LINE",
"532 165 LINE",
"248 165 LINE",
"248 331 LINE",
"520 331 LINE",
"520 496 LINE",
"248 496 LINE",
"248 660 LINE",
"532 660 LINE",
"532 825 LINE",
"60 825 LINE"
);
},
{
closed = 1;
nodes = (
"466 1037 LINE",
"375 1152 LINE",
"172 976 LINE",
"228 899 LINE"
);
}
);
width = 580;
},
{
layerId = "7B60DD57-6012-4D0F-BD38-A72A4BAC0E9D";
paths = (
{
closed = 1;
nodes = (
"60 0 LINE",
"532 0 LINE",
"532 165 LINE",
"248 165 LINE",
"248 331 LINE",
"520 331 LINE",
"520 496 LINE",
"248 496 LINE",
"248 660 LINE",
"532 660 LINE",
"532 825 LINE",
"60 825 LINE"
);
},
{
closed = 1;
nodes = (
"466 1037 LINE",
"375 1152 LINE",
"172 976 LINE",
"228 899 LINE"
);
}
);
width = 580;
},
{
layerId = "3FEB53C4-AE65-4B2F-B735-1C16ECFA7AEE";
paths = (
{
closed = 1;
nodes = (
"-27 0 LINE",
"445 0 LINE",
"463 165 LINE",
"179 165 LINE",
"196 331 LINE",
"468 331 LINE",
"485 496 LINE",
"213 496 LINE",
"231 660 LINE",
"515 660 LINE",
"532 825 LINE",
"60 825 LINE"
);
},
{
closed = 1;
nodes = (
"488 1037 LINE",
"409 1152 LINE",
"188 976 LINE",
"236 899 LINE"
);
}
);
width = 580;
}
);
rightKerningGroup = E;
unicode = 00C9;
},
{
glyphname = Ecaron;
lastChange = "2017-03-22 17:52:50 +0000";
layers = (
{
layerId = "A4E552E4-62BE-43BB-A58F-34F0EE3B77B8";
paths = (
{
closed = 1;
nodes = (
"60 0 LINE",
"532 0 LINE",
"532 165 LINE",
"248 165 LINE",
"248 331 LINE",
"520 331 LINE",
"520 496 LINE",
"248 496 LINE",
"248 660 LINE",
"532 660 LINE",
"532 825 LINE",
"60 825 LINE"
);
},
{
closed = 1;
nodes = (
"290 899 LINE",
"511 1061 LINE",
"443 1152 LINE",
"290 1040 LINE",
"137 1152 LINE",
"69 1061 LINE"
);
}
);
width = 580;
},
{
layerId = "7B60DD57-6012-4D0F-BD38-A72A4BAC0E9D";
paths = (
{
closed = 1;
nodes = (
"60 0 LINE",
"532 0 LINE",
"532 165 LINE",
"248 165 LINE",
"248 331 LINE",
"520 331 LINE",
"520 496 LINE",
"248 496 LINE",
"248 660 LINE",
"532 660 LINE",
"532 825 LINE",
"60 825 LINE"
);
},
{
closed = 1;
nodes = (
"290 899 LINE",
"511 1061 LINE",
"443 1152 LINE",
"290 1040 LINE",
"137 1152 LINE",
"69 1061 LINE"
);
}
);
width = 580;
},
{
layerId = "3FEB53C4-AE65-4B2F-B735-1C16ECFA7AEE";
paths = (
{
closed = 1;
nodes = (
"-27 0 LINE",
"445 0 LINE",
"463 165 LINE",
"179 165 LINE",
"196 331 LINE",
"468 331 LINE",
"485 496 LINE",
"213 496 LINE",
"231 660 LINE",
"515 660 LINE",
"532 825 LINE",
"60 825 LINE"
);
},
{
closed = 1;
nodes = (
"298 899 LINE",
"536 1061 LINE",
"477 1152 LINE",
"313 1040 LINE",
"171 1152 LINE",
"94 1061 LINE"
);
}
);
width = 580;
}
);
rightKerningGroup = E;
unicode = 011A;
},
{
glyphname = Ecircumflex;
lastChange = "2017-03-22 17:52:50 +0000";
layers = (
{
layerId = "A4E552E4-62BE-43BB-A58F-34F0EE3B77B8";
paths = (
{
closed = 1;
nodes = (
"60 0 LINE",
"532 0 LINE",
"532 165 LINE",
"248 165 LINE",
"248 331 LINE",
"520 331 LINE",
"520 496 LINE",
"248 496 LINE",
"248 660 LINE",
"532 660 LINE",
"532 825 LINE",
"60 825 LINE"
);
},
{
closed = 1;
nodes = (
"290 1011 LINE",
"443 899 LINE",
"511 990 LINE",
"290 1152 LINE",
"69 990 LINE",
"137 899 LINE"
);
}
);
width = 580;
},
{
layerId = "7B60DD57-6012-4D0F-BD38-A72A4BAC0E9D";
paths = (
{
closed = 1;
nodes = (
"60 0 LINE",
"532 0 LINE",
"532 165 LINE",
"248 165 LINE",
"248 331 LINE",
"520 331 LINE",
"520 496 LINE",
"248 496 LINE",
"248 660 LINE",
"532 660 LINE",
"532 825 LINE",
"60 825 LINE"
);
},
{
closed = 1;
nodes = (
"290 1011 LINE",
"443 899 LINE",
"511 990 LINE",
"290 1152 LINE",
"69 990 LINE",
"137 899 LINE"
);
}
);
width = 580;
},
{
layerId = "3FEB53C4-AE65-4B2F-B735-1C16ECFA7AEE";
paths = (
{
closed = 1;
nodes = (
"-27 0 LINE",
"445 0 LINE",
"463 165 LINE",
"179 165 LINE",
"196 331 LINE",
"468 331 LINE",
"485 496 LINE",
"213 496 LINE",
"231 660 LINE",
"515 660 LINE",
"532 825 LINE",
"60 825 LINE"
);
},
{
closed = 1;
nodes = (
"310 1011 LINE",
"451 899 LINE",
"528 990 LINE",
"324 1152 LINE",
"86 990 LINE",
"145 899 LINE"
);
}
);
width = 580;
}
);
rightKerningGroup = E;
unicode = 00CA;
},
{
glyphname = Edieresis;
lastChange = "2017-03-22 17:52:50 +0000";
layers = (
{
layerId = "A4E552E4-62BE-43BB-A58F-34F0EE3B77B8";
paths = (
{
closed = 1;
nodes = (
"130 1103 OFFCURVE",
"89 1062 OFFCURVE",
"89 1011 CURVE SMOOTH",
"89 960 OFFCURVE",
"130 919 OFFCURVE",
"181 919 CURVE SMOOTH",
"232 919 OFFCURVE",
"273 960 OFFCURVE",
"273 1011 CURVE SMOOTH",
"273 1062 OFFCURVE",
"232 1103 OFFCURVE",
"181 1103 CURVE SMOOTH"
);
},
{
closed = 1;
nodes = (
"367 1103 OFFCURVE",
"326 1062 OFFCURVE",
"326 1011 CURVE SMOOTH",
"326 960 OFFCURVE",
"367 919 OFFCURVE",
"418 919 CURVE SMOOTH",
"469 919 OFFCURVE",
"510 960 OFFCURVE",
"510 1011 CURVE SMOOTH",
"510 1062 OFFCURVE",
"469 1103 OFFCURVE",
"418 1103 CURVE SMOOTH"
);
},
{
closed = 1;
nodes = (
"60 0 LINE",
"532 0 LINE",
"532 165 LINE",
"248 165 LINE",
"248 331 LINE",
"520 331 LINE",
"520 496 LINE",
"248 496 LINE",
"248 660 LINE",
"532 660 LINE",
"532 825 LINE",
"60 825 LINE"
);
}
);
width = 580;
},
{
layerId = "7B60DD57-6012-4D0F-BD38-A72A4BAC0E9D";
paths = (
{
closed = 1;
nodes = (
"130 1103 OFFCURVE",
"89 1062 OFFCURVE",
"89 1011 CURVE SMOOTH",
"89 960 OFFCURVE",
"130 919 OFFCURVE",
"181 919 CURVE SMOOTH",
"232 919 OFFCURVE",
"273 960 OFFCURVE",
"273 1011 CURVE SMOOTH",
"273 1062 OFFCURVE",
"232 1103 OFFCURVE",
"181 1103 CURVE SMOOTH"
);
},
{
closed = 1;
nodes = (
"367 1103 OFFCURVE",
"326 1062 OFFCURVE",
"326 1011 CURVE SMOOTH",
"326 960 OFFCURVE",
"367 919 OFFCURVE",
"418 919 CURVE SMOOTH",
"469 919 OFFCURVE",
"510 960 OFFCURVE",
"510 1011 CURVE SMOOTH",
"510 1062 OFFCURVE",
"469 1103 OFFCURVE",
"418 1103 CURVE SMOOTH"
);
},
{
closed = 1;
nodes = (
"60 0 LINE",
"532 0 LINE",
"532 165 LINE",
"248 165 LINE",
"248 331 LINE",
"520 331 LINE",
"520 496 LINE",
"248 496 LINE",
"248 660 LINE",
"532 660 LINE",
"532 825 LINE",
"60 825 LINE"
);
}
);
width = 580;
},
{
layerId = "3FEB53C4-AE65-4B2F-B735-1C16ECFA7AEE";
paths = (
{
closed = 1;
nodes = (
"159 1103 OFFCURVE",
"114 1062 OFFCURVE",
"109 1011 CURVE SMOOTH",
"103 960 OFFCURVE",
"140 919 OFFCURVE",
"191 919 CURVE SMOOTH",
"242 919 OFFCURVE",
"287 960 OFFCURVE",
"293 1011 CURVE SMOOTH",
"298 1062 OFFCURVE",
"261 1103 OFFCURVE",
"210 1103 CURVE SMOOTH"
);
},
{
closed = 1;
nodes = (
"396 1103 OFFCURVE",
"351 1062 OFFCURVE",
"346 1011 CURVE SMOOTH",
"340 960 OFFCURVE",
"377 919 OFFCURVE",
"428 919 CURVE SMOOTH",
"479 919 OFFCURVE",
"524 960 OFFCURVE",
"530 1011 CURVE SMOOTH",
"535 1062 OFFCURVE",
"498 1103 OFFCURVE",
"447 1103 CURVE SMOOTH"
);
},
{
closed = 1;
nodes = (
"-27 0 LINE",
"445 0 LINE",
"463 165 LINE",
"179 165 LINE",
"196 331 LINE",
"468 331 LINE",
"485 496 LINE",
"213 496 LINE",
"231 660 LINE",
"515 660 LINE",
"532 825 LINE",
"60 825 LINE"
);
}
);
width = 580;
}
);
rightKerningGroup = E;
unicode = 00CB;
},
{
glyphname = Edotaccent;
lastChange = "2017-03-22 17:52:50 +0000";
layers = (
{
layerId = "A4E552E4-62BE-43BB-A58F-34F0EE3B77B8";
paths = (
{
closed = 1;
nodes = (
"60 0 LINE",
"532 0 LINE",
"532 165 LINE",
"248 165 LINE",
"248 331 LINE",
"520 331 LINE",
"520 496 LINE",
"248 496 LINE",
"248 660 LINE",
"532 660 LINE",
"532 825 LINE",
"60 825 LINE"
);
},
{
closed = 1;
nodes = (
"239 1103 OFFCURVE",
"198 1062 OFFCURVE",
"198 1011 CURVE SMOOTH",
"198 960 OFFCURVE",
"239 919 OFFCURVE",
"290 919 CURVE SMOOTH",
"341 919 OFFCURVE",
"382 960 OFFCURVE",
"382 1011 CURVE SMOOTH",
"382 1062 OFFCURVE",
"341 1103 OFFCURVE",
"290 1103 CURVE SMOOTH"
);
}
);
width = 580;
},
{
layerId = "7B60DD57-6012-4D0F-BD38-A72A4BAC0E9D";
paths = (
{
closed = 1;
nodes = (
"60 0 LINE",
"532 0 LINE",
"532 165 LINE",
"248 165 LINE",
"248 331 LINE",
"520 331 LINE",
"520 496 LINE",
"248 496 LINE",
"248 660 LINE",
"532 660 LINE",
"532 825 LINE",
"60 825 LINE"
);
},
{
closed = 1;
nodes = (
"239 1103 OFFCURVE",
"198 1062 OFFCURVE",
"198 1011 CURVE SMOOTH",
"198 960 OFFCURVE",
"239 919 OFFCURVE",
"290 919 CURVE SMOOTH",
"341 919 OFFCURVE",
"382 960 OFFCURVE",
"382 1011 CURVE SMOOTH",
"382 1062 OFFCURVE",
"341 1103 OFFCURVE",
"290 1103 CURVE SMOOTH"
);
}
);
width = 580;
},
{
layerId = "3FEB53C4-AE65-4B2F-B735-1C16ECFA7AEE";
paths = (
{
closed = 1;
nodes = (
"-27 0 LINE",
"445 0 LINE",
"463 165 LINE",
"179 165 LINE",
"196 331 LINE",
"468 331 LINE",
"485 496 LINE",
"213 496 LINE",
"231 660 LINE",
"515 660 LINE",
"532 825 LINE",
"60 825 LINE"
);
},
{
closed = 1;
nodes = (
"268 1103 OFFCURVE",
"223 1062 OFFCURVE",
"218 1011 CURVE SMOOTH",
"212 960 OFFCURVE",
"249 919 OFFCURVE",
"300 919 CURVE SMOOTH",
"351 919 OFFCURVE",
"396 960 OFFCURVE",
"402 1011 CURVE SMOOTH",
"407 1062 OFFCURVE",
"370 1103 OFFCURVE",
"319 1103 CURVE SMOOTH"
);
}
);
width = 580;
}
);
rightKerningGroup = E;
unicode = 0116;
},
{
glyphname = Egrave;
lastChange = "2017-03-22 17:52:50 +0000";
layers = (
{
layerId = "A4E552E4-62BE-43BB-A58F-34F0EE3B77B8";
paths = (
{
closed = 1;
nodes = (
"60 0 LINE",
"532 0 LINE",
"532 165 LINE",
"248 165 LINE",
"248 331 LINE",
"520 331 LINE",
"520 496 LINE",
"248 496 LINE",
"248 660 LINE",
"532 660 LINE",
"532 825 LINE",
"60 825 LINE"
);
},
{
closed = 1;
nodes = (
"292 899 LINE",
"348 976 LINE",
"145 1152 LINE",
"54 1037 LINE"
);
}
);
width = 580;
},
{
layerId = "7B60DD57-6012-4D0F-BD38-A72A4BAC0E9D";
paths = (
{
closed = 1;
nodes = (
"60 0 LINE",
"532 0 LINE",
"532 165 LINE",
"248 165 LINE",
"248 331 LINE",
"520 331 LINE",
"520 496 LINE",
"248 496 LINE",
"248 660 LINE",
"532 660 LINE",
"532 825 LINE",
"60 825 LINE"
);
},
{
closed = 1;
nodes = (
"292 899 LINE",
"348 976 LINE",
"145 1152 LINE",
"54 1037 LINE"
);
}
);
width = 580;
},
{
layerId = "3FEB53C4-AE65-4B2F-B735-1C16ECFA7AEE";
paths = (
{
closed = 1;
nodes = (
"-27 0 LINE",
"445 0 LINE",
"463 165 LINE",
"179 165 LINE",
"196 331 LINE",
"468 331 LINE",
"485 496 LINE",
"213 496 LINE",
"231 660 LINE",
"515 660 LINE",
"532 825 LINE",
"60 825 LINE"
);
},
{
closed = 1;
nodes = (
"300 899 LINE",
"364 976 LINE",
"179 1152 LINE",
"76 1037 LINE"
);
}
);
width = 580;
}
);
rightKerningGroup = E;
unicode = 00C8;
},
{
glyphname = Emacron;
lastChange = "2017-03-22 17:52:50 +0000";
layers = (
{
layerId = "A4E552E4-62BE-43BB-A58F-34F0EE3B77B8";
paths = (
{
closed = 1;
nodes = (
"60 0 LINE",
"532 0 LINE",
"532 165 LINE",
"248 165 LINE",
"248 331 LINE",
"520 331 LINE",
"520 496 LINE",
"248 496 LINE",
"248 660 LINE",
"532 660 LINE",
"532 825 LINE",
"60 825 LINE"
);
},
{
closed = 1;
nodes = (
"494 946 LINE",
"494 1066 LINE",
"86 1066 LINE",
"86 946 LINE"
);
}
);
width = 580;
},
{
layerId = "7B60DD57-6012-4D0F-BD38-A72A4BAC0E9D";
paths = (
{
closed = 1;
nodes = (
"60 0 LINE",
"532 0 LINE",
"532 165 LINE",
"248 165 LINE",
"248 331 LINE",
"520 331 LINE",
"520 496 LINE",
"248 496 LINE",
"248 660 LINE",
"532 660 LINE",
"532 825 LINE",
"60 825 LINE"
);
},
{
closed = 1;
nodes = (
"494 946 LINE",
"494 1066 LINE",
"86 1066 LINE",
"86 946 LINE"
);
}
);
width = 580;
},
{
layerId = "3FEB53C4-AE65-4B2F-B735-1C16ECFA7AEE";
paths = (
{
closed = 1;
nodes = (
"-27 0 LINE",
"445 0 LINE",
"463 165 LINE",
"179 165 LINE",
"196 331 LINE",
"468 331 LINE",
"485 496 LINE",
"213 496 LINE",
"231 660 LINE",
"515 660 LINE",
"532 825 LINE",
"60 825 LINE"
);
},
{
closed = 1;
nodes = (
"507 946 LINE",
"519 1066 LINE",
"111 1066 LINE",
"99 946 LINE"
);
}
);
width = 580;
}
);
rightKerningGroup = E;
unicode = 0112;
},
{
glyphname = Eogonek;
lastChange = "2017-03-22 17:52:50 +0000";
layers = (
{
layerId = "A4E552E4-62BE-43BB-A58F-34F0EE3B77B8";
paths = (
{
closed = 1;
nodes = (
"60 0 LINE",
"353 0 LINE",
"323 -36 OFFCURVE",
"273 -103 OFFCURVE",
"273 -158 CURVE SMOOTH",
"273 -245 OFFCURVE",
"347 -275 OFFCURVE",
"399 -275 CURVE SMOOTH",
"491 -275 OFFCURVE",
"536 -203 OFFCURVE",
"536 -203 CURVE",
"464 -149 LINE",
"464 -149 OFFCURVE",
"444 -179 OFFCURVE",
"413 -179 CURVE SMOOTH",
"396 -179 OFFCURVE",
"376 -165 OFFCURVE",
"376 -140 CURVE SMOOTH",
"376 -70 OFFCURVE",
"435 0 OFFCURVE",
"435 0 CURVE",
"532 0 LINE",
"532 165 LINE",
"248 165 LINE",
"248 331 LINE",
"520 331 LINE",
"520 496 LINE",
"248 496 LINE",
"248 660 LINE",
"532 660 LINE",
"532 825 LINE",
"60 825 LINE"
);
}
);
width = 580;
},
{
layerId = "7B60DD57-6012-4D0F-BD38-A72A4BAC0E9D";
paths = (
{
closed = 1;
nodes = (
"60 0 LINE",
"353 0 LINE",
"323 -36 OFFCURVE",
"273 -103 OFFCURVE",
"273 -158 CURVE SMOOTH",
"273 -245 OFFCURVE",
"347 -275 OFFCURVE",
"399 -275 CURVE SMOOTH",
"491 -275 OFFCURVE",
"536 -203 OFFCURVE",
"536 -203 CURVE",
"464 -149 LINE",
"464 -149 OFFCURVE",
"444 -179 OFFCURVE",
"413 -179 CURVE SMOOTH",
"396 -179 OFFCURVE",
"376 -165 OFFCURVE",
"376 -140 CURVE SMOOTH",
"376 -70 OFFCURVE",
"435 0 OFFCURVE",
"435 0 CURVE",
"532 0 LINE",
"532 165 LINE",
"248 165 LINE",
"248 331 LINE",
"520 331 LINE",
"520 496 LINE",
"248 496 LINE",
"248 660 LINE",
"532 660 LINE",
"532 825 LINE",
"60 825 LINE"
);
}
);
width = 580;
},
{
layerId = "3FEB53C4-AE65-4B2F-B735-1C16ECFA7AEE";
paths = (
{
closed = 1;
nodes = (
"-27 0 LINE",
"266 0 LINE",
"233 -36 OFFCURVE",
"175 -103 OFFCURVE",
"170 -158 CURVE SMOOTH",
"161 -245 OFFCURVE",
"231 -275 OFFCURVE",
"283 -275 CURVE SMOOTH",
"375 -275 OFFCURVE",
"428 -203 OFFCURVE",
"428 -203 CURVE",
"362 -149 LINE",
"362 -149 OFFCURVE",
"338 -179 OFFCURVE",
"307 -179 CURVE SMOOTH",
"290 -179 OFFCURVE",
"272 -165 OFFCURVE",
"275 -140 CURVE SMOOTH",
"282 -70 OFFCURVE",
"348 0 OFFCURVE",
"348 0 CURVE",
"445 0 LINE",
"463 165 LINE",
"179 165 LINE",
"196 331 LINE",
"468 331 LINE",
"485 496 LINE",
"213 496 LINE",
"231 660 LINE",
"515 660 LINE",
"532 825 LINE",
"60 825 LINE"
);
}
);
width = 580;
}
);
rightKerningGroup = E;
unicode = 0118;
},
{
glyphname = F;
lastChange = "2017-03-22 17:52:50 +0000";
layers = (
{
layerId = "A4E552E4-62BE-43BB-A58F-34F0EE3B77B8";
paths = (
{
closed = 1;
nodes = (
"60 0 LINE",
"248 0 LINE",
"248 331 LINE",
"515 331 LINE",
"515 496 LINE",
"248 496 LINE",
"248 660 LINE",
"537 660 LINE",
"537 825 LINE",
"60 825 LINE"
);
}
);
width = 567;
},
{
layerId = "7B60DD57-6012-4D0F-BD38-A72A4BAC0E9D";
paths = (
{
closed = 1;
nodes = (
"60 0 LINE",
"128 0 LINE",
"128 381 LINE",
"445 381 LINE",
"445 446 LINE",
"128 446 LINE",
"128 760 LINE",
"467 760 LINE",
"467 825 LINE",
"60 825 LINE"
);
}
);
width = 497;
},
{
layerId = "3FEB53C4-AE65-4B2F-B735-1C16ECFA7AEE";
paths = (
{
closed = 1;
nodes = (
"-27 0 LINE",
"161 0 LINE",
"196 331 LINE",
"463 331 LINE",
"480 496 LINE",
"213 496 LINE",
"231 660 LINE",
"520 660 LINE",
"537 825 LINE",
"60 825 LINE"
);
}
);
width = 567;
}
);
rightKerningGroup = d;
unicode = 0046;
},
{
glyphname = G;
lastChange = "2017-03-22 17:52:50 +0000";
layers = (
{
layerId = "A4E552E4-62BE-43BB-A58F-34F0EE3B77B8";
paths = (
{
closed = 1;
nodes = (
"425 317 LINE",
"615 317 LINE",
"615 216 OFFCURVE",
"539 161 OFFCURVE",
"436 161 CURVE SMOOTH",
"320 161 OFFCURVE",
"226 272 OFFCURVE",
"226 412 CURVE SMOOTH",
"226 555 OFFCURVE",
"320 667 OFFCURVE",
"436 667 CURVE SMOOTH",
"509 667 OFFCURVE",
"572 641 OFFCURVE",
"620 564 CURVE",
"743 699 LINE",
"671 786 OFFCURVE",
"570 840 OFFCURVE",
"425 840 CURVE SMOOTH",
"193 840 OFFCURVE",
"23 649 OFFCURVE",
"23 412 CURVE SMOOTH",
"23 176 OFFCURVE",
"203 -15 OFFCURVE",
"425 -15 CURVE SMOOTH",
"774 -15 OFFCURVE",
"802 290 OFFCURVE",
"810 324 CURVE",
"810 462 LINE",
"425 462 LINE"
);
}
);
width = 829;
},
{
layerId = "7B60DD57-6012-4D0F-BD38-A72A4BAC0E9D";
paths = (
{
closed = 1;
nodes = (
"395 377 LINE",
"675 377 LINE",
"675 174 OFFCURVE",
"568 53 OFFCURVE",
"395 53 CURVE SMOOTH",
"216 53 OFFCURVE",
"96 202 OFFCURVE",
"96 412 CURVE SMOOTH",
"96 625 OFFCURVE",
"231 774 OFFCURVE",
"397 774 CURVE SMOOTH",
"536 774 OFFCURVE",
"598 710 OFFCURVE",
"626 683 CURVE",
"679 732 LINE",
"641 768 OFFCURVE",
"562 840 OFFCURVE",
"397 840 CURVE SMOOTH",
"175 840 OFFCURVE",
"23 649 OFFCURVE",
"23 412 CURVE SMOOTH",
"23 176 OFFCURVE",
"163 -15 OFFCURVE",
"395 -15 CURVE SMOOTH",
"744 -15 OFFCURVE",
"750 350 OFFCURVE",
"750 384 CURVE",
"750 442 LINE",
"395 442 LINE"
);
}
);
width = 769;
},
{
layerId = "3FEB53C4-AE65-4B2F-B735-1C16ECFA7AEE";
paths = (
{
closed = 1;
nodes = (
"372 317 LINE",
"562 317 LINE",
"551 216 OFFCURVE",
"469 161 OFFCURVE",
"366 161 CURVE SMOOTH",
"250 161 OFFCURVE",
"168 272 OFFCURVE",
"183 412 CURVE SMOOTH",
"198 555 OFFCURVE",
"303 667 OFFCURVE",
"419 667 CURVE SMOOTH",
"492 667 OFFCURVE",
"553 641 OFFCURVE",
"593 564 CURVE",
"730 699 LINE",
"667 786 OFFCURVE",
"572 840 OFFCURVE",
"427 840 CURVE SMOOTH",
"195 840 OFFCURVE",
"5 649 OFFCURVE",
"-20 412 CURVE SMOOTH",
"-45 176 OFFCURVE",
"115 -15 OFFCURVE",
"337 -15 CURVE SMOOTH",
"686 -15 OFFCURVE",
"746 290 OFFCURVE",
"757 324 CURVE",
"772 462 LINE",
"387 462 LINE"
);
}
);
width = 829;
}
);
leftKerningGroup = G;
rightKerningGroup = d;
unicode = 0047;
},
{
glyphname = Gcommaaccent;
lastChange = "2017-03-22 17:52:50 +0000";
layers = (
{
layerId = "A4E552E4-62BE-43BB-A58F-34F0EE3B77B8";
paths = (
{
closed = 1;
nodes = (
"425 317 LINE",
"615 317 LINE",
"615 216 OFFCURVE",
"526 158 OFFCURVE",
"436 158 CURVE SMOOTH",
"320 158 OFFCURVE",
"226 272 OFFCURVE",
"226 412 CURVE SMOOTH",
"226 555 OFFCURVE",
"320 670 OFFCURVE",
"436 670 CURVE SMOOTH",
"509 670 OFFCURVE",
"572 641 OFFCURVE",
"620 564 CURVE",
"743 699 LINE",
"671 786 OFFCURVE",
"570 840 OFFCURVE",
"425 840 CURVE SMOOTH",
"193 840 OFFCURVE",
"23 649 OFFCURVE",
"23 412 CURVE SMOOTH",
"23 176 OFFCURVE",
"203 -15 OFFCURVE",
"425 -15 CURVE SMOOTH",
"587 -15 OFFCURVE",
"761 74 OFFCURVE",
"806 283 CURVE",
"806 462 LINE",
"425 462 LINE"
);
},
{
closed = 1;
nodes = (
"463 -40 OFFCURVE",
"503 -80 OFFCURVE",
"503 -130 CURVE SMOOTH",
"503 -223 OFFCURVE",
"436 -299 OFFCURVE",
"373 -351 CURVE",
"333 -320 LINE",
"333 -320 OFFCURVE",
"380 -275 OFFCURVE",
"392 -210 CURVE",
"354 -201 OFFCURVE",
"325 -170 OFFCURVE",
"325 -130 CURVE SMOOTH",
"325 -80 OFFCURVE",
"365 -40 OFFCURVE",
"413 -40 CURVE SMOOTH"
);
}
);
width = 829;
},
{
layerId = "7B60DD57-6012-4D0F-BD38-A72A4BAC0E9D";
paths = (
{
closed = 1;
nodes = (
"425 317 LINE",
"615 317 LINE",
"615 216 OFFCURVE",
"526 158 OFFCURVE",
"436 158 CURVE SMOOTH",
"320 158 OFFCURVE",
"226 272 OFFCURVE",
"226 412 CURVE SMOOTH",
"226 555 OFFCURVE",
"320 670 OFFCURVE",
"436 670 CURVE SMOOTH",
"509 670 OFFCURVE",
"572 641 OFFCURVE",
"620 564 CURVE",
"743 699 LINE",
"671 786 OFFCURVE",
"570 840 OFFCURVE",
"425 840 CURVE SMOOTH",
"193 840 OFFCURVE",
"23 649 OFFCURVE",
"23 412 CURVE SMOOTH",
"23 176 OFFCURVE",
"203 -15 OFFCURVE",
"425 -15 CURVE SMOOTH",
"587 -15 OFFCURVE",
"761 74 OFFCURVE",
"806 283 CURVE",
"806 462 LINE",
"425 462 LINE"
);
},
{
closed = 1;
nodes = (
"463 -40 OFFCURVE",
"503 -80 OFFCURVE",
"503 -130 CURVE SMOOTH",
"503 -223 OFFCURVE",
"436 -299 OFFCURVE",
"373 -351 CURVE",
"333 -320 LINE",
"333 -320 OFFCURVE",
"380 -275 OFFCURVE",
"392 -210 CURVE",
"354 -201 OFFCURVE",
"325 -170 OFFCURVE",
"325 -130 CURVE SMOOTH",
"325 -80 OFFCURVE",
"365 -40 OFFCURVE",
"413 -40 CURVE SMOOTH"
);
}
);
width = 829;
},
{
layerId = "3FEB53C4-AE65-4B2F-B735-1C16ECFA7AEE";
paths = (
{
closed = 1;
nodes = (
"372 317 LINE",
"562 317 LINE",
"551 216 OFFCURVE",
"456 158 OFFCURVE",
"366 158 CURVE SMOOTH",
"250 158 OFFCURVE",
"168 272 OFFCURVE",
"183 412 CURVE SMOOTH",
"198 555 OFFCURVE",
"304 670 OFFCURVE",
"420 670 CURVE SMOOTH",
"493 670 OFFCURVE",
"553 641 OFFCURVE",
"593 564 CURVE",
"730 699 LINE",
"667 786 OFFCURVE",
"572 840 OFFCURVE",
"427 840 CURVE SMOOTH",
"195 840 OFFCURVE",
"5 649 OFFCURVE",
"-20 412 CURVE SMOOTH",
"-45 176 OFFCURVE",
"115 -15 OFFCURVE",
"337 -15 CURVE SMOOTH",
"499 -15 OFFCURVE",
"682 74 OFFCURVE",
"749 283 CURVE",
"768 462 LINE",
"387 462 LINE"
);
},
{
closed = 1;
nodes = (
"372 -40 OFFCURVE",
"408 -80 OFFCURVE",
"403 -130 CURVE SMOOTH",
"393 -223 OFFCURVE",
"318 -299 OFFCURVE",
"249 -351 CURVE",
"213 -320 LINE",
"213 -320 OFFCURVE",
"264 -275 OFFCURVE",
"283 -210 CURVE",
"246 -201 OFFCURVE",
"220 -170 OFFCURVE",
"225 -130 CURVE SMOOTH",
"230 -80 OFFCURVE",
"274 -40 OFFCURVE",
"322 -40 CURVE SMOOTH"
);
}
);
width = 829;
}
);
leftKerningGroup = G;
rightKerningGroup = d;
unicode = 0122;
},
{
glyphname = H;
lastChange = "2017-03-22 17:52:50 +0000";
layers = (
{
layerId = "A4E552E4-62BE-43BB-A58F-34F0EE3B77B8";
paths = (
{
closed = 1;
nodes = (
"514 0 LINE",
"702 0 LINE",
"702 825 LINE",
"514 825 LINE",
"514 496 LINE",
"248 496 LINE",
"248 825 LINE",
"60 825 LINE",
"60 0 LINE",
"248 0 LINE",
"248 331 LINE",
"514 331 LINE"
);
}
);
width = 762;
},
{
layerId = "7B60DD57-6012-4D0F-BD38-A72A4BAC0E9D";
paths = (
{
closed = 1;
nodes = (
"524 0 LINE",
"592 0 LINE",
"592 825 LINE",
"524 825 LINE",
"524 446 LINE",
"128 446 LINE",
"128 825 LINE",
"60 825 LINE",
"60 0 LINE",
"128 0 LINE",
"128 381 LINE",
"524 381 LINE"
);
}
);
width = 652;
},
{
layerId = "3FEB53C4-AE65-4B2F-B735-1C16ECFA7AEE";
paths = (
{
closed = 1;
nodes = (
"427 0 LINE",
"615 0 LINE",
"702 825 LINE",
"514 825 LINE",
"479 496 LINE",
"213 496 LINE",
"248 825 LINE",
"60 825 LINE",
"-27 0 LINE",
"161 0 LINE",
"196 331 LINE",
"462 331 LINE"
);
}
);
width = 762;
}
);
rightKerningGroup = d;
unicode = 0048;
},
{
glyphname = I;
lastChange = "2017-03-22 17:52:50 +0000";
layers = (
{
layerId = "A4E552E4-62BE-43BB-A58F-34F0EE3B77B8";
paths = (
{
closed = 1;
nodes = (
"60 0 LINE",
"248 0 LINE",
"248 825 LINE",
"60 825 LINE"
);
}
);
width = 308;
},
{
layerId = "7B60DD57-6012-4D0F-BD38-A72A4BAC0E9D";
paths = (
{
closed = 1;
nodes = (
"70 0 LINE",
"138 0 LINE",
"138 825 LINE",
"70 825 LINE"
);
}
);
width = 208;
},
{
layerId = "3FEB53C4-AE65-4B2F-B735-1C16ECFA7AEE";
paths = (
{
closed = 1;
nodes = (
"-27 0 LINE",
"161 0 LINE",
"248 825 LINE",
"60 825 LINE"
);
}
);
width = 308;
}
);
leftKerningGroup = i;
rightKerningGroup = d;
unicode = 0049;
},
{
glyphname = Iacute;
lastChange = "2017-03-22 17:52:50 +0000";
layers = (
{
layerId = "A4E552E4-62BE-43BB-A58F-34F0EE3B77B8";
paths = (
{
closed = 1;
nodes = (
"60 0 LINE",
"248 0 LINE",
"248 825 LINE",
"60 825 LINE"
);
},
{
closed = 1;
nodes = (
"350 1037 LINE",
"259 1152 LINE",
"56 976 LINE",
"112 899 LINE"
);
}
);
width = 308;
},
{
layerId = "7B60DD57-6012-4D0F-BD38-A72A4BAC0E9D";
paths = (
{
closed = 1;
nodes = (
"60 0 LINE",
"248 0 LINE",
"248 825 LINE",
"60 825 LINE"
);
},
{
closed = 1;
nodes = (
"350 1037 LINE",
"259 1152 LINE",
"56 976 LINE",
"112 899 LINE"
);
}
);
width = 308;
},
{
layerId = "3FEB53C4-AE65-4B2F-B735-1C16ECFA7AEE";
paths = (
{
closed = 1;
nodes = (
"-27 0 LINE",
"161 0 LINE",
"248 825 LINE",
"60 825 LINE"
);
},
{
closed = 1;
nodes = (
"372 1037 LINE",
"293 1152 LINE",
"72 976 LINE",
"120 899 LINE"
);
}
);
width = 308;
}
);
leftKerningGroup = i;
rightKerningGroup = d;
unicode = 00CD;
},
{
glyphname = Icircumflex;
lastChange = "2017-03-22 17:52:50 +0000";
layers = (
{
layerId = "A4E552E4-62BE-43BB-A58F-34F0EE3B77B8";
paths = (
{
closed = 1;
nodes = (
"60 0 LINE",
"248 0 LINE",
"248 825 LINE",
"60 825 LINE"
);
},
{
closed = 1;
nodes = (
"154 1011 LINE",
"307 899 LINE",
"375 990 LINE",
"154 1152 LINE",
"-67 990 LINE",
"1 899 LINE"
);
}
);
width = 308;
},
{
layerId = "7B60DD57-6012-4D0F-BD38-A72A4BAC0E9D";
paths = (
{
closed = 1;
nodes = (
"60 0 LINE",
"248 0 LINE",
"248 825 LINE",
"60 825 LINE"
);
},
{
closed = 1;
nodes = (
"154 1011 LINE",
"307 899 LINE",
"375 990 LINE",
"154 1152 LINE",
"-67 990 LINE",
"1 899 LINE"
);
}
);
width = 308;
},
{
layerId = "3FEB53C4-AE65-4B2F-B735-1C16ECFA7AEE";
paths = (
{
closed = 1;
nodes = (
"-27 0 LINE",
"161 0 LINE",
"248 825 LINE",
"60 825 LINE"
);
},
{
closed = 1;
nodes = (
"174 1011 LINE",
"315 899 LINE",
"392 990 LINE",
"188 1152 LINE",
"-50 990 LINE",
"9 899 LINE"
);
}
);
width = 308;
}
);
leftKerningGroup = Icircumflex;
rightKerningGroup = Icircumflex;
unicode = 00CE;
},
{
glyphname = Idieresis;
lastChange = "2017-03-22 17:52:50 +0000";
layers = (
{
layerId = "A4E552E4-62BE-43BB-A58F-34F0EE3B77B8";
paths = (
{
closed = 1;
nodes = (
"60 0 LINE",
"248 0 LINE",
"248 825 LINE",
"60 825 LINE"
);
},
{
closed = 1;
nodes = (
"-15 1103 OFFCURVE",
"-56 1062 OFFCURVE",
"-56 1011 CURVE SMOOTH",
"-56 960 OFFCURVE",
"-15 919 OFFCURVE",
"36 919 CURVE SMOOTH",
"87 919 OFFCURVE",
"128 960 OFFCURVE",
"128 1011 CURVE SMOOTH",
"128 1062 OFFCURVE",
"87 1103 OFFCURVE",
"36 1103 CURVE SMOOTH"
);
},
{
closed = 1;
nodes = (
"222 1103 OFFCURVE",
"181 1062 OFFCURVE",
"181 1011 CURVE SMOOTH",
"181 960 OFFCURVE",
"222 919 OFFCURVE",
"273 919 CURVE SMOOTH",
"324 919 OFFCURVE",
"365 960 OFFCURVE",
"365 1011 CURVE SMOOTH",
"365 1062 OFFCURVE",
"324 1103 OFFCURVE",
"273 1103 CURVE SMOOTH"
);
}
);
width = 308;
},
{
layerId = "7B60DD57-6012-4D0F-BD38-A72A4BAC0E9D";
paths = (
{
closed = 1;
nodes = (
"60 0 LINE",
"248 0 LINE",
"248 825 LINE",
"60 825 LINE"
);
},
{
closed = 1;
nodes = (
"-15 1103 OFFCURVE",
"-56 1062 OFFCURVE",
"-56 1011 CURVE SMOOTH",
"-56 960 OFFCURVE",
"-15 919 OFFCURVE",
"36 919 CURVE SMOOTH",
"87 919 OFFCURVE",
"128 960 OFFCURVE",
"128 1011 CURVE SMOOTH",
"128 1062 OFFCURVE",
"87 1103 OFFCURVE",
"36 1103 CURVE SMOOTH"
);
},
{
closed = 1;
nodes = (
"222 1103 OFFCURVE",
"181 1062 OFFCURVE",
"181 1011 CURVE SMOOTH",
"181 960 OFFCURVE",
"222 919 OFFCURVE",
"273 919 CURVE SMOOTH",
"324 919 OFFCURVE",
"365 960 OFFCURVE",
"365 1011 CURVE SMOOTH",
"365 1062 OFFCURVE",
"324 1103 OFFCURVE",
"273 1103 CURVE SMOOTH"
);
}
);
width = 308;
},
{
layerId = "3FEB53C4-AE65-4B2F-B735-1C16ECFA7AEE";
paths = (
{
closed = 1;
nodes = (
"-27 0 LINE",
"161 0 LINE",
"248 825 LINE",
"60 825 LINE"
);
},
{
closed = 1;
nodes = (
"14 1103 OFFCURVE",
"-31 1062 OFFCURVE",
"-36 1011 CURVE SMOOTH",
"-42 960 OFFCURVE",
"-5 919 OFFCURVE",
"46 919 CURVE SMOOTH",
"97 919 OFFCURVE",
"142 960 OFFCURVE",
"148 1011 CURVE SMOOTH",
"153 1062 OFFCURVE",
"116 1103 OFFCURVE",
"65 1103 CURVE SMOOTH"
);
},
{
closed = 1;
nodes = (
"251 1103 OFFCURVE",
"206 1062 OFFCURVE",
"201 1011 CURVE SMOOTH",
"195 960 OFFCURVE",
"232 919 OFFCURVE",
"283 919 CURVE SMOOTH",
"334 919 OFFCURVE",
"379 960 OFFCURVE",
"385 1011 CURVE SMOOTH",
"390 1062 OFFCURVE",
"353 1103 OFFCURVE",
"302 1103 CURVE SMOOTH"
);
}
);
width = 308;
}
);
leftKerningGroup = Icircumflex;
rightKerningGroup = Icircumflex;
unicode = 00CF;
},
{
glyphname = Igrave;
lastChange = "2017-03-22 17:52:50 +0000";
layers = (
{
layerId = "A4E552E4-62BE-43BB-A58F-34F0EE3B77B8";
paths = (
{
closed = 1;
nodes = (
"60 0 LINE",
"248 0 LINE",
"248 825 LINE",
"60 825 LINE"
);
},
{
closed = 1;
nodes = (
"156 899 LINE",
"212 976 LINE",
"9 1152 LINE",
"-82 1037 LINE"
);
}
);
width = 308;
},
{
layerId = "7B60DD57-6012-4D0F-BD38-A72A4BAC0E9D";
paths = (
{
closed = 1;
nodes = (
"60 0 LINE",
"248 0 LINE",
"248 825 LINE",
"60 825 LINE"
);
},
{
closed = 1;
nodes = (
"156 899 LINE",
"212 976 LINE",
"9 1152 LINE",
"-82 1037 LINE"
);
}
);
width = 308;
},
{
layerId = "3FEB53C4-AE65-4B2F-B735-1C16ECFA7AEE";
paths = (
{
closed = 1;
nodes = (
"-27 0 LINE",
"161 0 LINE",
"248 825 LINE",
"60 825 LINE"
);
},
{
closed = 1;
nodes = (
"164 899 LINE",
"228 976 LINE",
"43 1152 LINE",
"-60 1037 LINE"
);
}
);
width = 308;
}
);
leftKerningGroup = i;
rightKerningGroup = d;
unicode = 00CC;
},
{
glyphname = Imacron;
lastChange = "2017-03-22 17:52:50 +0000";
layers = (
{
layerId = "A4E552E4-62BE-43BB-A58F-34F0EE3B77B8";
paths = (
{
closed = 1;
nodes = (
"60 0 LINE",
"248 0 LINE",
"248 825 LINE",
"60 825 LINE"
);
},
{
closed = 1;
nodes = (
"358 946 LINE",
"358 1066 LINE",
"-50 1066 LINE",
"-50 946 LINE"
);
}
);
width = 308;
},
{
layerId = "7B60DD57-6012-4D0F-BD38-A72A4BAC0E9D";
paths = (
{
closed = 1;
nodes = (
"60 0 LINE",
"248 0 LINE",
"248 825 LINE",
"60 825 LINE"
);
},
{
closed = 1;
nodes = (
"358 946 LINE",
"358 1066 LINE",
"-50 1066 LINE",
"-50 946 LINE"
);
}
);
width = 308;
},
{
layerId = "3FEB53C4-AE65-4B2F-B735-1C16ECFA7AEE";
paths = (
{
closed = 1;
nodes = (
"-27 0 LINE",
"161 0 LINE",
"248 825 LINE",
"60 825 LINE"
);
},
{
closed = 1;
nodes = (
"371 946 LINE",
"383 1066 LINE",
"-25 1066 LINE",
"-37 946 LINE"
);
}
);
width = 308;
}
);
leftKerningGroup = Icircumflex;
rightKerningGroup = Icircumflex;
unicode = 012A;
},
{
glyphname = Iogonek;
lastChange = "2017-03-22 17:52:50 +0000";
layers = (
{
layerId = "A4E552E4-62BE-43BB-A58F-34F0EE3B77B8";
paths = (
{
closed = 1;
nodes = (
"60 0 LINE",
"113 0 LINE",
"83 -36 OFFCURVE",
"33 -103 OFFCURVE",
"33 -158 CURVE SMOOTH",
"33 -245 OFFCURVE",
"107 -275 OFFCURVE",
"159 -275 CURVE SMOOTH",
"251 -275 OFFCURVE",
"296 -203 OFFCURVE",
"296 -203 CURVE",
"224 -149 LINE",
"224 -149 OFFCURVE",
"204 -179 OFFCURVE",
"173 -179 CURVE SMOOTH",
"156 -179 OFFCURVE",
"136 -165 OFFCURVE",
"136 -140 CURVE SMOOTH",
"136 -70 OFFCURVE",
"195 0 OFFCURVE",
"195 0 CURVE",
"248 0 LINE",
"248 825 LINE",
"60 825 LINE"
);
}
);
width = 308;
},
{
layerId = "7B60DD57-6012-4D0F-BD38-A72A4BAC0E9D";
paths = (
{
closed = 1;
nodes = (
"60 0 LINE",
"113 0 LINE",
"83 -36 OFFCURVE",
"33 -103 OFFCURVE",
"33 -158 CURVE SMOOTH",
"33 -245 OFFCURVE",
"107 -275 OFFCURVE",
"159 -275 CURVE SMOOTH",
"251 -275 OFFCURVE",
"296 -203 OFFCURVE",
"296 -203 CURVE",
"224 -149 LINE",
"224 -149 OFFCURVE",
"204 -179 OFFCURVE",
"173 -179 CURVE SMOOTH",
"156 -179 OFFCURVE",
"136 -165 OFFCURVE",
"136 -140 CURVE SMOOTH",
"136 -70 OFFCURVE",
"195 0 OFFCURVE",
"195 0 CURVE",
"248 0 LINE",
"248 825 LINE",
"60 825 LINE"
);
}
);
width = 308;
},
{
layerId = "3FEB53C4-AE65-4B2F-B735-1C16ECFA7AEE";
paths = (
{
closed = 1;
nodes = (
"-27 0 LINE",
"26 0 LINE",
"-7 -36 OFFCURVE",
"-65 -103 OFFCURVE",
"-70 -158 CURVE SMOOTH",
"-79 -245 OFFCURVE",
"-9 -275 OFFCURVE",
"43 -275 CURVE SMOOTH",
"135 -275 OFFCURVE",
"188 -203 OFFCURVE",
"188 -203 CURVE",
"122 -149 LINE",
"122 -149 OFFCURVE",
"98 -179 OFFCURVE",
"67 -179 CURVE SMOOTH",
"50 -179 OFFCURVE",
"32 -165 OFFCURVE",
"35 -140 CURVE SMOOTH",
"42 -70 OFFCURVE",
"108 0 OFFCURVE",
"108 0 CURVE",
"161 0 LINE",
"248 825 LINE",
"60 825 LINE"
);
}
);
width = 308;
}
);
rightKerningGroup = d;
unicode = 012E;
},
{
glyphname = J;
lastChange = "2017-03-22 17:52:50 +0000";
layers = (
{
layerId = "A4E552E4-62BE-43BB-A58F-34F0EE3B77B8";
paths = (
{
closed = 1;
nodes = (
"419 825 LINE",
"231 825 LINE",
"231 281 LINE SMOOTH",
"231 198 OFFCURVE",
"190 165 OFFCURVE",
"136 165 CURVE SMOOTH",
"88 165 OFFCURVE",
"29 221 OFFCURVE",
"29 221 CURVE",
"-31 64 LINE",
"-31 64 OFFCURVE",
"44 -15 OFFCURVE",
"162 -15 CURVE SMOOTH",
"327 -15 OFFCURVE",
"419 71 OFFCURVE",
"419 233 CURVE SMOOTH"
);
}
);
width = 469;
},
{
layerId = "7B60DD57-6012-4D0F-BD38-A72A4BAC0E9D";
paths = (
{
closed = 1;
nodes = (
"369 825 LINE",
"301 825 LINE",
"301 241 LINE SMOOTH",
"301 158 OFFCURVE",
"296 45 OFFCURVE",
"166 45 CURVE SMOOTH",
"54 45 OFFCURVE",
"-4 129 OFFCURVE",
"-4 129 CURVE",
"-33 61 LINE",
"-33 61 OFFCURVE",
"34 -15 OFFCURVE",
"164 -15 CURVE SMOOTH",
"329 -15 OFFCURVE",
"369 91 OFFCURVE",
"369 253 CURVE SMOOTH"
);
}
);
width = 419;
},
{
layerId = "3FEB53C4-AE65-4B2F-B735-1C16ECFA7AEE";
paths = (
{
closed = 1;
nodes = (
"419 825 LINE",
"231 825 LINE",
"174 281 LINE SMOOTH",
"165 198 OFFCURVE",
"121 165 OFFCURVE",
"67 165 CURVE SMOOTH",
"19 165 OFFCURVE",
"-34 221 OFFCURVE",
"-34 221 CURVE",
"-111 64 LINE",
"-111 64 OFFCURVE",
"-44 -15 OFFCURVE",
"74 -15 CURVE SMOOTH",
"239 -15 OFFCURVE",
"340 71 OFFCURVE",
"357 233 CURVE SMOOTH"
);
}
);
width = 469;
}
);
rightKerningGroup = d;
unicode = 004A;
},
{
glyphname = K;
lastChange = "2017-03-22 17:52:50 +0000";
layers = (
{
layerId = "A4E552E4-62BE-43BB-A58F-34F0EE3B77B8";
paths = (
{
closed = 1;
nodes = (
"729 825 LINE",
"501 825 LINE",
"248 488 LINE",
"248 825 LINE",
"60 825 LINE",
"60 0 LINE",
"248 0 LINE",
"248 360 LINE",
"522 0 LINE",
"761 0 LINE",
"417 434 LINE"
);
}
);
width = 761;
},
{
layerId = "7B60DD57-6012-4D0F-BD38-A72A4BAC0E9D";
paths = (
{
closed = 1;
nodes = (
"529 825 LINE",
"441 825 LINE",
"128 428 LINE",
"128 825 LINE",
"60 825 LINE",
"60 0 LINE",
"128 0 LINE",
"128 390 LINE",
"462 0 LINE",
"551 0 LINE",
"197 414 LINE"
);
}
);
width = 551;
},
{
layerId = "3FEB53C4-AE65-4B2F-B735-1C16ECFA7AEE";
paths = (
{
closed = 1;
nodes = (
"729 825 LINE",
"501 825 LINE",
"213 488 LINE",
"248 825 LINE",
"60 825 LINE",
"-27 0 LINE",
"161 0 LINE",
"199 360 LINE",
"435 0 LINE",
"674 0 LINE",
"376 434 LINE"
);
}
);
width = 761;
}
);
rightKerningGroup = d;
unicode = 004B;
},
{
glyphname = Kcommaaccent;
lastChange = "2017-03-22 17:52:50 +0000";
layers = (
{
layerId = "A4E552E4-62BE-43BB-A58F-34F0EE3B77B8";
paths = (
{
closed = 1;
nodes = (
"759 825 LINE",
"531 825 LINE",
"248 488 LINE",
"248 825 LINE",
"60 825 LINE",
"60 0 LINE",
"248 0 LINE",
"248 350 LINE",
"552 0 LINE",
"811 0 LINE",
"427 434 LINE"
);
},
{
closed = 1;
nodes = (
"442 -40 OFFCURVE",
"482 -80 OFFCURVE",
"482 -130 CURVE SMOOTH",
"482 -223 OFFCURVE",
"415 -299 OFFCURVE",
"352 -351 CURVE",
"312 -320 LINE",
"312 -320 OFFCURVE",
"359 -275 OFFCURVE",
"371 -210 CURVE",
"333 -201 OFFCURVE",
"304 -170 OFFCURVE",
"304 -130 CURVE SMOOTH",
"304 -80 OFFCURVE",
"344 -40 OFFCURVE",
"392 -40 CURVE SMOOTH"
);
}
);
width = 787;
},
{
layerId = "7B60DD57-6012-4D0F-BD38-A72A4BAC0E9D";
paths = (
{
closed = 1;
nodes = (
"759 825 LINE",
"531 825 LINE",
"248 488 LINE",
"248 825 LINE",
"60 825 LINE",
"60 0 LINE",
"248 0 LINE",
"248 350 LINE",
"552 0 LINE",
"811 0 LINE",
"427 434 LINE"
);
},
{
closed = 1;
nodes = (
"442 -40 OFFCURVE",
"482 -80 OFFCURVE",
"482 -130 CURVE SMOOTH",
"482 -223 OFFCURVE",
"415 -299 OFFCURVE",
"352 -351 CURVE",
"312 -320 LINE",
"312 -320 OFFCURVE",
"359 -275 OFFCURVE",
"371 -210 CURVE",
"333 -201 OFFCURVE",
"304 -170 OFFCURVE",
"304 -130 CURVE SMOOTH",
"304 -80 OFFCURVE",
"344 -40 OFFCURVE",
"392 -40 CURVE SMOOTH"
);
}
);
width = 787;
},
{
layerId = "3FEB53C4-AE65-4B2F-B735-1C16ECFA7AEE";
paths = (
{
closed = 1;
nodes = (
"759 825 LINE",
"531 825 LINE",
"213 488 LINE",
"248 825 LINE",
"60 825 LINE",
"-27 0 LINE",
"161 0 LINE",
"198 350 LINE",
"465 0 LINE",
"724 0 LINE",
"386 434 LINE"
);
},
{
closed = 1;
nodes = (
"351 -40 OFFCURVE",
"387 -80 OFFCURVE",
"382 -130 CURVE SMOOTH",
"372 -223 OFFCURVE",
"297 -299 OFFCURVE",
"228 -351 CURVE",
"192 -320 LINE",
"192 -320 OFFCURVE",
"243 -275 OFFCURVE",
"262 -210 CURVE",
"225 -201 OFFCURVE",
"199 -170 OFFCURVE",
"204 -130 CURVE SMOOTH",
"209 -80 OFFCURVE",
"253 -40 OFFCURVE",
"301 -40 CURVE SMOOTH"
);
}
);
width = 787;
}
);
rightKerningGroup = d;
unicode = 0136;
},
{
glyphname = L;
lastChange = "2017-03-22 17:52:50 +0000";
layers = (
{
layerId = "A4E552E4-62BE-43BB-A58F-34F0EE3B77B8";
paths = (
{
closed = 1;
nodes = (
"60 0 LINE",
"532 0 LINE",
"532 165 LINE",
"248 165 LINE",
"248 825 LINE",
"60 825 LINE"
);
}
);
width = 565;
},
{
layerId = "7B60DD57-6012-4D0F-BD38-A72A4BAC0E9D";
paths = (
{
closed = 1;
nodes = (
"60 0 LINE",
"462 0 LINE",
"462 65 LINE",
"128 65 LINE",
"128 825 LINE",
"60 825 LINE"
);
}
);
width = 495;
},
{
layerId = "3FEB53C4-AE65-4B2F-B735-1C16ECFA7AEE";
paths = (
{
closed = 1;
nodes = (
"-27 0 LINE",
"445 0 LINE",
"463 165 LINE",
"179 165 LINE",
"248 825 LINE",
"60 825 LINE"
);
}
);
width = 565;
}
);
rightKerningGroup = L;
unicode = 004C;
},
{
glyphname = Lacute;
lastChange = "2017-03-22 17:52:50 +0000";
layers = (
{
layerId = "A4E552E4-62BE-43BB-A58F-34F0EE3B77B8";
paths = (
{
closed = 1;
nodes = (
"60 0 LINE",
"532 0 LINE",
"532 165 LINE",
"248 165 LINE",
"248 825 LINE",
"60 825 LINE"
);
},
{
closed = 1;
nodes = (
"430 1037 LINE",
"339 1152 LINE",
"136 976 LINE",
"192 899 LINE"
);
}
);
width = 565;
},
{
layerId = "7B60DD57-6012-4D0F-BD38-A72A4BAC0E9D";
paths = (
{
closed = 1;
nodes = (
"60 0 LINE",
"532 0 LINE",
"532 165 LINE",
"248 165 LINE",
"248 825 LINE",
"60 825 LINE"
);
},
{
closed = 1;
nodes = (
"430 1037 LINE",
"339 1152 LINE",
"136 976 LINE",
"192 899 LINE"
);
}
);
width = 565;
},
{
layerId = "3FEB53C4-AE65-4B2F-B735-1C16ECFA7AEE";
paths = (
{
closed = 1;
nodes = (
"-27 0 LINE",
"445 0 LINE",
"463 165 LINE",
"179 165 LINE",
"248 825 LINE",
"60 825 LINE"
);
},
{
closed = 1;
nodes = (
"452 1037 LINE",
"373 1152 LINE",
"152 976 LINE",
"200 899 LINE"
);
}
);
width = 565;
}
);
rightKerningGroup = L;
unicode = 0139;
},
{
glyphname = Lcaron;
lastChange = "2017-03-22 17:52:50 +0000";
layers = (
{
layerId = "A4E552E4-62BE-43BB-A58F-34F0EE3B77B8";
paths = (
{
closed = 1;
nodes = (
"60 0 LINE",
"532 0 LINE",
"532 165 LINE",
"248 165 LINE",
"248 825 LINE",
"60 825 LINE"
);
},
{
closed = 1;
nodes = (
"467 824 OFFCURVE",
"507 784 OFFCURVE",
"507 734 CURVE SMOOTH",
"507 641 OFFCURVE",
"440 565 OFFCURVE",
"377 513 CURVE",
"337 544 LINE",
"337 544 OFFCURVE",
"384 589 OFFCURVE",
"396 654 CURVE",
"358 663 OFFCURVE",
"329 694 OFFCURVE",
"329 734 CURVE SMOOTH",
"329 784 OFFCURVE",
"369 824 OFFCURVE",
"417 824 CURVE SMOOTH"
);
}
);
width = 565;
},
{
layerId = "7B60DD57-6012-4D0F-BD38-A72A4BAC0E9D";
paths = (
{
closed = 1;
nodes = (
"60 0 LINE",
"532 0 LINE",
"532 165 LINE",
"248 165 LINE",
"248 825 LINE",
"60 825 LINE"
);
},
{
closed = 1;
nodes = (
"467 824 OFFCURVE",
"507 784 OFFCURVE",
"507 734 CURVE SMOOTH",
"507 641 OFFCURVE",
"440 565 OFFCURVE",
"377 513 CURVE",
"337 544 LINE",
"337 544 OFFCURVE",
"384 589 OFFCURVE",
"396 654 CURVE",
"358 663 OFFCURVE",
"329 694 OFFCURVE",
"329 734 CURVE SMOOTH",
"329 784 OFFCURVE",
"369 824 OFFCURVE",
"417 824 CURVE SMOOTH"
);
}
);
width = 565;
},
{
layerId = "3FEB53C4-AE65-4B2F-B735-1C16ECFA7AEE";
paths = (
{
closed = 1;
nodes = (
"-27 0 LINE",
"445 0 LINE",
"463 165 LINE",
"179 165 LINE",
"248 825 LINE",
"60 825 LINE"
);
},
{
closed = 1;
nodes = (
"467 824 OFFCURVE",
"503 784 OFFCURVE",
"497 734 CURVE SMOOTH",
"488 641 OFFCURVE",
"413 565 OFFCURVE",
"344 513 CURVE",
"307 544 LINE",
"307 544 OFFCURVE",
"359 589 OFFCURVE",
"378 654 CURVE",
"341 663 OFFCURVE",
"315 694 OFFCURVE",
"319 734 CURVE SMOOTH",
"325 784 OFFCURVE",
"369 824 OFFCURVE",
"417 824 CURVE SMOOTH"
);
}
);
width = 565;
}
);
rightKerningGroup = L;
unicode = 013D;
},
{
glyphname = Lcommaaccent;
lastChange = "2017-03-22 17:52:50 +0000";
layers = (
{
layerId = "A4E552E4-62BE-43BB-A58F-34F0EE3B77B8";
paths = (
{
closed = 1;
nodes = (
"60 0 LINE",
"532 0 LINE",
"532 165 LINE",
"248 165 LINE",
"248 825 LINE",
"60 825 LINE"
);
},
{
closed = 1;
nodes = (
"331 -40 OFFCURVE",
"371 -80 OFFCURVE",
"371 -130 CURVE SMOOTH",
"371 -223 OFFCURVE",
"304 -299 OFFCURVE",
"241 -351 CURVE",
"201 -320 LINE",
"201 -320 OFFCURVE",
"248 -275 OFFCURVE",
"260 -210 CURVE",
"222 -201 OFFCURVE",
"193 -170 OFFCURVE",
"193 -130 CURVE SMOOTH",
"193 -80 OFFCURVE",
"233 -40 OFFCURVE",
"281 -40 CURVE SMOOTH"
);
}
);
width = 565;
},
{
layerId = "7B60DD57-6012-4D0F-BD38-A72A4BAC0E9D";
paths = (
{
closed = 1;
nodes = (
"60 0 LINE",
"532 0 LINE",
"532 165 LINE",
"248 165 LINE",
"248 825 LINE",
"60 825 LINE"
);
},
{
closed = 1;
nodes = (
"331 -40 OFFCURVE",
"371 -80 OFFCURVE",
"371 -130 CURVE SMOOTH",
"371 -223 OFFCURVE",
"304 -299 OFFCURVE",
"241 -351 CURVE",
"201 -320 LINE",
"201 -320 OFFCURVE",
"248 -275 OFFCURVE",
"260 -210 CURVE",
"222 -201 OFFCURVE",
"193 -170 OFFCURVE",
"193 -130 CURVE SMOOTH",
"193 -80 OFFCURVE",
"233 -40 OFFCURVE",
"281 -40 CURVE SMOOTH"
);
}
);
width = 565;
},
{
layerId = "3FEB53C4-AE65-4B2F-B735-1C16ECFA7AEE";
paths = (
{
closed = 1;
nodes = (
"-27 0 LINE",
"445 0 LINE",
"463 165 LINE",
"179 165 LINE",
"248 825 LINE",
"60 825 LINE"
);
},
{
closed = 1;
nodes = (
"240 -40 OFFCURVE",
"276 -80 OFFCURVE",
"271 -130 CURVE SMOOTH",
"261 -223 OFFCURVE",
"186 -299 OFFCURVE",
"117 -351 CURVE",
"81 -320 LINE",
"81 -320 OFFCURVE",
"132 -275 OFFCURVE",
"151 -210 CURVE",
"114 -201 OFFCURVE",
"88 -170 OFFCURVE",
"93 -130 CURVE SMOOTH",
"98 -80 OFFCURVE",
"142 -40 OFFCURVE",
"190 -40 CURVE SMOOTH"
);
}
);
width = 565;
}
);
rightKerningGroup = L;
unicode = 013B;
},
{
glyphname = Lslash;
lastChange = "2017-03-22 17:52:50 +0000";
layers = (
{
layerId = "A4E552E4-62BE-43BB-A58F-34F0EE3B77B8";
paths = (
{
closed = 1;
nodes = (
"96 0 LINE",
"568 0 LINE",
"568 165 LINE",
"284 165 LINE",
"284 457 LINE",
"389 540 LINE",
"389 693 LINE",
"284 610 LINE",
"284 825 LINE",
"96 825 LINE",
"96 462 LINE",
"20 403 LINE",
"20 250 LINE",
"96 309 LINE"
);
}
);
width = 568;
},
{
layerId = "7B60DD57-6012-4D0F-BD38-A72A4BAC0E9D";
paths = (
{
closed = 1;
nodes = (
"96 0 LINE",
"568 0 LINE",
"568 165 LINE",
"284 165 LINE",
"284 457 LINE",
"389 540 LINE",
"389 693 LINE",
"284 610 LINE",
"284 825 LINE",
"96 825 LINE",
"96 462 LINE",
"20 403 LINE",
"20 250 LINE",
"96 309 LINE"
);
}
);
width = 568;
},
{
layerId = "3FEB53C4-AE65-4B2F-B735-1C16ECFA7AEE";
paths = (
{
closed = 1;
nodes = (
"9 0 LINE",
"481 0 LINE",
"499 165 LINE",
"215 165 LINE",
"245 457 LINE",
"359 540 LINE",
"375 693 LINE",
"261 610 LINE",
"284 825 LINE",
"96 825 LINE",
"58 462 LINE",
"-24 403 LINE",
"-40 250 LINE",
"42 309 LINE"
);
}
);
width = 568;
}
);
rightKerningGroup = L;
unicode = 0141;
},
{
glyphname = M;
lastChange = "2017-03-22 17:52:50 +0000";
layers = (
{
layerId = "A4E552E4-62BE-43BB-A58F-34F0EE3B77B8";
paths = (
{
closed = 1;
nodes = (
"670 825 LINE",
"455 301 LINE",
"449 279 LINE",
"443 301 LINE",
"228 825 LINE",
"30 825 LINE",
"30 0 LINE",
"218 0 LINE",
"218 461 LINE",
"226 423 LINE",
"383 0 LINE",
"515 0 LINE",
"672 423 LINE",
"680 461 LINE",
"680 0 LINE",
"868 0 LINE",
"868 825 LINE"
);
}
);
width = 908;
},
{
layerId = "7B60DD57-6012-4D0F-BD38-A72A4BAC0E9D";
paths = (
{
closed = 1;
nodes = (
"660 825 LINE",
"395 121 LINE",
"389 99 LINE",
"383 121 LINE",
"118 825 LINE",
"50 825 LINE",
"50 0 LINE",
"118 0 LINE",
"118 641 LINE",
"126 603 LINE",
"363 0 LINE",
"415 0 LINE",
"652 603 LINE",
"660 641 LINE",
"660 0 LINE",
"728 0 LINE",
"728 825 LINE"
);
}
);
width = 788;
},
{
layerId = "3FEB53C4-AE65-4B2F-B735-1C16ECFA7AEE";
paths = (
{
closed = 1;
nodes = (
"670 825 LINE",
"400 301 LINE",
"392 279 LINE",
"388 301 LINE",
"228 825 LINE",
"30 825 LINE",
"-57 0 LINE",
"131 0 LINE",
"180 461 LINE",
"184 423 LINE",
"296 0 LINE",
"428 0 LINE",
"630 423 LINE",
"642 461 LINE",
"593 0 LINE",
"781 0 LINE",
"868 825 LINE"
);
}
);
width = 908;
}
);
rightKerningGroup = d;
unicode = 004D;
},
{
glyphname = N;
lastChange = "2017-03-22 17:52:50 +0000";
layers = (
{
layerId = "A4E552E4-62BE-43BB-A58F-34F0EE3B77B8";
paths = (
{
closed = 1;
nodes = (
"578 0 LINE",
"766 0 LINE",
"766 825 LINE",
"578 825 LINE",
"578 313 LINE",
"576 313 LINE",
"248 825 LINE",
"60 825 LINE",
"60 0 LINE",
"248 0 LINE",
"248 512 LINE",
"250 512 LINE"
);
}
);
width = 826;
},
{
layerId = "7B60DD57-6012-4D0F-BD38-A72A4BAC0E9D";
paths = (
{
closed = 1;
nodes = (
"578 0 LINE",
"646 0 LINE",
"646 825 LINE",
"578 825 LINE",
"578 125 LINE",
"576 125 LINE",
"128 825 LINE",
"60 825 LINE",
"60 0 LINE",
"128 0 LINE",
"128 695 LINE",
"130 695 LINE"
);
}
);
width = 706;
},
{
layerId = "3FEB53C4-AE65-4B2F-B735-1C16ECFA7AEE";
paths = (
{
closed = 1;
nodes = (
"491 0 LINE",
"679 0 LINE",
"766 825 LINE",
"578 825 LINE",
"524 313 LINE",
"522 313 LINE",
"248 825 LINE",
"60 825 LINE",
"-27 0 LINE",
"161 0 LINE",
"215 512 LINE",
"217 512 LINE"
);
}
);
width = 826;
}
);
rightKerningGroup = d;
unicode = 004E;
},
{
glyphname = Nacute;
lastChange = "2017-03-22 17:52:50 +0000";
layers = (
{
layerId = "A4E552E4-62BE-43BB-A58F-34F0EE3B77B8";
paths = (
{
closed = 1;
nodes = (
"578 0 LINE",
"766 0 LINE",
"766 825 LINE",
"578 825 LINE",
"578 313 LINE",
"576 313 LINE",
"248 825 LINE",
"60 825 LINE",
"60 0 LINE",
"248 0 LINE",
"248 512 LINE",
"250 512 LINE"
);
},
{
closed = 1;
nodes = (
"560 1037 LINE",
"469 1152 LINE",
"266 976 LINE",
"322 899 LINE"
);
}
);
width = 826;
},
{
layerId = "7B60DD57-6012-4D0F-BD38-A72A4BAC0E9D";
paths = (
{
closed = 1;
nodes = (
"578 0 LINE",
"766 0 LINE",
"766 825 LINE",
"578 825 LINE",
"578 313 LINE",
"576 313 LINE",
"248 825 LINE",
"60 825 LINE",
"60 0 LINE",
"248 0 LINE",
"248 512 LINE",
"250 512 LINE"
);
},
{
closed = 1;
nodes = (
"560 1037 LINE",
"469 1152 LINE",
"266 976 LINE",
"322 899 LINE"
);
}
);
width = 826;
},
{
layerId = "3FEB53C4-AE65-4B2F-B735-1C16ECFA7AEE";
paths = (
{
closed = 1;
nodes = (
"491 0 LINE",
"679 0 LINE",
"766 825 LINE",
"578 825 LINE",
"524 313 LINE",
"522 313 LINE",
"248 825 LINE",
"60 825 LINE",
"-27 0 LINE",
"161 0 LINE",
"215 512 LINE",
"217 512 LINE"
);
},
{
closed = 1;
nodes = (
"582 1037 LINE",
"503 1152 LINE",
"282 976 LINE",
"330 899 LINE"
);
}
);
width = 826;
}
);
rightKerningGroup = d;
unicode = 0143;
},
{
glyphname = Ncaron;
lastChange = "2017-03-22 17:52:50 +0000";
layers = (
{
layerId = "A4E552E4-62BE-43BB-A58F-34F0EE3B77B8";
paths = (
{
closed = 1;
nodes = (
"578 0 LINE",
"766 0 LINE",
"766 825 LINE",
"578 825 LINE",
"578 313 LINE",
"576 313 LINE",
"248 825 LINE",
"60 825 LINE",
"60 0 LINE",
"248 0 LINE",
"248 512 LINE",
"250 512 LINE"
);
},
{
closed = 1;
nodes = (
"413 899 LINE",
"634 1061 LINE",
"566 1152 LINE",
"413 1040 LINE",
"260 1152 LINE",
"192 1061 LINE"
);
}
);
width = 826;
},
{
layerId = "7B60DD57-6012-4D0F-BD38-A72A4BAC0E9D";
paths = (
{
closed = 1;
nodes = (
"578 0 LINE",
"766 0 LINE",
"766 825 LINE",
"578 825 LINE",
"578 313 LINE",
"576 313 LINE",
"248 825 LINE",
"60 825 LINE",
"60 0 LINE",
"248 0 LINE",
"248 512 LINE",
"250 512 LINE"
);
},
{
closed = 1;
nodes = (
"413 899 LINE",
"634 1061 LINE",
"566 1152 LINE",
"413 1040 LINE",
"260 1152 LINE",
"192 1061 LINE"
);
}
);
width = 826;
},
{
layerId = "3FEB53C4-AE65-4B2F-B735-1C16ECFA7AEE";
paths = (
{
closed = 1;
nodes = (
"491 0 LINE",
"679 0 LINE",
"766 825 LINE",
"578 825 LINE",
"524 313 LINE",
"522 313 LINE",
"248 825 LINE",
"60 825 LINE",
"-27 0 LINE",
"161 0 LINE",
"215 512 LINE",
"217 512 LINE"
);
},
{
closed = 1;
nodes = (
"421 899 LINE",
"659 1061 LINE",
"600 1152 LINE",
"436 1040 LINE",
"294 1152 LINE",
"217 1061 LINE"
);
}
);
width = 826;
}
);
rightKerningGroup = d;
unicode = 0147;
},
{
glyphname = Ncommaaccent;
lastChange = "2017-03-22 17:52:50 +0000";
layers = (
{
layerId = "A4E552E4-62BE-43BB-A58F-34F0EE3B77B8";
paths = (
{
closed = 1;
nodes = (
"578 0 LINE",
"766 0 LINE",
"766 825 LINE",
"578 825 LINE",
"578 313 LINE",
"576 313 LINE",
"248 825 LINE",
"60 825 LINE",
"60 0 LINE",
"248 0 LINE",
"248 512 LINE",
"250 512 LINE"
);
},
{
closed = 1;
nodes = (
"462 -40 OFFCURVE",
"502 -80 OFFCURVE",
"502 -130 CURVE SMOOTH",
"502 -223 OFFCURVE",
"435 -299 OFFCURVE",
"372 -351 CURVE",
"332 -320 LINE",
"332 -320 OFFCURVE",
"379 -275 OFFCURVE",
"391 -210 CURVE",
"353 -201 OFFCURVE",
"324 -170 OFFCURVE",
"324 -130 CURVE SMOOTH",
"324 -80 OFFCURVE",
"364 -40 OFFCURVE",
"412 -40 CURVE SMOOTH"
);
}
);
width = 826;
},
{
layerId = "7B60DD57-6012-4D0F-BD38-A72A4BAC0E9D";
paths = (
{
closed = 1;
nodes = (
"578 0 LINE",
"766 0 LINE",
"766 825 LINE",
"578 825 LINE",
"578 313 LINE",
"576 313 LINE",
"248 825 LINE",
"60 825 LINE",
"60 0 LINE",
"248 0 LINE",
"248 512 LINE",
"250 512 LINE"
);
},
{
closed = 1;
nodes = (
"462 -40 OFFCURVE",
"502 -80 OFFCURVE",
"502 -130 CURVE SMOOTH",
"502 -223 OFFCURVE",
"435 -299 OFFCURVE",
"372 -351 CURVE",
"332 -320 LINE",
"332 -320 OFFCURVE",
"379 -275 OFFCURVE",
"391 -210 CURVE",
"353 -201 OFFCURVE",
"324 -170 OFFCURVE",
"324 -130 CURVE SMOOTH",
"324 -80 OFFCURVE",
"364 -40 OFFCURVE",
"412 -40 CURVE SMOOTH"
);
}
);
width = 826;
},
{
layerId = "3FEB53C4-AE65-4B2F-B735-1C16ECFA7AEE";
paths = (
{
closed = 1;
nodes = (
"491 0 LINE",
"679 0 LINE",
"766 825 LINE",
"578 825 LINE",
"524 313 LINE",
"522 313 LINE",
"248 825 LINE",
"60 825 LINE",
"-27 0 LINE",
"161 0 LINE",
"215 512 LINE",
"217 512 LINE"
);
},
{
closed = 1;
nodes = (
"371 -40 OFFCURVE",
"407 -80 OFFCURVE",
"402 -130 CURVE SMOOTH",
"392 -223 OFFCURVE",
"317 -299 OFFCURVE",
"248 -351 CURVE",
"212 -320 LINE",
"212 -320 OFFCURVE",
"263 -275 OFFCURVE",
"282 -210 CURVE",
"245 -201 OFFCURVE",
"219 -170 OFFCURVE",
"224 -130 CURVE SMOOTH",
"229 -80 OFFCURVE",
"273 -40 OFFCURVE",
"321 -40 CURVE SMOOTH"
);
}
);
width = 826;
}
);
rightKerningGroup = d;
unicode = 0145;
},
{
glyphname = Ntilde;
lastChange = "2017-03-22 17:52:50 +0000";
layers = (
{
layerId = "A4E552E4-62BE-43BB-A58F-34F0EE3B77B8";
paths = (
{
closed = 1;
nodes = (
"578 0 LINE",
"766 0 LINE",
"766 825 LINE",
"578 825 LINE",
"578 313 LINE",
"576 313 LINE",
"248 825 LINE",
"60 825 LINE",
"60 0 LINE",
"248 0 LINE",
"248 512 LINE",
"250 512 LINE"
);
},
{
closed = 1;
nodes = (
"404 954 OFFCURVE",
"469 927 OFFCURVE",
"508 927 CURVE SMOOTH",
"618 927 OFFCURVE",
"644 1099 OFFCURVE",
"644 1099 CURVE SMOOTH",
"543 1099 LINE SMOOTH",
"543 1099 OFFCURVE",
"530 1053 OFFCURVE",
"498 1053 CURVE SMOOTH",
"462 1053 OFFCURVE",
"422 1072 OFFCURVE",
"422 1072 CURVE SMOOTH",
"422 1072 OFFCURVE",
"357 1099 OFFCURVE",
"318 1099 CURVE SMOOTH",
"208 1099 OFFCURVE",
"182 927 OFFCURVE",
"182 927 CURVE",
"283 927 LINE",
"283 927 OFFCURVE",
"296 973 OFFCURVE",
"328 973 CURVE SMOOTH",
"364 973 OFFCURVE",
"404 954 OFFCURVE",
"404 954 CURVE SMOOTH"
);
}
);
width = 826;
},
{
layerId = "7B60DD57-6012-4D0F-BD38-A72A4BAC0E9D";
paths = (
{
closed = 1;
nodes = (
"578 0 LINE",
"766 0 LINE",
"766 825 LINE",
"578 825 LINE",
"578 313 LINE",
"576 313 LINE",
"248 825 LINE",
"60 825 LINE",
"60 0 LINE",
"248 0 LINE",
"248 512 LINE",
"250 512 LINE"
);
},
{
closed = 1;
nodes = (
"404 954 OFFCURVE",
"469 927 OFFCURVE",
"508 927 CURVE SMOOTH",
"618 927 OFFCURVE",
"644 1099 OFFCURVE",
"644 1099 CURVE SMOOTH",
"543 1099 LINE SMOOTH",
"543 1099 OFFCURVE",
"530 1053 OFFCURVE",
"498 1053 CURVE SMOOTH",
"462 1053 OFFCURVE",
"422 1072 OFFCURVE",
"422 1072 CURVE SMOOTH",
"422 1072 OFFCURVE",
"357 1099 OFFCURVE",
"318 1099 CURVE SMOOTH",
"208 1099 OFFCURVE",
"182 927 OFFCURVE",
"182 927 CURVE",
"283 927 LINE",
"283 927 OFFCURVE",
"296 973 OFFCURVE",
"328 973 CURVE SMOOTH",
"364 973 OFFCURVE",
"404 954 OFFCURVE",
"404 954 CURVE SMOOTH"
);
}
);
width = 826;
},
{
layerId = "3FEB53C4-AE65-4B2F-B735-1C16ECFA7AEE";
paths = (
{
closed = 1;
nodes = (
"491 0 LINE",
"679 0 LINE",
"766 825 LINE",
"578 825 LINE",
"524 313 LINE",
"522 313 LINE",
"248 825 LINE",
"60 825 LINE",
"-27 0 LINE",
"161 0 LINE",
"215 512 LINE",
"217 512 LINE"
);
},
{
closed = 1;
nodes = (
"418 954 OFFCURVE",
"480 927 OFFCURVE",
"519 927 CURVE SMOOTH",
"629 927 OFFCURVE",
"673 1099 OFFCURVE",
"673 1099 CURVE SMOOTH",
"572 1099 LINE SMOOTH",
"572 1099 OFFCURVE",
"554 1053 OFFCURVE",
"522 1053 CURVE SMOOTH",
"486 1053 OFFCURVE",
"448 1072 OFFCURVE",
"448 1072 CURVE SMOOTH",
"448 1072 OFFCURVE",
"386 1099 OFFCURVE",
"347 1099 CURVE SMOOTH",
"237 1099 OFFCURVE",
"193 927 OFFCURVE",
"193 927 CURVE",
"294 927 LINE",
"294 927 OFFCURVE",
"312 973 OFFCURVE",
"344 973 CURVE SMOOTH",
"380 973 OFFCURVE",
"418 954 OFFCURVE",
"418 954 CURVE SMOOTH"
);
}
);
width = 826;
}
);
rightKerningGroup = d;
unicode = 00D1;
},
{
glyphname = O;
lastChange = "2017-03-22 17:52:50 +0000";
layers = (
{
layerId = "A4E552E4-62BE-43BB-A58F-34F0EE3B77B8";
paths = (
{
closed = 1;
nodes = (
"226 536 OFFCURVE",
"294 659 OFFCURVE",
"439 659 CURVE SMOOTH",
"585 659 OFFCURVE",
"651 536 OFFCURVE",
"651 413 CURVE SMOOTH",
"651 290 OFFCURVE",
"589 167 OFFCURVE",
"439 167 CURVE SMOOTH",
"285 167 OFFCURVE",
"226 290 OFFCURVE",
"226 413 CURVE SMOOTH"
);
},
{
closed = 1;
nodes = (
"23 172 OFFCURVE",
"195 -15 OFFCURVE",
"439 -15 CURVE SMOOTH",
"676 -15 OFFCURVE",
"854 172 OFFCURVE",
"854 413 CURVE SMOOTH",
"854 654 OFFCURVE",
"668 840 OFFCURVE",
"439 840 CURVE SMOOTH",
"212 840 OFFCURVE",
"23 654 OFFCURVE",
"23 413 CURVE SMOOTH"
);
}
);
width = 877;
},
{
layerId = "7B60DD57-6012-4D0F-BD38-A72A4BAC0E9D";
paths = (
{
closed = 1;
nodes = (
"96 606 OFFCURVE",
"214 779 OFFCURVE",
"409 779 CURVE SMOOTH",
"605 779 OFFCURVE",
"721 606 OFFCURVE",
"721 413 CURVE SMOOTH",
"721 220 OFFCURVE",
"609 47 OFFCURVE",
"409 47 CURVE SMOOTH",
"205 47 OFFCURVE",
"96 220 OFFCURVE",
"96 413 CURVE SMOOTH"
);
},
{
closed = 1;
nodes = (
"23 172 OFFCURVE",
"165 -15 OFFCURVE",
"409 -15 CURVE SMOOTH",
"646 -15 OFFCURVE",
"794 172 OFFCURVE",
"794 413 CURVE SMOOTH",
"794 654 OFFCURVE",
"638 840 OFFCURVE",
"409 840 CURVE SMOOTH",
"182 840 OFFCURVE",
"23 654 OFFCURVE",
"23 413 CURVE SMOOTH"
);
}
);
width = 817;
},
{
layerId = "3FEB53C4-AE65-4B2F-B735-1C16ECFA7AEE";
paths = (
{
closed = 1;
nodes = (
"196 536 OFFCURVE",
"277 659 OFFCURVE",
"422 659 CURVE SMOOTH",
"568 659 OFFCURVE",
"621 536 OFFCURVE",
"608 413 CURVE SMOOTH",
"595 290 OFFCURVE",
"520 167 OFFCURVE",
"370 167 CURVE SMOOTH",
"216 167 OFFCURVE",
"170 290 OFFCURVE",
"183 413 CURVE SMOOTH"
);
},
{
closed = 1;
nodes = (
"-46 172 OFFCURVE",
"107 -15 OFFCURVE",
"351 -15 CURVE SMOOTH",
"588 -15 OFFCURVE",
"785 172 OFFCURVE",
"811 413 CURVE SMOOTH",
"836 654 OFFCURVE",
"670 840 OFFCURVE",
"441 840 CURVE SMOOTH",
"214 840 OFFCURVE",
"5 654 OFFCURVE",
"-20 413 CURVE SMOOTH"
);
}
);
width = 877;
}
);
leftKerningGroup = O;
rightKerningGroup = O;
unicode = 004F;
},
{
glyphname = Oacute;
lastChange = "2017-03-22 17:52:50 +0000";
layers = (
{
layerId = "A4E552E4-62BE-43BB-A58F-34F0EE3B77B8";
paths = (
{
closed = 1;
nodes = (
"226 536 OFFCURVE",
"294 659 OFFCURVE",
"439 659 CURVE SMOOTH",
"585 659 OFFCURVE",
"651 536 OFFCURVE",
"651 413 CURVE SMOOTH",
"651 290 OFFCURVE",
"589 167 OFFCURVE",
"439 167 CURVE SMOOTH",
"285 167 OFFCURVE",
"226 290 OFFCURVE",
"226 413 CURVE SMOOTH"
);
},
{
closed = 1;
nodes = (
"23 172 OFFCURVE",
"195 -15 OFFCURVE",
"439 -15 CURVE SMOOTH",
"676 -15 OFFCURVE",
"854 172 OFFCURVE",
"854 413 CURVE SMOOTH",
"854 654 OFFCURVE",
"668 840 OFFCURVE",
"439 840 CURVE SMOOTH",
"212 840 OFFCURVE",
"23 654 OFFCURVE",
"23 413 CURVE SMOOTH"
);
},
{
closed = 1;
nodes = (
"634 1037 LINE",
"543 1152 LINE",
"340 976 LINE",
"396 899 LINE"
);
}
);
width = 877;
},
{
layerId = "7B60DD57-6012-4D0F-BD38-A72A4BAC0E9D";
paths = (
{
closed = 1;
nodes = (
"226 536 OFFCURVE",
"294 659 OFFCURVE",
"439 659 CURVE SMOOTH",
"585 659 OFFCURVE",
"651 536 OFFCURVE",
"651 413 CURVE SMOOTH",
"651 290 OFFCURVE",
"589 167 OFFCURVE",
"439 167 CURVE SMOOTH",
"285 167 OFFCURVE",
"226 290 OFFCURVE",
"226 413 CURVE SMOOTH"
);
},
{
closed = 1;
nodes = (
"23 172 OFFCURVE",
"195 -15 OFFCURVE",
"439 -15 CURVE SMOOTH",
"676 -15 OFFCURVE",
"854 172 OFFCURVE",
"854 413 CURVE SMOOTH",
"854 654 OFFCURVE",
"668 840 OFFCURVE",
"439 840 CURVE SMOOTH",
"212 840 OFFCURVE",
"23 654 OFFCURVE",
"23 413 CURVE SMOOTH"
);
},
{
closed = 1;
nodes = (
"634 1037 LINE",
"543 1152 LINE",
"340 976 LINE",
"396 899 LINE"
);
}
);
width = 877;
},
{
layerId = "3FEB53C4-AE65-4B2F-B735-1C16ECFA7AEE";
paths = (
{
closed = 1;
nodes = (
"196 536 OFFCURVE",
"277 659 OFFCURVE",
"422 659 CURVE SMOOTH",
"568 659 OFFCURVE",
"621 536 OFFCURVE",
"608 413 CURVE SMOOTH",
"595 290 OFFCURVE",
"520 167 OFFCURVE",
"370 167 CURVE SMOOTH",
"216 167 OFFCURVE",
"170 290 OFFCURVE",
"183 413 CURVE SMOOTH"
);
},
{
closed = 1;
nodes = (
"-46 172 OFFCURVE",
"107 -15 OFFCURVE",
"351 -15 CURVE SMOOTH",
"588 -15 OFFCURVE",
"785 172 OFFCURVE",
"811 413 CURVE SMOOTH",
"836 654 OFFCURVE",
"670 840 OFFCURVE",
"441 840 CURVE SMOOTH",
"214 840 OFFCURVE",
"5 654 OFFCURVE",
"-20 413 CURVE SMOOTH"
);
},
{
closed = 1;
nodes = (
"656 1037 LINE",
"577 1152 LINE",
"356 976 LINE",
"404 899 LINE"
);
}
);
width = 877;
}
);
leftKerningGroup = O;
rightKerningGroup = O;
unicode = 00D3;
},
{
glyphname = Ocircumflex;
lastChange = "2017-03-22 17:52:50 +0000";
layers = (
{
layerId = "A4E552E4-62BE-43BB-A58F-34F0EE3B77B8";
paths = (
{
closed = 1;
nodes = (
"226 536 OFFCURVE",
"294 659 OFFCURVE",
"439 659 CURVE SMOOTH",
"585 659 OFFCURVE",
"651 536 OFFCURVE",
"651 413 CURVE SMOOTH",
"651 290 OFFCURVE",
"589 167 OFFCURVE",
"439 167 CURVE SMOOTH",
"285 167 OFFCURVE",
"226 290 OFFCURVE",
"226 413 CURVE SMOOTH"
);
},
{
closed = 1;
nodes = (
"23 172 OFFCURVE",
"195 -15 OFFCURVE",
"439 -15 CURVE SMOOTH",
"676 -15 OFFCURVE",
"854 172 OFFCURVE",
"854 413 CURVE SMOOTH",
"854 654 OFFCURVE",
"668 840 OFFCURVE",
"439 840 CURVE SMOOTH",
"212 840 OFFCURVE",
"23 654 OFFCURVE",
"23 413 CURVE SMOOTH"
);
},
{
closed = 1;
nodes = (
"438 1011 LINE",
"591 899 LINE",
"659 990 LINE",
"438 1152 LINE",
"217 990 LINE",
"285 899 LINE"
);
}
);
width = 877;
},
{
layerId = "7B60DD57-6012-4D0F-BD38-A72A4BAC0E9D";
paths = (
{
closed = 1;
nodes = (
"226 536 OFFCURVE",
"294 659 OFFCURVE",
"439 659 CURVE SMOOTH",
"585 659 OFFCURVE",
"651 536 OFFCURVE",
"651 413 CURVE SMOOTH",
"651 290 OFFCURVE",
"589 167 OFFCURVE",
"439 167 CURVE SMOOTH",
"285 167 OFFCURVE",
"226 290 OFFCURVE",
"226 413 CURVE SMOOTH"
);
},
{
closed = 1;
nodes = (
"23 172 OFFCURVE",
"195 -15 OFFCURVE",
"439 -15 CURVE SMOOTH",
"676 -15 OFFCURVE",
"854 172 OFFCURVE",
"854 413 CURVE SMOOTH",
"854 654 OFFCURVE",
"668 840 OFFCURVE",
"439 840 CURVE SMOOTH",
"212 840 OFFCURVE",
"23 654 OFFCURVE",
"23 413 CURVE SMOOTH"
);
},
{
closed = 1;
nodes = (
"438 1011 LINE",
"591 899 LINE",
"659 990 LINE",
"438 1152 LINE",
"217 990 LINE",
"285 899 LINE"
);
}
);
width = 877;
},
{
layerId = "3FEB53C4-AE65-4B2F-B735-1C16ECFA7AEE";
paths = (
{
closed = 1;
nodes = (
"196 536 OFFCURVE",
"277 659 OFFCURVE",
"422 659 CURVE SMOOTH",
"568 659 OFFCURVE",
"621 536 OFFCURVE",
"608 413 CURVE SMOOTH",
"595 290 OFFCURVE",
"520 167 OFFCURVE",
"370 167 CURVE SMOOTH",
"216 167 OFFCURVE",
"170 290 OFFCURVE",
"183 413 CURVE SMOOTH"
);
},
{
closed = 1;
nodes = (
"-46 172 OFFCURVE",
"107 -15 OFFCURVE",
"351 -15 CURVE SMOOTH",
"588 -15 OFFCURVE",
"785 172 OFFCURVE",
"811 413 CURVE SMOOTH",
"836 654 OFFCURVE",
"670 840 OFFCURVE",
"441 840 CURVE SMOOTH",
"214 840 OFFCURVE",
"5 654 OFFCURVE",
"-20 413 CURVE SMOOTH"
);
},
{
closed = 1;
nodes = (
"458 1011 LINE",
"599 899 LINE",
"676 990 LINE",
"472 1152 LINE",
"234 990 LINE",
"293 899 LINE"
);
}
);
width = 877;
}
);
leftKerningGroup = O;
rightKerningGroup = O;
unicode = 00D4;
},
{
glyphname = Odieresis;
lastChange = "2017-03-22 17:52:50 +0000";
layers = (
{
layerId = "A4E552E4-62BE-43BB-A58F-34F0EE3B77B8";
paths = (
{
closed = 1;
nodes = (
"226 536 OFFCURVE",
"294 659 OFFCURVE",
"439 659 CURVE SMOOTH",
"585 659 OFFCURVE",
"651 536 OFFCURVE",
"651 413 CURVE SMOOTH",
"651 290 OFFCURVE",
"589 167 OFFCURVE",
"439 167 CURVE SMOOTH",
"285 167 OFFCURVE",
"226 290 OFFCURVE",
"226 413 CURVE SMOOTH"
);
},
{
closed = 1;
nodes = (
"23 172 OFFCURVE",
"195 -15 OFFCURVE",
"439 -15 CURVE SMOOTH",
"676 -15 OFFCURVE",
"854 172 OFFCURVE",
"854 413 CURVE SMOOTH",
"854 654 OFFCURVE",
"668 840 OFFCURVE",
"439 840 CURVE SMOOTH",
"212 840 OFFCURVE",
"23 654 OFFCURVE",
"23 413 CURVE SMOOTH"
);
},
{
closed = 1;
nodes = (
"269 1103 OFFCURVE",
"228 1062 OFFCURVE",
"228 1011 CURVE SMOOTH",
"228 960 OFFCURVE",
"269 919 OFFCURVE",
"320 919 CURVE SMOOTH",
"371 919 OFFCURVE",
"412 960 OFFCURVE",
"412 1011 CURVE SMOOTH",
"412 1062 OFFCURVE",
"371 1103 OFFCURVE",
"320 1103 CURVE SMOOTH"
);
},
{
closed = 1;
nodes = (
"506 1103 OFFCURVE",
"465 1062 OFFCURVE",
"465 1011 CURVE SMOOTH",
"465 960 OFFCURVE",
"506 919 OFFCURVE",
"557 919 CURVE SMOOTH",
"608 919 OFFCURVE",
"649 960 OFFCURVE",
"649 1011 CURVE SMOOTH",
"649 1062 OFFCURVE",
"608 1103 OFFCURVE",
"557 1103 CURVE SMOOTH"
);
}
);
width = 877;
},
{
layerId = "7B60DD57-6012-4D0F-BD38-A72A4BAC0E9D";
paths = (
{
closed = 1;
nodes = (
"226 536 OFFCURVE",
"294 659 OFFCURVE",
"439 659 CURVE SMOOTH",
"585 659 OFFCURVE",
"651 536 OFFCURVE",
"651 413 CURVE SMOOTH",
"651 290 OFFCURVE",
"589 167 OFFCURVE",
"439 167 CURVE SMOOTH",
"285 167 OFFCURVE",
"226 290 OFFCURVE",
"226 413 CURVE SMOOTH"
);
},
{
closed = 1;
nodes = (
"23 172 OFFCURVE",
"195 -15 OFFCURVE",
"439 -15 CURVE SMOOTH",
"676 -15 OFFCURVE",
"854 172 OFFCURVE",
"854 413 CURVE SMOOTH",
"854 654 OFFCURVE",
"668 840 OFFCURVE",
"439 840 CURVE SMOOTH",
"212 840 OFFCURVE",
"23 654 OFFCURVE",
"23 413 CURVE SMOOTH"
);
},
{
closed = 1;
nodes = (
"269 1103 OFFCURVE",
"228 1062 OFFCURVE",
"228 1011 CURVE SMOOTH",
"228 960 OFFCURVE",
"269 919 OFFCURVE",
"320 919 CURVE SMOOTH",
"371 919 OFFCURVE",
"412 960 OFFCURVE",
"412 1011 CURVE SMOOTH",
"412 1062 OFFCURVE",
"371 1103 OFFCURVE",
"320 1103 CURVE SMOOTH"
);
},
{
closed = 1;
nodes = (
"506 1103 OFFCURVE",
"465 1062 OFFCURVE",
"465 1011 CURVE SMOOTH",
"465 960 OFFCURVE",
"506 919 OFFCURVE",
"557 919 CURVE SMOOTH",
"608 919 OFFCURVE",
"649 960 OFFCURVE",
"649 1011 CURVE SMOOTH",
"649 1062 OFFCURVE",
"608 1103 OFFCURVE",
"557 1103 CURVE SMOOTH"
);
}
);
width = 877;
},
{
layerId = "3FEB53C4-AE65-4B2F-B735-1C16ECFA7AEE";
paths = (
{
closed = 1;
nodes = (
"196 536 OFFCURVE",
"277 659 OFFCURVE",
"422 659 CURVE SMOOTH",
"568 659 OFFCURVE",
"621 536 OFFCURVE",
"608 413 CURVE SMOOTH",
"595 290 OFFCURVE",
"520 167 OFFCURVE",
"370 167 CURVE SMOOTH",
"216 167 OFFCURVE",
"170 290 OFFCURVE",
"183 413 CURVE SMOOTH"
);
},
{
closed = 1;
nodes = (
"-46 172 OFFCURVE",
"107 -15 OFFCURVE",
"351 -15 CURVE SMOOTH",
"588 -15 OFFCURVE",
"785 172 OFFCURVE",
"811 413 CURVE SMOOTH",
"836 654 OFFCURVE",
"670 840 OFFCURVE",
"441 840 CURVE SMOOTH",
"214 840 OFFCURVE",
"5 654 OFFCURVE",
"-20 413 CURVE SMOOTH"
);
},
{
closed = 1;
nodes = (
"298 1103 OFFCURVE",
"253 1062 OFFCURVE",
"248 1011 CURVE SMOOTH",
"242 960 OFFCURVE",
"279 919 OFFCURVE",
"330 919 CURVE SMOOTH",
"381 919 OFFCURVE",
"426 960 OFFCURVE",
"432 1011 CURVE SMOOTH",
"437 1062 OFFCURVE",
"400 1103 OFFCURVE",
"349 1103 CURVE SMOOTH"
);
},
{
closed = 1;
nodes = (
"535 1103 OFFCURVE",
"490 1062 OFFCURVE",
"485 1011 CURVE SMOOTH",
"479 960 OFFCURVE",
"516 919 OFFCURVE",
"567 919 CURVE SMOOTH",
"618 919 OFFCURVE",
"663 960 OFFCURVE",
"669 1011 CURVE SMOOTH",
"674 1062 OFFCURVE",
"637 1103 OFFCURVE",
"586 1103 CURVE SMOOTH"
);
}
);
width = 877;
}
);
leftKerningGroup = O;
rightKerningGroup = O;
unicode = 00D6;
},
{
glyphname = Ograve;
lastChange = "2017-03-22 17:52:50 +0000";
layers = (
{
layerId = "A4E552E4-62BE-43BB-A58F-34F0EE3B77B8";
paths = (
{
closed = 1;
nodes = (
"226 536 OFFCURVE",
"294 659 OFFCURVE",
"439 659 CURVE SMOOTH",
"585 659 OFFCURVE",
"651 536 OFFCURVE",
"651 413 CURVE SMOOTH",
"651 290 OFFCURVE",
"589 167 OFFCURVE",
"439 167 CURVE SMOOTH",
"285 167 OFFCURVE",
"226 290 OFFCURVE",
"226 413 CURVE SMOOTH"
);
},
{
closed = 1;
nodes = (
"23 172 OFFCURVE",
"195 -15 OFFCURVE",
"439 -15 CURVE SMOOTH",
"676 -15 OFFCURVE",
"854 172 OFFCURVE",
"854 413 CURVE SMOOTH",
"854 654 OFFCURVE",
"668 840 OFFCURVE",
"439 840 CURVE SMOOTH",
"212 840 OFFCURVE",
"23 654 OFFCURVE",
"23 413 CURVE SMOOTH"
);
},
{
closed = 1;
nodes = (
"440 899 LINE",
"496 976 LINE",
"293 1152 LINE",
"202 1037 LINE"
);
}
);
width = 877;
},
{
layerId = "7B60DD57-6012-4D0F-BD38-A72A4BAC0E9D";
paths = (
{
closed = 1;
nodes = (
"226 536 OFFCURVE",
"294 659 OFFCURVE",
"439 659 CURVE SMOOTH",
"585 659 OFFCURVE",
"651 536 OFFCURVE",
"651 413 CURVE SMOOTH",
"651 290 OFFCURVE",
"589 167 OFFCURVE",
"439 167 CURVE SMOOTH",
"285 167 OFFCURVE",
"226 290 OFFCURVE",
"226 413 CURVE SMOOTH"
);
},
{
closed = 1;
nodes = (
"23 172 OFFCURVE",
"195 -15 OFFCURVE",
"439 -15 CURVE SMOOTH",
"676 -15 OFFCURVE",
"854 172 OFFCURVE",
"854 413 CURVE SMOOTH",
"854 654 OFFCURVE",
"668 840 OFFCURVE",
"439 840 CURVE SMOOTH",
"212 840 OFFCURVE",
"23 654 OFFCURVE",
"23 413 CURVE SMOOTH"
);
},
{
closed = 1;
nodes = (
"440 899 LINE",
"496 976 LINE",
"293 1152 LINE",
"202 1037 LINE"
);
}
);
width = 877;
},
{
layerId = "3FEB53C4-AE65-4B2F-B735-1C16ECFA7AEE";
paths = (
{
closed = 1;
nodes = (
"196 536 OFFCURVE",
"277 659 OFFCURVE",
"422 659 CURVE SMOOTH",
"568 659 OFFCURVE",
"621 536 OFFCURVE",
"608 413 CURVE SMOOTH",
"595 290 OFFCURVE",
"520 167 OFFCURVE",
"370 167 CURVE SMOOTH",
"216 167 OFFCURVE",
"170 290 OFFCURVE",
"183 413 CURVE SMOOTH"
);
},
{
closed = 1;
nodes = (
"-46 172 OFFCURVE",
"107 -15 OFFCURVE",
"351 -15 CURVE SMOOTH",
"588 -15 OFFCURVE",
"785 172 OFFCURVE",
"811 413 CURVE SMOOTH",
"836 654 OFFCURVE",
"670 840 OFFCURVE",
"441 840 CURVE SMOOTH",
"214 840 OFFCURVE",
"5 654 OFFCURVE",
"-20 413 CURVE SMOOTH"
);
},
{
closed = 1;
nodes = (
"448 899 LINE",
"512 976 LINE",
"327 1152 LINE",
"224 1037 LINE"
);
}
);
width = 877;
}
);
leftKerningGroup = O;
rightKerningGroup = O;
unicode = 00D2;
},
{
glyphname = Ohungarumlaut;
lastChange = "2017-03-22 17:52:50 +0000";
layers = (
{
layerId = "A4E552E4-62BE-43BB-A58F-34F0EE3B77B8";
paths = (
{
closed = 1;
nodes = (
"226 536 OFFCURVE",
"294 659 OFFCURVE",
"439 659 CURVE SMOOTH",
"585 659 OFFCURVE",
"651 536 OFFCURVE",
"651 413 CURVE SMOOTH",
"651 290 OFFCURVE",
"589 167 OFFCURVE",
"439 167 CURVE SMOOTH",
"285 167 OFFCURVE",
"226 290 OFFCURVE",
"226 413 CURVE SMOOTH"
);
},
{
closed = 1;
nodes = (
"23 172 OFFCURVE",
"195 -15 OFFCURVE",
"439 -15 CURVE SMOOTH",
"676 -15 OFFCURVE",
"854 172 OFFCURVE",
"854 413 CURVE SMOOTH",
"854 654 OFFCURVE",
"668 840 OFFCURVE",
"439 840 CURVE SMOOTH",
"212 840 OFFCURVE",
"23 654 OFFCURVE",
"23 413 CURVE SMOOTH"
);
},
{
closed = 1;
nodes = (
"486 1068 LINE",
"404 1172 LINE",
"231 976 LINE",
"287 899 LINE"
);
},
{
closed = 1;
nodes = (
"697 1068 LINE",
"615 1172 LINE",
"442 976 LINE",
"498 899 LINE"
);
}
);
width = 877;
},
{
layerId = "7B60DD57-6012-4D0F-BD38-A72A4BAC0E9D";
paths = (
{
closed = 1;
nodes = (
"226 536 OFFCURVE",
"294 659 OFFCURVE",
"439 659 CURVE SMOOTH",
"585 659 OFFCURVE",
"651 536 OFFCURVE",
"651 413 CURVE SMOOTH",
"651 290 OFFCURVE",
"589 167 OFFCURVE",
"439 167 CURVE SMOOTH",
"285 167 OFFCURVE",
"226 290 OFFCURVE",
"226 413 CURVE SMOOTH"
);
},
{
closed = 1;
nodes = (
"23 172 OFFCURVE",
"195 -15 OFFCURVE",
"439 -15 CURVE SMOOTH",
"676 -15 OFFCURVE",
"854 172 OFFCURVE",
"854 413 CURVE SMOOTH",
"854 654 OFFCURVE",
"668 840 OFFCURVE",
"439 840 CURVE SMOOTH",
"212 840 OFFCURVE",
"23 654 OFFCURVE",
"23 413 CURVE SMOOTH"
);
},
{
closed = 1;
nodes = (
"486 1068 LINE",
"404 1172 LINE",
"231 976 LINE",
"287 899 LINE"
);
},
{
closed = 1;
nodes = (
"697 1068 LINE",
"615 1172 LINE",
"442 976 LINE",
"498 899 LINE"
);
}
);
width = 877;
},
{
layerId = "3FEB53C4-AE65-4B2F-B735-1C16ECFA7AEE";
paths = (
{
closed = 1;
nodes = (
"196 536 OFFCURVE",
"277 659 OFFCURVE",
"422 659 CURVE SMOOTH",
"568 659 OFFCURVE",
"621 536 OFFCURVE",
"608 413 CURVE SMOOTH",
"595 290 OFFCURVE",
"520 167 OFFCURVE",
"370 167 CURVE SMOOTH",
"216 167 OFFCURVE",
"170 290 OFFCURVE",
"183 413 CURVE SMOOTH"
);
},
{
closed = 1;
nodes = (
"-46 172 OFFCURVE",
"107 -15 OFFCURVE",
"351 -15 CURVE SMOOTH",
"588 -15 OFFCURVE",
"785 172 OFFCURVE",
"811 413 CURVE SMOOTH",
"836 654 OFFCURVE",
"670 840 OFFCURVE",
"441 840 CURVE SMOOTH",
"214 840 OFFCURVE",
"5 654 OFFCURVE",
"-20 413 CURVE SMOOTH"
);
},
{
closed = 1;
nodes = (
"512 1068 LINE",
"440 1172 LINE",
"247 976 LINE",
"295 899 LINE"
);
},
{
closed = 1;
nodes = (
"723 1068 LINE",
"651 1172 LINE",
"458 976 LINE",
"506 899 LINE"
);
}
);
width = 877;
}
);
leftKerningGroup = O;
rightKerningGroup = O;
unicode = 0150;
},
{
glyphname = Omacron;
lastChange = "2017-03-22 17:52:50 +0000";
layers = (
{
layerId = "A4E552E4-62BE-43BB-A58F-34F0EE3B77B8";
paths = (
{
closed = 1;
nodes = (
"226 536 OFFCURVE",
"294 659 OFFCURVE",
"439 659 CURVE SMOOTH",
"585 659 OFFCURVE",
"651 536 OFFCURVE",
"651 413 CURVE SMOOTH",
"651 290 OFFCURVE",
"589 167 OFFCURVE",
"439 167 CURVE SMOOTH",
"285 167 OFFCURVE",
"226 290 OFFCURVE",
"226 413 CURVE SMOOTH"
);
},
{
closed = 1;
nodes = (
"23 172 OFFCURVE",
"195 -15 OFFCURVE",
"439 -15 CURVE SMOOTH",
"676 -15 OFFCURVE",
"854 172 OFFCURVE",
"854 413 CURVE SMOOTH",
"854 654 OFFCURVE",
"668 840 OFFCURVE",
"439 840 CURVE SMOOTH",
"212 840 OFFCURVE",
"23 654 OFFCURVE",
"23 413 CURVE SMOOTH"
);
},
{
closed = 1;
nodes = (
"642 946 LINE",
"642 1066 LINE",
"234 1066 LINE",
"234 946 LINE"
);
}
);
width = 877;
},
{
layerId = "7B60DD57-6012-4D0F-BD38-A72A4BAC0E9D";
paths = (
{
closed = 1;
nodes = (
"226 536 OFFCURVE",
"294 659 OFFCURVE",
"439 659 CURVE SMOOTH",
"585 659 OFFCURVE",
"651 536 OFFCURVE",
"651 413 CURVE SMOOTH",
"651 290 OFFCURVE",
"589 167 OFFCURVE",
"439 167 CURVE SMOOTH",
"285 167 OFFCURVE",
"226 290 OFFCURVE",
"226 413 CURVE SMOOTH"
);
},
{
closed = 1;
nodes = (
"23 172 OFFCURVE",
"195 -15 OFFCURVE",
"439 -15 CURVE SMOOTH",
"676 -15 OFFCURVE",
"854 172 OFFCURVE",
"854 413 CURVE SMOOTH",
"854 654 OFFCURVE",
"668 840 OFFCURVE",
"439 840 CURVE SMOOTH",
"212 840 OFFCURVE",
"23 654 OFFCURVE",
"23 413 CURVE SMOOTH"
);
},
{
closed = 1;
nodes = (
"642 946 LINE",
"642 1066 LINE",
"234 1066 LINE",
"234 946 LINE"
);
}
);
width = 877;
},
{
layerId = "3FEB53C4-AE65-4B2F-B735-1C16ECFA7AEE";
paths = (
{
closed = 1;
nodes = (
"196 536 OFFCURVE",
"277 659 OFFCURVE",
"422 659 CURVE SMOOTH",
"568 659 OFFCURVE",
"621 536 OFFCURVE",
"608 413 CURVE SMOOTH",
"595 290 OFFCURVE",
"520 167 OFFCURVE",
"370 167 CURVE SMOOTH",
"216 167 OFFCURVE",
"170 290 OFFCURVE",
"183 413 CURVE SMOOTH"
);
},
{
closed = 1;
nodes = (
"-46 172 OFFCURVE",
"107 -15 OFFCURVE",
"351 -15 CURVE SMOOTH",
"588 -15 OFFCURVE",
"785 172 OFFCURVE",
"811 413 CURVE SMOOTH",
"836 654 OFFCURVE",
"670 840 OFFCURVE",
"441 840 CURVE SMOOTH",
"214 840 OFFCURVE",
"5 654 OFFCURVE",
"-20 413 CURVE SMOOTH"
);
},
{
closed = 1;
nodes = (
"655 946 LINE",
"667 1066 LINE",
"259 1066 LINE",
"247 946 LINE"
);
}
);
width = 877;
}
);
leftKerningGroup = O;
rightKerningGroup = O;
unicode = 014C;
},
{
glyphname = Oslash;
lastChange = "2017-03-22 17:52:50 +0000";
layers = (
{
layerId = "A4E552E4-62BE-43BB-A58F-34F0EE3B77B8";
paths = (
{
closed = 1;
nodes = (
"67 59 LINE",
"179 -27 LINE",
"230 38 LINE",
"290 4 OFFCURVE",
"361 -15 OFFCURVE",
"439 -15 CURVE SMOOTH",
"676 -15 OFFCURVE",
"854 172 OFFCURVE",
"854 413 CURVE SMOOTH",
"854 522 OFFCURVE",
"815 620 OFFCURVE",
"752 694 CURVE",
"810 767 LINE",
"698 853 LINE",
"644 785 LINE",
"583 820 OFFCURVE",
"513 840 OFFCURVE",
"439 840 CURVE SMOOTH",
"212 840 OFFCURVE",
"23 654 OFFCURVE",
"23 413 CURVE SMOOTH",
"23 302 OFFCURVE",
"59 203 OFFCURVE",
"122 128 CURVE"
);
},
{
closed = 1;
nodes = (
"651 290 OFFCURVE",
"589 167 OFFCURVE",
"439 167 CURVE SMOOTH",
"403 167 OFFCURVE",
"373 173 OFFCURVE",
"347 185 CURVE",
"626 536 LINE",
"643 498 OFFCURVE",
"651 455 OFFCURVE",
"651 413 CURVE SMOOTH"
);
},
{
closed = 1;
nodes = (
"226 536 OFFCURVE",
"294 659 OFFCURVE",
"439 659 CURVE SMOOTH",
"473 659 OFFCURVE",
"503 652 OFFCURVE",
"528 640 CURVE",
"249 288 LINE",
"233 326 OFFCURVE",
"226 370 OFFCURVE",
"226 413 CURVE SMOOTH"
);
}
);
width = 877;
},
{
layerId = "7B60DD57-6012-4D0F-BD38-A72A4BAC0E9D";
paths = (
{
closed = 1;
nodes = (
"67 59 LINE",
"179 -27 LINE",
"230 38 LINE",
"290 4 OFFCURVE",
"361 -15 OFFCURVE",
"439 -15 CURVE SMOOTH",
"676 -15 OFFCURVE",
"854 172 OFFCURVE",
"854 413 CURVE SMOOTH",
"854 522 OFFCURVE",
"815 620 OFFCURVE",
"752 694 CURVE",
"810 767 LINE",
"698 853 LINE",
"644 785 LINE",
"583 820 OFFCURVE",
"513 840 OFFCURVE",
"439 840 CURVE SMOOTH",
"212 840 OFFCURVE",
"23 654 OFFCURVE",
"23 413 CURVE SMOOTH",
"23 302 OFFCURVE",
"59 203 OFFCURVE",
"122 128 CURVE"
);
},
{
closed = 1;
nodes = (
"651 290 OFFCURVE",
"589 167 OFFCURVE",
"439 167 CURVE SMOOTH",
"403 167 OFFCURVE",
"373 173 OFFCURVE",
"347 185 CURVE",
"626 536 LINE",
"643 498 OFFCURVE",
"651 455 OFFCURVE",
"651 413 CURVE SMOOTH"
);
},
{
closed = 1;
nodes = (
"226 536 OFFCURVE",
"294 659 OFFCURVE",
"439 659 CURVE SMOOTH",
"473 659 OFFCURVE",
"503 652 OFFCURVE",
"528 640 CURVE",
"249 288 LINE",
"233 326 OFFCURVE",
"226 370 OFFCURVE",
"226 413 CURVE SMOOTH"
);
}
);
width = 877;
},
{
layerId = "3FEB53C4-AE65-4B2F-B735-1C16ECFA7AEE";
paths = (
{
closed = 1;
nodes = (
"-14 59 LINE",
"89 -27 LINE",
"147 38 LINE",
"204 4 OFFCURVE",
"273 -15 OFFCURVE",
"351 -15 CURVE SMOOTH",
"588 -15 OFFCURVE",
"785 172 OFFCURVE",
"811 413 CURVE SMOOTH",
"822 522 OFFCURVE",
"793 620 OFFCURVE",
"738 694 CURVE",
"804 767 LINE",
"701 853 LINE",
"640 785 LINE",
"582 820 OFFCURVE",
"515 840 OFFCURVE",
"441 840 CURVE SMOOTH",
"214 840 OFFCURVE",
"5 654 OFFCURVE",
"-20 413 CURVE SMOOTH",
"-32 302 OFFCURVE",
"-6 203 OFFCURVE",
"49 128 CURVE"
);
},
{
closed = 1;
nodes = (
"595 290 OFFCURVE",
"520 167 OFFCURVE",
"370 167 CURVE SMOOTH",
"334 167 OFFCURVE",
"304 173 OFFCURVE",
"280 185 CURVE",
"596 536 LINE",
"609 498 OFFCURVE",
"612 455 OFFCURVE",
"608 413 CURVE SMOOTH"
);
},
{
closed = 1;
nodes = (
"196 536 OFFCURVE",
"277 659 OFFCURVE",
"422 659 CURVE SMOOTH",
"456 659 OFFCURVE",
"485 652 OFFCURVE",
"509 640 CURVE",
"193 288 LINE",
"181 326 OFFCURVE",
"178 370 OFFCURVE",
"183 413 CURVE SMOOTH"
);
}
);
width = 877;
}
);
leftKerningGroup = O;
rightKerningGroup = O;
unicode = 00D8;
},
{
glyphname = Otilde;
lastChange = "2017-03-22 17:52:50 +0000";
layers = (
{
layerId = "A4E552E4-62BE-43BB-A58F-34F0EE3B77B8";
paths = (
{
closed = 1;
nodes = (
"226 536 OFFCURVE",
"294 659 OFFCURVE",
"439 659 CURVE SMOOTH",
"585 659 OFFCURVE",
"651 536 OFFCURVE",
"651 413 CURVE SMOOTH",
"651 290 OFFCURVE",
"589 167 OFFCURVE",
"439 167 CURVE SMOOTH",
"285 167 OFFCURVE",
"226 290 OFFCURVE",
"226 413 CURVE SMOOTH"
);
},
{
closed = 1;
nodes = (
"23 172 OFFCURVE",
"195 -15 OFFCURVE",
"439 -15 CURVE SMOOTH",
"676 -15 OFFCURVE",
"854 172 OFFCURVE",
"854 413 CURVE SMOOTH",
"854 654 OFFCURVE",
"668 840 OFFCURVE",
"439 840 CURVE SMOOTH",
"212 840 OFFCURVE",
"23 654 OFFCURVE",
"23 413 CURVE SMOOTH"
);
},
{
closed = 1;
nodes = (
"429 954 OFFCURVE",
"494 927 OFFCURVE",
"533 927 CURVE SMOOTH",
"643 927 OFFCURVE",
"669 1099 OFFCURVE",
"669 1099 CURVE SMOOTH",
"568 1099 LINE SMOOTH",
"568 1099 OFFCURVE",
"555 1053 OFFCURVE",
"523 1053 CURVE SMOOTH",
"487 1053 OFFCURVE",
"447 1072 OFFCURVE",
"447 1072 CURVE SMOOTH",
"447 1072 OFFCURVE",
"382 1099 OFFCURVE",
"343 1099 CURVE SMOOTH",
"233 1099 OFFCURVE",
"207 927 OFFCURVE",
"207 927 CURVE",
"308 927 LINE",
"308 927 OFFCURVE",
"321 973 OFFCURVE",
"353 973 CURVE SMOOTH",
"389 973 OFFCURVE",
"429 954 OFFCURVE",
"429 954 CURVE SMOOTH"
);
}
);
width = 877;
},
{
layerId = "7B60DD57-6012-4D0F-BD38-A72A4BAC0E9D";
paths = (
{
closed = 1;
nodes = (
"226 536 OFFCURVE",
"294 659 OFFCURVE",
"439 659 CURVE SMOOTH",
"585 659 OFFCURVE",
"651 536 OFFCURVE",
"651 413 CURVE SMOOTH",
"651 290 OFFCURVE",
"589 167 OFFCURVE",
"439 167 CURVE SMOOTH",
"285 167 OFFCURVE",
"226 290 OFFCURVE",
"226 413 CURVE SMOOTH"
);
},
{
closed = 1;
nodes = (
"23 172 OFFCURVE",
"195 -15 OFFCURVE",
"439 -15 CURVE SMOOTH",
"676 -15 OFFCURVE",
"854 172 OFFCURVE",
"854 413 CURVE SMOOTH",
"854 654 OFFCURVE",
"668 840 OFFCURVE",
"439 840 CURVE SMOOTH",
"212 840 OFFCURVE",
"23 654 OFFCURVE",
"23 413 CURVE SMOOTH"
);
},
{
closed = 1;
nodes = (
"429 954 OFFCURVE",
"494 927 OFFCURVE",
"533 927 CURVE SMOOTH",
"643 927 OFFCURVE",
"669 1099 OFFCURVE",
"669 1099 CURVE SMOOTH",
"568 1099 LINE SMOOTH",
"568 1099 OFFCURVE",
"555 1053 OFFCURVE",
"523 1053 CURVE SMOOTH",
"487 1053 OFFCURVE",
"447 1072 OFFCURVE",
"447 1072 CURVE SMOOTH",
"447 1072 OFFCURVE",
"382 1099 OFFCURVE",
"343 1099 CURVE SMOOTH",
"233 1099 OFFCURVE",
"207 927 OFFCURVE",
"207 927 CURVE",
"308 927 LINE",
"308 927 OFFCURVE",
"321 973 OFFCURVE",
"353 973 CURVE SMOOTH",
"389 973 OFFCURVE",
"429 954 OFFCURVE",
"429 954 CURVE SMOOTH"
);
}
);
width = 877;
},
{
layerId = "3FEB53C4-AE65-4B2F-B735-1C16ECFA7AEE";
paths = (
{
closed = 1;
nodes = (
"196 536 OFFCURVE",
"277 659 OFFCURVE",
"422 659 CURVE SMOOTH",
"568 659 OFFCURVE",
"621 536 OFFCURVE",
"608 413 CURVE SMOOTH",
"595 290 OFFCURVE",
"520 167 OFFCURVE",
"370 167 CURVE SMOOTH",
"216 167 OFFCURVE",
"170 290 OFFCURVE",
"183 413 CURVE SMOOTH"
);
},
{
closed = 1;
nodes = (
"-46 172 OFFCURVE",
"107 -15 OFFCURVE",
"351 -15 CURVE SMOOTH",
"588 -15 OFFCURVE",
"785 172 OFFCURVE",
"811 413 CURVE SMOOTH",
"836 654 OFFCURVE",
"670 840 OFFCURVE",
"441 840 CURVE SMOOTH",
"214 840 OFFCURVE",
"5 654 OFFCURVE",
"-20 413 CURVE SMOOTH"
);
},
{
closed = 1;
nodes = (
"443 954 OFFCURVE",
"505 927 OFFCURVE",
"544 927 CURVE SMOOTH",
"654 927 OFFCURVE",
"698 1099 OFFCURVE",
"698 1099 CURVE SMOOTH",
"597 1099 LINE SMOOTH",
"597 1099 OFFCURVE",
"579 1053 OFFCURVE",
"547 1053 CURVE SMOOTH",
"511 1053 OFFCURVE",
"473 1072 OFFCURVE",
"473 1072 CURVE SMOOTH",
"473 1072 OFFCURVE",
"411 1099 OFFCURVE",
"372 1099 CURVE SMOOTH",
"262 1099 OFFCURVE",
"218 927 OFFCURVE",
"218 927 CURVE",
"319 927 LINE",
"319 927 OFFCURVE",
"337 973 OFFCURVE",
"369 973 CURVE SMOOTH",
"405 973 OFFCURVE",
"443 954 OFFCURVE",
"443 954 CURVE SMOOTH"
);
}
);
width = 877;
}
);
leftKerningGroup = O;
rightKerningGroup = O;
unicode = 00D5;
},
{
glyphname = OE;
lastChange = "2017-03-22 17:52:50 +0000";
layers = (
{
layerId = "A4E552E4-62BE-43BB-A58F-34F0EE3B77B8";
paths = (
{
closed = 1;
nodes = (
"962 825 LINE",
"439 825 LINE SMOOTH",
"212 825 OFFCURVE",
"23 653 OFFCURVE",
"23 412 CURVE SMOOTH",
"23 171 OFFCURVE",
"212 0 OFFCURVE",
"439 0 CURVE SMOOTH",
"962 0 LINE",
"962 165 LINE",
"678 165 LINE",
"678 331 LINE",
"950 331 LINE",
"950 496 LINE",
"678 496 LINE",
"678 660 LINE",
"962 660 LINE"
);
},
{
closed = 1;
nodes = (
"490 657 LINE",
"490 168 LINE",
"461 168 LINE SMOOTH",
"321 168 OFFCURVE",
"226 275 OFFCURVE",
"226 413 CURVE SMOOTH",
"226 550 OFFCURVE",
"321 657 OFFCURVE",
"461 657 CURVE SMOOTH"
);
}
);
width = 1010;
},
{
layerId = "7B60DD57-6012-4D0F-BD38-A72A4BAC0E9D";
paths = (
{
closed = 1;
nodes = (
"962 825 LINE",
"439 825 LINE SMOOTH",
"212 825 OFFCURVE",
"23 653 OFFCURVE",
"23 412 CURVE SMOOTH",
"23 171 OFFCURVE",
"212 0 OFFCURVE",
"439 0 CURVE SMOOTH",
"962 0 LINE",
"962 165 LINE",
"678 165 LINE",
"678 331 LINE",
"950 331 LINE",
"950 496 LINE",
"678 496 LINE",
"678 660 LINE",
"962 660 LINE"
);
},
{
closed = 1;
nodes = (
"490 657 LINE",
"490 168 LINE",
"461 168 LINE SMOOTH",
"321 168 OFFCURVE",
"226 275 OFFCURVE",
"226 413 CURVE SMOOTH",
"226 550 OFFCURVE",
"321 657 OFFCURVE",
"461 657 CURVE SMOOTH"
);
}
);
width = 1010;
},
{
layerId = "3FEB53C4-AE65-4B2F-B735-1C16ECFA7AEE";
paths = (
{
closed = 1;
nodes = (
"962 825 LINE",
"439 825 LINE SMOOTH",
"212 825 OFFCURVE",
"5 653 OFFCURVE",
"-20 412 CURVE SMOOTH",
"-46 171 OFFCURVE",
"125 0 OFFCURVE",
"352 0 CURVE SMOOTH",
"875 0 LINE",
"893 165 LINE",
"609 165 LINE",
"626 331 LINE",
"898 331 LINE",
"915 496 LINE",
"643 496 LINE",
"661 660 LINE",
"945 660 LINE"
);
},
{
closed = 1;
nodes = (
"472 657 LINE",
"421 168 LINE",
"392 168 LINE SMOOTH",
"252 168 OFFCURVE",
"168 275 OFFCURVE",
"183 413 CURVE SMOOTH",
"197 550 OFFCURVE",
"303 657 OFFCURVE",
"443 657 CURVE SMOOTH"
);
}
);
width = 1010;
}
);
rightKerningGroup = d;
unicode = 0152;
},
{
glyphname = P;
lastChange = "2017-03-22 17:52:50 +0000";
layers = (
{
layerId = "A4E552E4-62BE-43BB-A58F-34F0EE3B77B8";
paths = (
{
closed = 1;
nodes = (
"60 0 LINE",
"248 0 LINE",
"248 306 LINE",
"361 306 LINE SMOOTH",
"522 306 OFFCURVE",
"643 401 OFFCURVE",
"643 571 CURVE SMOOTH",
"643 742 OFFCURVE",
"522 825 OFFCURVE",
"361 825 CURVE SMOOTH",
"60 825 LINE"
);
},
{
closed = 1;
nodes = (
"248 675 LINE",
"301 675 LINE SMOOTH",
"375 675 OFFCURVE",
"445 650 OFFCURVE",
"445 565 CURVE SMOOTH",
"445 481 OFFCURVE",
"375 456 OFFCURVE",
"301 456 CURVE SMOOTH",
"248 456 LINE"
);
}
);
width = 666;
},
{
layerId = "7B60DD57-6012-4D0F-BD38-A72A4BAC0E9D";
paths = (
{
closed = 1;
nodes = (
"70 0 LINE",
"138 0 LINE",
"138 336 LINE",
"271 336 LINE SMOOTH",
"432 336 OFFCURVE",
"543 414 OFFCURVE",
"543 584 CURVE SMOOTH",
"543 755 OFFCURVE",
"432 825 OFFCURVE",
"271 825 CURVE SMOOTH",
"70 825 LINE"
);
},
{
closed = 1;
nodes = (
"138 760 LINE",
"251 760 LINE SMOOTH",
"355 760 OFFCURVE",
"479 734 OFFCURVE",
"479 584 CURVE SMOOTH",
"479 432 OFFCURVE",
"355 401 OFFCURVE",
"251 401 CURVE SMOOTH",
"138 401 LINE"
);
}
);
width = 566;
},
{
layerId = "3FEB53C4-AE65-4B2F-B735-1C16ECFA7AEE";
paths = (
{
closed = 1;
nodes = (
"-27 0 LINE",
"161 0 LINE",
"193 306 LINE",
"306 306 LINE SMOOTH",
"467 306 OFFCURVE",
"598 401 OFFCURVE",
"616 571 CURVE SMOOTH",
"634 742 OFFCURVE",
"522 825 OFFCURVE",
"361 825 CURVE SMOOTH",
"60 825 LINE"
);
},
{
closed = 1;
nodes = (
"232 675 LINE",
"285 675 LINE SMOOTH",
"359 675 OFFCURVE",
"427 650 OFFCURVE",
"418 565 CURVE SMOOTH",
"409 481 OFFCURVE",
"336 456 OFFCURVE",
"262 456 CURVE SMOOTH",
"209 456 LINE"
);
}
);
width = 666;
}
);
rightKerningGroup = d;
unicode = 0050;
},
{
glyphname = Thorn;
lastChange = "2017-03-22 17:52:50 +0000";
layers = (
{
layerId = "A4E552E4-62BE-43BB-A58F-34F0EE3B77B8";
paths = (
{
closed = 1;
nodes = (
"60 0 LINE",
"248 0 LINE",
"248 153 LINE",
"361 153 LINE SMOOTH",
"522 153 OFFCURVE",
"643 248 OFFCURVE",
"643 418 CURVE SMOOTH",
"643 589 OFFCURVE",
"522 672 OFFCURVE",
"361 672 CURVE SMOOTH",
"248 672 LINE",
"248 825 LINE",
"60 825 LINE"
);
},
{
closed = 1;
nodes = (
"248 522 LINE",
"301 522 LINE SMOOTH",
"375 522 OFFCURVE",
"440 496 OFFCURVE",
"440 412 CURVE SMOOTH",
"440 329 OFFCURVE",
"375 303 OFFCURVE",
"301 303 CURVE SMOOTH",
"248 303 LINE"
);
}
);
width = 666;
},
{
layerId = "7B60DD57-6012-4D0F-BD38-A72A4BAC0E9D";
paths = (
{
closed = 1;
nodes = (
"60 0 LINE",
"248 0 LINE",
"248 153 LINE",
"361 153 LINE SMOOTH",
"522 153 OFFCURVE",
"643 248 OFFCURVE",
"643 418 CURVE SMOOTH",
"643 589 OFFCURVE",
"522 672 OFFCURVE",
"361 672 CURVE SMOOTH",
"248 672 LINE",
"248 825 LINE",
"60 825 LINE"
);
},
{
closed = 1;
nodes = (
"248 522 LINE",
"301 522 LINE SMOOTH",
"375 522 OFFCURVE",
"440 496 OFFCURVE",
"440 412 CURVE SMOOTH",
"440 329 OFFCURVE",
"375 303 OFFCURVE",
"301 303 CURVE SMOOTH",
"248 303 LINE"
);
}
);
width = 666;
},
{
layerId = "3FEB53C4-AE65-4B2F-B735-1C16ECFA7AEE";
paths = (
{
closed = 1;
nodes = (
"-27 0 LINE",
"161 0 LINE",
"177 153 LINE",
"290 153 LINE SMOOTH",
"451 153 OFFCURVE",
"582 248 OFFCURVE",
"600 418 CURVE SMOOTH",
"618 589 OFFCURVE",
"506 672 OFFCURVE",
"345 672 CURVE SMOOTH",
"232 672 LINE",
"248 825 LINE",
"60 825 LINE"
);
},
{
closed = 1;
nodes = (
"216 522 LINE",
"269 522 LINE SMOOTH",
"343 522 OFFCURVE",
"405 496 OFFCURVE",
"397 412 CURVE SMOOTH",
"388 329 OFFCURVE",
"320 303 OFFCURVE",
"246 303 CURVE SMOOTH",
"193 303 LINE"
);
}
);
width = 666;
}
);
rightKerningGroup = d;
unicode = 00DE;
},
{
glyphname = Q;
lastChange = "2017-03-22 17:52:50 +0000";
layers = (
{
layerId = "A4E552E4-62BE-43BB-A58F-34F0EE3B77B8";
paths = (
{
closed = 1;
nodes = (
"226 536 OFFCURVE",
"294 659 OFFCURVE",
"439 659 CURVE SMOOTH",
"585 659 OFFCURVE",
"651 536 OFFCURVE",
"651 413 CURVE SMOOTH",
"651 290 OFFCURVE",
"589 167 OFFCURVE",
"439 167 CURVE SMOOTH",
"285 167 OFFCURVE",
"226 290 OFFCURVE",
"226 413 CURVE SMOOTH"
);
},
{
closed = 1;
nodes = (
"23 172 OFFCURVE",
"195 -15 OFFCURVE",
"439 -15 CURVE SMOOTH",
"676 -15 OFFCURVE",
"854 172 OFFCURVE",
"854 413 CURVE SMOOTH",
"854 654 OFFCURVE",
"668 840 OFFCURVE",
"439 840 CURVE SMOOTH",
"212 840 OFFCURVE",
"23 654 OFFCURVE",
"23 413 CURVE SMOOTH"
);
},
{
closed = 1;
nodes = (
"655 -104 LINE",
"860 -104 LINE",
"631 288 LINE",
"426 288 LINE"
);
}
);
width = 867;
},
{
layerId = "7B60DD57-6012-4D0F-BD38-A72A4BAC0E9D";
paths = (
{
closed = 1;
nodes = (
"97 649 OFFCURVE",
"244 775 OFFCURVE",
"399 775 CURVE SMOOTH",
"555 775 OFFCURVE",
"700 649 OFFCURVE",
"700 413 CURVE SMOOTH",
"700 177 OFFCURVE",
"559 51 OFFCURVE",
"399 51 CURVE SMOOTH",
"235 51 OFFCURVE",
"97 177 OFFCURVE",
"97 413 CURVE SMOOTH"
);
},
{
closed = 1;
nodes = (
"23 112 OFFCURVE",
"205 -15 OFFCURVE",
"399 -15 CURVE SMOOTH",
"586 -15 OFFCURVE",
"774 112 OFFCURVE",
"774 413 CURVE SMOOTH",
"774 714 OFFCURVE",
"578 840 OFFCURVE",
"399 840 CURVE SMOOTH",
"222 840 OFFCURVE",
"23 714 OFFCURVE",
"23 413 CURVE SMOOTH"
);
},
{
closed = 1;
nodes = (
"670 -104 LINE",
"755 -104 LINE",
"526 288 LINE",
"441 288 LINE"
);
}
);
width = 791;
},
{
layerId = "3FEB53C4-AE65-4B2F-B735-1C16ECFA7AEE";
paths = (
{
closed = 1;
nodes = (
"196 536 OFFCURVE",
"277 659 OFFCURVE",
"422 659 CURVE SMOOTH",
"568 659 OFFCURVE",
"621 536 OFFCURVE",
"608 413 CURVE SMOOTH",
"595 290 OFFCURVE",
"520 167 OFFCURVE",
"370 167 CURVE SMOOTH",
"216 167 OFFCURVE",
"170 290 OFFCURVE",
"183 413 CURVE SMOOTH"
);
},
{
closed = 1;
nodes = (
"-46 172 OFFCURVE",
"107 -15 OFFCURVE",
"351 -15 CURVE SMOOTH",
"588 -15 OFFCURVE",
"785 172 OFFCURVE",
"811 413 CURVE SMOOTH",
"836 654 OFFCURVE",
"670 840 OFFCURVE",
"441 840 CURVE SMOOTH",
"214 840 OFFCURVE",
"5 654 OFFCURVE",
"-20 413 CURVE SMOOTH"
);
},
{
closed = 1;
nodes = (
"557 -104 LINE",
"762 -104 LINE",
"575 288 LINE",
"370 288 LINE"
);
}
);
width = 867;
}
);
rightKerningGroup = d;
unicode = 0051;
},
{
glyphname = R;
lastChange = "2017-03-22 17:52:50 +0000";
layers = (
{
layerId = "A4E552E4-62BE-43BB-A58F-34F0EE3B77B8";
paths = (
{
closed = 1;
nodes = (
"60 0 LINE",
"248 0 LINE",
"248 326 LINE",
"249 326 LINE",
"470 0 LINE",
"709 0 LINE",
"455 341 LINE",
"556 373 OFFCURVE",
"624 456 OFFCURVE",
"624 580 CURVE SMOOTH",
"624 742 OFFCURVE",
"518 825 OFFCURVE",
"365 825 CURVE SMOOTH",
"60 825 LINE"
);
},
{
closed = 1;
nodes = (
"248 675 LINE",
"270 675 LINE SMOOTH",
"341 675 OFFCURVE",
"426 670 OFFCURVE",
"426 567 CURVE SMOOTH",
"426 464 OFFCURVE",
"341 459 OFFCURVE",
"270 459 CURVE SMOOTH",
"248 459 LINE"
);
}
);
width = 716;
},
{
layerId = "7B60DD57-6012-4D0F-BD38-A72A4BAC0E9D";
paths = (
{
closed = 1;
nodes = (
"60 0 LINE",
"128 0 LINE",
"128 356 LINE",
"255 356 LINE",
"479 0 LINE",
"559 0 LINE",
"332 362 LINE",
"390 369 OFFCURVE",
"534 418 OFFCURVE",
"534 595 CURVE SMOOTH",
"534 762 OFFCURVE",
"424 825 OFFCURVE",
"265 825 CURVE SMOOTH",
"60 825 LINE"
);
},
{
closed = 1;
nodes = (
"128 760 LINE",
"262 760 LINE SMOOTH",
"394 760 OFFCURVE",
"471 707 OFFCURVE",
"471 594 CURVE SMOOTH",
"471 481 OFFCURVE",
"394 419 OFFCURVE",
"265 419 CURVE SMOOTH",
"128 419 LINE"
);
}
);
width = 579;
},
{
layerId = "3FEB53C4-AE65-4B2F-B735-1C16ECFA7AEE";
paths = (
{
closed = 1;
nodes = (
"-27 0 LINE",
"161 0 LINE",
"196 326 LINE",
"197 326 LINE",
"383 0 LINE",
"622 0 LINE",
"404 341 LINE",
"508 373 OFFCURVE",
"585 456 OFFCURVE",
"598 580 CURVE SMOOTH",
"615 742 OFFCURVE",
"518 825 OFFCURVE",
"365 825 CURVE SMOOTH",
"60 825 LINE"
);
},
{
closed = 1;
nodes = (
"232 675 LINE",
"254 675 LINE SMOOTH",
"325 675 OFFCURVE",
"410 670 OFFCURVE",
"399 567 CURVE SMOOTH",
"388 464 OFFCURVE",
"303 459 OFFCURVE",
"232 459 CURVE SMOOTH",
"210 459 LINE"
);
}
);
width = 716;
}
);
rightKerningGroup = R;
unicode = 0052;
},
{
glyphname = Racute;
lastChange = "2017-03-22 17:52:50 +0000";
layers = (
{
layerId = "A4E552E4-62BE-43BB-A58F-34F0EE3B77B8";
paths = (
{
closed = 1;
nodes = (
"60 0 LINE",
"248 0 LINE",
"248 326 LINE",
"500 0 LINE",
"739 0 LINE",
"455 341 LINE",
"556 373 OFFCURVE",
"624 456 OFFCURVE",
"624 580 CURVE SMOOTH",
"624 742 OFFCURVE",
"508 825 OFFCURVE",
"355 825 CURVE SMOOTH",
"60 825 LINE"
);
},
{
closed = 1;
nodes = (
"248 675 LINE",
"270 675 LINE SMOOTH",
"341 675 OFFCURVE",
"426 670 OFFCURVE",
"426 567 CURVE SMOOTH",
"426 464 OFFCURVE",
"341 459 OFFCURVE",
"270 459 CURVE SMOOTH",
"248 459 LINE"
);
},
{
closed = 1;
nodes = (
"505 1037 LINE",
"414 1152 LINE",
"211 976 LINE",
"267 899 LINE"
);
}
);
width = 716;
},
{
layerId = "7B60DD57-6012-4D0F-BD38-A72A4BAC0E9D";
paths = (
{
closed = 1;
nodes = (
"60 0 LINE",
"248 0 LINE",
"248 326 LINE",
"500 0 LINE",
"739 0 LINE",
"455 341 LINE",
"556 373 OFFCURVE",
"624 456 OFFCURVE",
"624 580 CURVE SMOOTH",
"624 742 OFFCURVE",
"508 825 OFFCURVE",
"355 825 CURVE SMOOTH",
"60 825 LINE"
);
},
{
closed = 1;
nodes = (
"248 675 LINE",
"270 675 LINE SMOOTH",
"341 675 OFFCURVE",
"426 670 OFFCURVE",
"426 567 CURVE SMOOTH",
"426 464 OFFCURVE",
"341 459 OFFCURVE",
"270 459 CURVE SMOOTH",
"248 459 LINE"
);
},
{
closed = 1;
nodes = (
"505 1037 LINE",
"414 1152 LINE",
"211 976 LINE",
"267 899 LINE"
);
}
);
width = 716;
},
{
layerId = "3FEB53C4-AE65-4B2F-B735-1C16ECFA7AEE";
paths = (
{
closed = 1;
nodes = (
"-27 0 LINE",
"161 0 LINE",
"196 326 LINE",
"413 0 LINE",
"652 0 LINE",
"404 341 LINE",
"508 373 OFFCURVE",
"585 456 OFFCURVE",
"598 580 CURVE SMOOTH",
"615 742 OFFCURVE",
"508 825 OFFCURVE",
"355 825 CURVE SMOOTH",
"60 825 LINE"
);
},
{
closed = 1;
nodes = (
"232 675 LINE",
"254 675 LINE SMOOTH",
"325 675 OFFCURVE",
"410 670 OFFCURVE",
"399 567 CURVE SMOOTH",
"388 464 OFFCURVE",
"303 459 OFFCURVE",
"232 459 CURVE SMOOTH",
"210 459 LINE"
);
},
{
closed = 1;
nodes = (
"527 1037 LINE",
"448 1152 LINE",
"227 976 LINE",
"275 899 LINE"
);
}
);
width = 716;
}
);
rightKerningGroup = R;
unicode = 0154;
},
{
glyphname = Rcaron;
lastChange = "2017-03-22 17:52:50 +0000";
layers = (
{
layerId = "A4E552E4-62BE-43BB-A58F-34F0EE3B77B8";
paths = (
{
closed = 1;
nodes = (
"60 0 LINE",
"248 0 LINE",
"248 326 LINE",
"500 0 LINE",
"739 0 LINE",
"455 341 LINE",
"556 373 OFFCURVE",
"624 456 OFFCURVE",
"624 580 CURVE SMOOTH",
"624 742 OFFCURVE",
"508 825 OFFCURVE",
"355 825 CURVE SMOOTH",
"60 825 LINE"
);
},
{
closed = 1;
nodes = (
"248 675 LINE",
"270 675 LINE SMOOTH",
"341 675 OFFCURVE",
"426 670 OFFCURVE",
"426 567 CURVE SMOOTH",
"426 464 OFFCURVE",
"341 459 OFFCURVE",
"270 459 CURVE SMOOTH",
"248 459 LINE"
);
},
{
closed = 1;
nodes = (
"324 899 LINE",
"545 1061 LINE",
"477 1152 LINE",
"324 1040 LINE",
"171 1152 LINE",
"103 1061 LINE"
);
}
);
width = 716;
},
{
layerId = "7B60DD57-6012-4D0F-BD38-A72A4BAC0E9D";
paths = (
{
closed = 1;
nodes = (
"60 0 LINE",
"248 0 LINE",
"248 326 LINE",
"500 0 LINE",
"739 0 LINE",
"455 341 LINE",
"556 373 OFFCURVE",
"624 456 OFFCURVE",
"624 580 CURVE SMOOTH",
"624 742 OFFCURVE",
"508 825 OFFCURVE",
"355 825 CURVE SMOOTH",
"60 825 LINE"
);
},
{
closed = 1;
nodes = (
"248 675 LINE",
"270 675 LINE SMOOTH",
"341 675 OFFCURVE",
"426 670 OFFCURVE",
"426 567 CURVE SMOOTH",
"426 464 OFFCURVE",
"341 459 OFFCURVE",
"270 459 CURVE SMOOTH",
"248 459 LINE"
);
},
{
closed = 1;
nodes = (
"324 899 LINE",
"545 1061 LINE",
"477 1152 LINE",
"324 1040 LINE",
"171 1152 LINE",
"103 1061 LINE"
);
}
);
width = 716;
},
{
layerId = "3FEB53C4-AE65-4B2F-B735-1C16ECFA7AEE";
paths = (
{
closed = 1;
nodes = (
"-27 0 LINE",
"161 0 LINE",
"196 326 LINE",
"413 0 LINE",
"652 0 LINE",
"404 341 LINE",
"508 373 OFFCURVE",
"585 456 OFFCURVE",
"598 580 CURVE SMOOTH",
"615 742 OFFCURVE",
"508 825 OFFCURVE",
"355 825 CURVE SMOOTH",
"60 825 LINE"
);
},
{
closed = 1;
nodes = (
"232 675 LINE",
"254 675 LINE SMOOTH",
"325 675 OFFCURVE",
"410 670 OFFCURVE",
"399 567 CURVE SMOOTH",
"388 464 OFFCURVE",
"303 459 OFFCURVE",
"232 459 CURVE SMOOTH",
"210 459 LINE"
);
},
{
closed = 1;
nodes = (
"332 899 LINE",
"570 1061 LINE",
"511 1152 LINE",
"347 1040 LINE",
"205 1152 LINE",
"128 1061 LINE"
);
}
);
width = 716;
}
);
rightKerningGroup = R;
unicode = 0158;
},
{
glyphname = Rcommaaccent;
lastChange = "2017-03-22 17:52:50 +0000";
layers = (
{
layerId = "A4E552E4-62BE-43BB-A58F-34F0EE3B77B8";
paths = (
{
closed = 1;
nodes = (
"60 0 LINE",
"248 0 LINE",
"248 326 LINE",
"500 0 LINE",
"739 0 LINE",
"455 341 LINE",
"556 373 OFFCURVE",
"624 456 OFFCURVE",
"624 580 CURVE SMOOTH",
"624 742 OFFCURVE",
"508 825 OFFCURVE",
"355 825 CURVE SMOOTH",
"60 825 LINE"
);
},
{
closed = 1;
nodes = (
"248 675 LINE",
"270 675 LINE SMOOTH",
"341 675 OFFCURVE",
"426 670 OFFCURVE",
"426 567 CURVE SMOOTH",
"426 464 OFFCURVE",
"341 459 OFFCURVE",
"270 459 CURVE SMOOTH",
"248 459 LINE"
);
},
{
closed = 1;
nodes = (
"407 -40 OFFCURVE",
"447 -80 OFFCURVE",
"447 -130 CURVE SMOOTH",
"447 -223 OFFCURVE",
"380 -299 OFFCURVE",
"317 -351 CURVE",
"277 -320 LINE",
"277 -320 OFFCURVE",
"324 -275 OFFCURVE",
"336 -210 CURVE",
"298 -201 OFFCURVE",
"269 -170 OFFCURVE",
"269 -130 CURVE SMOOTH",
"269 -80 OFFCURVE",
"309 -40 OFFCURVE",
"357 -40 CURVE SMOOTH"
);
}
);
width = 716;
},
{
layerId = "7B60DD57-6012-4D0F-BD38-A72A4BAC0E9D";
paths = (
{
closed = 1;
nodes = (
"60 0 LINE",
"248 0 LINE",
"248 326 LINE",
"500 0 LINE",
"739 0 LINE",
"455 341 LINE",
"556 373 OFFCURVE",
"624 456 OFFCURVE",
"624 580 CURVE SMOOTH",
"624 742 OFFCURVE",
"508 825 OFFCURVE",
"355 825 CURVE SMOOTH",
"60 825 LINE"
);
},
{
closed = 1;
nodes = (
"248 675 LINE",
"270 675 LINE SMOOTH",
"341 675 OFFCURVE",
"426 670 OFFCURVE",
"426 567 CURVE SMOOTH",
"426 464 OFFCURVE",
"341 459 OFFCURVE",
"270 459 CURVE SMOOTH",
"248 459 LINE"
);
},
{
closed = 1;
nodes = (
"407 -40 OFFCURVE",
"447 -80 OFFCURVE",
"447 -130 CURVE SMOOTH",
"447 -223 OFFCURVE",
"380 -299 OFFCURVE",
"317 -351 CURVE",
"277 -320 LINE",
"277 -320 OFFCURVE",
"324 -275 OFFCURVE",
"336 -210 CURVE",
"298 -201 OFFCURVE",
"269 -170 OFFCURVE",
"269 -130 CURVE SMOOTH",
"269 -80 OFFCURVE",
"309 -40 OFFCURVE",
"357 -40 CURVE SMOOTH"
);
}
);
width = 716;
},
{
layerId = "3FEB53C4-AE65-4B2F-B735-1C16ECFA7AEE";
paths = (
{
closed = 1;
nodes = (
"-27 0 LINE",
"161 0 LINE",
"196 326 LINE",
"413 0 LINE",
"652 0 LINE",
"404 341 LINE",
"508 373 OFFCURVE",
"585 456 OFFCURVE",
"598 580 CURVE SMOOTH",
"615 742 OFFCURVE",
"508 825 OFFCURVE",
"355 825 CURVE SMOOTH",
"60 825 LINE"
);
},
{
closed = 1;
nodes = (
"232 675 LINE",
"254 675 LINE SMOOTH",
"325 675 OFFCURVE",
"410 670 OFFCURVE",
"399 567 CURVE SMOOTH",
"388 464 OFFCURVE",
"303 459 OFFCURVE",
"232 459 CURVE SMOOTH",
"210 459 LINE"
);
},
{
closed = 1;
nodes = (
"316 -40 OFFCURVE",
"352 -80 OFFCURVE",
"347 -130 CURVE SMOOTH",
"337 -223 OFFCURVE",
"262 -299 OFFCURVE",
"193 -351 CURVE",
"157 -320 LINE",
"157 -320 OFFCURVE",
"208 -275 OFFCURVE",
"227 -210 CURVE",
"190 -201 OFFCURVE",
"164 -170 OFFCURVE",
"169 -130 CURVE SMOOTH",
"174 -80 OFFCURVE",
"218 -40 OFFCURVE",
"266 -40 CURVE SMOOTH"
);
}
);
width = 716;
}
);
rightKerningGroup = R;
unicode = 0156;
},
{
glyphname = S;
lastChange = "2017-03-22 17:52:50 +0000";
layers = (
{
layerId = "A4E552E4-62BE-43BB-A58F-34F0EE3B77B8";
paths = (
{
closed = 1;
nodes = (
"231 840 OFFCURVE",
"95 742 OFFCURVE",
"95 588 CURVE SMOOTH",
"95 502 OFFCURVE",
"153 425 OFFCURVE",
"252 376 CURVE SMOOTH",
"350 327 OFFCURVE",
"438 300 OFFCURVE",
"438 240 CURVE SMOOTH",
"438 163 OFFCURVE",
"360 159 OFFCURVE",
"319 159 CURVE SMOOTH",
"227 159 OFFCURVE",
"117 252 OFFCURVE",
"117 252 CURVE",
"23 94 LINE",
"23 94 OFFCURVE",
"140 -15 OFFCURVE",
"333 -15 CURVE SMOOTH",
"494 -15 OFFCURVE",
"644 54 OFFCURVE",
"644 251 CURVE SMOOTH",
"644 359 OFFCURVE",
"543 437 OFFCURVE",
"451 476 CURVE SMOOTH",
"357 516 OFFCURVE",
"279 549 OFFCURVE",
"279 595 CURVE SMOOTH",
"279 640 OFFCURVE",
"313 669 OFFCURVE",
"377 669 CURVE SMOOTH",
"462 669 OFFCURVE",
"544 612 OFFCURVE",
"544 612 CURVE",
"620 762 LINE",
"620 762 OFFCURVE",
"514 840 OFFCURVE",
"364 840 CURVE SMOOTH"
);
}
);
width = 672;
},
{
layerId = "7B60DD57-6012-4D0F-BD38-A72A4BAC0E9D";
paths = (
{
closed = 1;
nodes = (
"181 840 OFFCURVE",
"75 752 OFFCURVE",
"75 638 CURVE SMOOTH",
"75 542 OFFCURVE",
"128 485 OFFCURVE",
"251 426 CURVE SMOOTH",
"350 378 OFFCURVE",
"483 337 OFFCURVE",
"483 211 CURVE SMOOTH",
"483 113 OFFCURVE",
"406 54 OFFCURVE",
"283 54 CURVE SMOOTH",
"162 54 OFFCURVE",
"64 136 OFFCURVE",
"64 136 CURVE",
"23 68 LINE",
"23 68 OFFCURVE",
"136 -15 OFFCURVE",
"283 -15 CURVE SMOOTH",
"444 -15 OFFCURVE",
"554 74 OFFCURVE",
"554 211 CURVE SMOOTH",
"554 363 OFFCURVE",
"434 419 OFFCURVE",
"330 468 CURVE SMOOTH",
"234 513 OFFCURVE",
"149 558 OFFCURVE",
"149 638 CURVE SMOOTH",
"149 720 OFFCURVE",
"210 774 OFFCURVE",
"321 774 CURVE SMOOTH",
"426 774 OFFCURVE",
"504 715 OFFCURVE",
"504 715 CURVE",
"536 775 LINE",
"536 775 OFFCURVE",
"451 840 OFFCURVE",
"314 840 CURVE SMOOTH"
);
}
);
width = 582;
},
{
layerId = "3FEB53C4-AE65-4B2F-B735-1C16ECFA7AEE";
paths = (
{
closed = 1;
nodes = (
"233 840 OFFCURVE",
"86 742 OFFCURVE",
"70 588 CURVE SMOOTH",
"61 502 OFFCURVE",
"111 425 OFFCURVE",
"205 376 CURVE SMOOTH",
"298 327 OFFCURVE",
"383 300 OFFCURVE",
"377 240 CURVE SMOOTH",
"368 163 OFFCURVE",
"290 159 OFFCURVE",
"249 159 CURVE SMOOTH",
"157 159 OFFCURVE",
"57 252 OFFCURVE",
"57 252 CURVE",
"-54 94 LINE",
"-54 94 OFFCURVE",
"52 -15 OFFCURVE",
"245 -15 CURVE SMOOTH",
"406 -15 OFFCURVE",
"563 54 OFFCURVE",
"584 251 CURVE SMOOTH",
"595 359 OFFCURVE",
"502 437 OFFCURVE",
"414 476 CURVE SMOOTH",
"325 516 OFFCURVE",
"250 549 OFFCURVE",
"255 595 CURVE SMOOTH",
"260 640 OFFCURVE",
"297 669 OFFCURVE",
"361 669 CURVE SMOOTH",
"446 669 OFFCURVE",
"522 612 OFFCURVE",
"522 612 CURVE",
"613 762 LINE",
"613 762 OFFCURVE",
"516 840 OFFCURVE",
"366 840 CURVE SMOOTH"
);
}
);
width = 672;
}
);
leftKerningGroup = S;
rightKerningGroup = d;
unicode = 0053;
},
{
glyphname = Sacute;
lastChange = "2017-03-22 17:52:50 +0000";
layers = (
{
layerId = "A4E552E4-62BE-43BB-A58F-34F0EE3B77B8";
paths = (
{
closed = 1;
nodes = (
"231 840 OFFCURVE",
"95 742 OFFCURVE",
"95 588 CURVE SMOOTH",
"95 502 OFFCURVE",
"153 425 OFFCURVE",
"252 376 CURVE SMOOTH",
"350 327 OFFCURVE",
"438 300 OFFCURVE",
"438 240 CURVE SMOOTH",
"438 163 OFFCURVE",
"360 159 OFFCURVE",
"319 159 CURVE SMOOTH",
"227 159 OFFCURVE",
"117 252 OFFCURVE",
"117 252 CURVE",
"23 94 LINE",
"23 94 OFFCURVE",
"140 -15 OFFCURVE",
"333 -15 CURVE SMOOTH",
"494 -15 OFFCURVE",
"644 54 OFFCURVE",
"644 251 CURVE SMOOTH",
"644 359 OFFCURVE",
"543 437 OFFCURVE",
"451 476 CURVE SMOOTH",
"357 516 OFFCURVE",
"279 549 OFFCURVE",
"279 595 CURVE SMOOTH",
"279 640 OFFCURVE",
"313 669 OFFCURVE",
"377 669 CURVE SMOOTH",
"462 669 OFFCURVE",
"544 612 OFFCURVE",
"544 612 CURVE",
"620 762 LINE",
"620 762 OFFCURVE",
"514 840 OFFCURVE",
"364 840 CURVE SMOOTH"
);
},
{
closed = 1;
nodes = (
"483 1037 LINE",
"392 1152 LINE",
"189 976 LINE",
"245 899 LINE"
);
}
);
width = 672;
},
{
layerId = "7B60DD57-6012-4D0F-BD38-A72A4BAC0E9D";
paths = (
{
closed = 1;
nodes = (
"231 840 OFFCURVE",
"95 742 OFFCURVE",
"95 588 CURVE SMOOTH",
"95 502 OFFCURVE",
"153 425 OFFCURVE",
"252 376 CURVE SMOOTH",
"350 327 OFFCURVE",
"438 300 OFFCURVE",
"438 240 CURVE SMOOTH",
"438 163 OFFCURVE",
"360 159 OFFCURVE",
"319 159 CURVE SMOOTH",
"227 159 OFFCURVE",
"117 252 OFFCURVE",
"117 252 CURVE",
"23 94 LINE",
"23 94 OFFCURVE",
"140 -15 OFFCURVE",
"333 -15 CURVE SMOOTH",
"494 -15 OFFCURVE",
"644 54 OFFCURVE",
"644 251 CURVE SMOOTH",
"644 359 OFFCURVE",
"543 437 OFFCURVE",
"451 476 CURVE SMOOTH",
"357 516 OFFCURVE",
"279 549 OFFCURVE",
"279 595 CURVE SMOOTH",
"279 640 OFFCURVE",
"313 669 OFFCURVE",
"377 669 CURVE SMOOTH",
"462 669 OFFCURVE",
"544 612 OFFCURVE",
"544 612 CURVE",
"620 762 LINE",
"620 762 OFFCURVE",
"514 840 OFFCURVE",
"364 840 CURVE SMOOTH"
);
},
{
closed = 1;
nodes = (
"483 1037 LINE",
"392 1152 LINE",
"189 976 LINE",
"245 899 LINE"
);
}
);
width = 672;
},
{
layerId = "3FEB53C4-AE65-4B2F-B735-1C16ECFA7AEE";
paths = (
{
closed = 1;
nodes = (
"233 840 OFFCURVE",
"86 742 OFFCURVE",
"70 588 CURVE SMOOTH",
"61 502 OFFCURVE",
"111 425 OFFCURVE",
"205 376 CURVE SMOOTH",
"298 327 OFFCURVE",
"383 300 OFFCURVE",
"377 240 CURVE SMOOTH",
"368 163 OFFCURVE",
"290 159 OFFCURVE",
"249 159 CURVE SMOOTH",
"157 159 OFFCURVE",
"57 252 OFFCURVE",
"57 252 CURVE",
"-54 94 LINE",
"-54 94 OFFCURVE",
"52 -15 OFFCURVE",
"245 -15 CURVE SMOOTH",
"406 -15 OFFCURVE",
"563 54 OFFCURVE",
"584 251 CURVE SMOOTH",
"595 359 OFFCURVE",
"502 437 OFFCURVE",
"414 476 CURVE SMOOTH",
"325 516 OFFCURVE",
"250 549 OFFCURVE",
"255 595 CURVE SMOOTH",
"260 640 OFFCURVE",
"297 669 OFFCURVE",
"361 669 CURVE SMOOTH",
"446 669 OFFCURVE",
"522 612 OFFCURVE",
"522 612 CURVE",
"613 762 LINE",
"613 762 OFFCURVE",
"516 840 OFFCURVE",
"366 840 CURVE SMOOTH"
);
},
{
closed = 1;
nodes = (
"505 1037 LINE",
"426 1152 LINE",
"205 976 LINE",
"253 899 LINE"
);
}
);
width = 672;
}
);
leftKerningGroup = S;
rightKerningGroup = d;
unicode = 015A;
},
{
glyphname = Scaron;
lastChange = "2017-03-22 17:52:50 +0000";
layers = (
{
layerId = "A4E552E4-62BE-43BB-A58F-34F0EE3B77B8";
paths = (
{
closed = 1;
nodes = (
"231 840 OFFCURVE",
"95 742 OFFCURVE",
"95 588 CURVE SMOOTH",
"95 502 OFFCURVE",
"153 425 OFFCURVE",
"252 376 CURVE SMOOTH",
"350 327 OFFCURVE",
"438 300 OFFCURVE",
"438 240 CURVE SMOOTH",
"438 163 OFFCURVE",
"360 159 OFFCURVE",
"319 159 CURVE SMOOTH",
"227 159 OFFCURVE",
"117 252 OFFCURVE",
"117 252 CURVE",
"23 94 LINE",
"23 94 OFFCURVE",
"140 -15 OFFCURVE",
"333 -15 CURVE SMOOTH",
"494 -15 OFFCURVE",
"644 54 OFFCURVE",
"644 251 CURVE SMOOTH",
"644 359 OFFCURVE",
"543 437 OFFCURVE",
"451 476 CURVE SMOOTH",
"357 516 OFFCURVE",
"279 549 OFFCURVE",
"279 595 CURVE SMOOTH",
"279 640 OFFCURVE",
"313 669 OFFCURVE",
"377 669 CURVE SMOOTH",
"462 669 OFFCURVE",
"544 612 OFFCURVE",
"544 612 CURVE",
"620 762 LINE",
"620 762 OFFCURVE",
"514 840 OFFCURVE",
"364 840 CURVE SMOOTH"
);
},
{
closed = 1;
nodes = (
"336 899 LINE",
"557 1061 LINE",
"489 1152 LINE",
"336 1040 LINE",
"183 1152 LINE",
"115 1061 LINE"
);
}
);
width = 672;
},
{
layerId = "7B60DD57-6012-4D0F-BD38-A72A4BAC0E9D";
paths = (
{
closed = 1;
nodes = (
"231 840 OFFCURVE",
"95 742 OFFCURVE",
"95 588 CURVE SMOOTH",
"95 502 OFFCURVE",
"153 425 OFFCURVE",
"252 376 CURVE SMOOTH",
"350 327 OFFCURVE",
"438 300 OFFCURVE",
"438 240 CURVE SMOOTH",
"438 163 OFFCURVE",
"360 159 OFFCURVE",
"319 159 CURVE SMOOTH",
"227 159 OFFCURVE",
"117 252 OFFCURVE",
"117 252 CURVE",
"23 94 LINE",
"23 94 OFFCURVE",
"140 -15 OFFCURVE",
"333 -15 CURVE SMOOTH",
"494 -15 OFFCURVE",
"644 54 OFFCURVE",
"644 251 CURVE SMOOTH",
"644 359 OFFCURVE",
"543 437 OFFCURVE",
"451 476 CURVE SMOOTH",
"357 516 OFFCURVE",
"279 549 OFFCURVE",
"279 595 CURVE SMOOTH",
"279 640 OFFCURVE",
"313 669 OFFCURVE",
"377 669 CURVE SMOOTH",
"462 669 OFFCURVE",
"544 612 OFFCURVE",
"544 612 CURVE",
"620 762 LINE",
"620 762 OFFCURVE",
"514 840 OFFCURVE",
"364 840 CURVE SMOOTH"
);
},
{
closed = 1;
nodes = (
"336 899 LINE",
"557 1061 LINE",
"489 1152 LINE",
"336 1040 LINE",
"183 1152 LINE",
"115 1061 LINE"
);
}
);
width = 672;
},
{
layerId = "3FEB53C4-AE65-4B2F-B735-1C16ECFA7AEE";
paths = (
{
closed = 1;
nodes = (
"233 840 OFFCURVE",
"86 742 OFFCURVE",
"70 588 CURVE SMOOTH",
"61 502 OFFCURVE",
"111 425 OFFCURVE",
"205 376 CURVE SMOOTH",
"298 327 OFFCURVE",
"383 300 OFFCURVE",
"377 240 CURVE SMOOTH",
"368 163 OFFCURVE",
"290 159 OFFCURVE",
"249 159 CURVE SMOOTH",
"157 159 OFFCURVE",
"57 252 OFFCURVE",
"57 252 CURVE",
"-54 94 LINE",
"-54 94 OFFCURVE",
"52 -15 OFFCURVE",
"245 -15 CURVE SMOOTH",
"406 -15 OFFCURVE",
"563 54 OFFCURVE",
"584 251 CURVE SMOOTH",
"595 359 OFFCURVE",
"502 437 OFFCURVE",
"414 476 CURVE SMOOTH",
"325 516 OFFCURVE",
"250 549 OFFCURVE",
"255 595 CURVE SMOOTH",
"260 640 OFFCURVE",
"297 669 OFFCURVE",
"361 669 CURVE SMOOTH",
"446 669 OFFCURVE",
"522 612 OFFCURVE",
"522 612 CURVE",
"613 762 LINE",
"613 762 OFFCURVE",
"516 840 OFFCURVE",
"366 840 CURVE SMOOTH"
);
},
{
closed = 1;
nodes = (
"344 899 LINE",
"582 1061 LINE",
"523 1152 LINE",
"359 1040 LINE",
"217 1152 LINE",
"140 1061 LINE"
);
}
);
width = 672;
}
);
leftKerningGroup = S;
rightKerningGroup = d;
unicode = 0160;
},
{
glyphname = Scommaaccent;
lastChange = "2017-03-22 17:52:50 +0000";
layers = (
{
layerId = "A4E552E4-62BE-43BB-A58F-34F0EE3B77B8";
paths = (
{
closed = 1;
nodes = (
"231 840 OFFCURVE",
"95 742 OFFCURVE",
"95 588 CURVE SMOOTH",
"95 502 OFFCURVE",
"153 425 OFFCURVE",
"252 376 CURVE SMOOTH",
"350 327 OFFCURVE",
"438 300 OFFCURVE",
"438 240 CURVE SMOOTH",
"438 163 OFFCURVE",
"360 159 OFFCURVE",
"319 159 CURVE SMOOTH",
"227 159 OFFCURVE",
"117 252 OFFCURVE",
"117 252 CURVE",
"23 94 LINE",
"23 94 OFFCURVE",
"140 -15 OFFCURVE",
"333 -15 CURVE SMOOTH",
"494 -15 OFFCURVE",
"644 54 OFFCURVE",
"644 251 CURVE SMOOTH",
"644 359 OFFCURVE",
"543 437 OFFCURVE",
"451 476 CURVE SMOOTH",
"357 516 OFFCURVE",
"279 549 OFFCURVE",
"279 595 CURVE SMOOTH",
"279 640 OFFCURVE",
"313 669 OFFCURVE",
"377 669 CURVE SMOOTH",
"462 669 OFFCURVE",
"544 612 OFFCURVE",
"544 612 CURVE",
"620 762 LINE",
"620 762 OFFCURVE",
"514 840 OFFCURVE",
"364 840 CURVE SMOOTH"
);
},
{
closed = 1;
nodes = (
"385 -40 OFFCURVE",
"425 -80 OFFCURVE",
"425 -130 CURVE SMOOTH",
"425 -223 OFFCURVE",
"358 -299 OFFCURVE",
"295 -351 CURVE",
"255 -320 LINE",
"255 -320 OFFCURVE",
"302 -275 OFFCURVE",
"314 -210 CURVE",
"276 -201 OFFCURVE",
"247 -170 OFFCURVE",
"247 -130 CURVE SMOOTH",
"247 -80 OFFCURVE",
"287 -40 OFFCURVE",
"335 -40 CURVE SMOOTH"
);
}
);
width = 672;
},
{
layerId = "7B60DD57-6012-4D0F-BD38-A72A4BAC0E9D";
paths = (
{
closed = 1;
nodes = (
"231 840 OFFCURVE",
"95 742 OFFCURVE",
"95 588 CURVE SMOOTH",
"95 502 OFFCURVE",
"153 425 OFFCURVE",
"252 376 CURVE SMOOTH",
"350 327 OFFCURVE",
"438 300 OFFCURVE",
"438 240 CURVE SMOOTH",
"438 163 OFFCURVE",
"360 159 OFFCURVE",
"319 159 CURVE SMOOTH",
"227 159 OFFCURVE",
"117 252 OFFCURVE",
"117 252 CURVE",
"23 94 LINE",
"23 94 OFFCURVE",
"140 -15 OFFCURVE",
"333 -15 CURVE SMOOTH",
"494 -15 OFFCURVE",
"644 54 OFFCURVE",
"644 251 CURVE SMOOTH",
"644 359 OFFCURVE",
"543 437 OFFCURVE",
"451 476 CURVE SMOOTH",
"357 516 OFFCURVE",
"279 549 OFFCURVE",
"279 595 CURVE SMOOTH",
"279 640 OFFCURVE",
"313 669 OFFCURVE",
"377 669 CURVE SMOOTH",
"462 669 OFFCURVE",
"544 612 OFFCURVE",
"544 612 CURVE",
"620 762 LINE",
"620 762 OFFCURVE",
"514 840 OFFCURVE",
"364 840 CURVE SMOOTH"
);
},
{
closed = 1;
nodes = (
"385 -40 OFFCURVE",
"425 -80 OFFCURVE",
"425 -130 CURVE SMOOTH",
"425 -223 OFFCURVE",
"358 -299 OFFCURVE",
"295 -351 CURVE",
"255 -320 LINE",
"255 -320 OFFCURVE",
"302 -275 OFFCURVE",
"314 -210 CURVE",
"276 -201 OFFCURVE",
"247 -170 OFFCURVE",
"247 -130 CURVE SMOOTH",
"247 -80 OFFCURVE",
"287 -40 OFFCURVE",
"335 -40 CURVE SMOOTH"
);
}
);
width = 672;
},
{
layerId = "3FEB53C4-AE65-4B2F-B735-1C16ECFA7AEE";
paths = (
{
closed = 1;
nodes = (
"233 840 OFFCURVE",
"86 742 OFFCURVE",
"70 588 CURVE SMOOTH",
"61 502 OFFCURVE",
"111 425 OFFCURVE",
"205 376 CURVE SMOOTH",
"298 327 OFFCURVE",
"383 300 OFFCURVE",
"377 240 CURVE SMOOTH",
"368 163 OFFCURVE",
"290 159 OFFCURVE",
"249 159 CURVE SMOOTH",
"157 159 OFFCURVE",
"57 252 OFFCURVE",
"57 252 CURVE",
"-54 94 LINE",
"-54 94 OFFCURVE",
"52 -15 OFFCURVE",
"245 -15 CURVE SMOOTH",
"406 -15 OFFCURVE",
"563 54 OFFCURVE",
"584 251 CURVE SMOOTH",
"595 359 OFFCURVE",
"502 437 OFFCURVE",
"414 476 CURVE SMOOTH",
"325 516 OFFCURVE",
"250 549 OFFCURVE",
"255 595 CURVE SMOOTH",
"260 640 OFFCURVE",
"297 669 OFFCURVE",
"361 669 CURVE SMOOTH",
"446 669 OFFCURVE",
"522 612 OFFCURVE",
"522 612 CURVE",
"613 762 LINE",
"613 762 OFFCURVE",
"516 840 OFFCURVE",
"366 840 CURVE SMOOTH"
);
},
{
closed = 1;
nodes = (
"294 -40 OFFCURVE",
"330 -80 OFFCURVE",
"325 -130 CURVE SMOOTH",
"315 -223 OFFCURVE",
"240 -299 OFFCURVE",
"171 -351 CURVE",
"135 -320 LINE",
"135 -320 OFFCURVE",
"186 -275 OFFCURVE",
"205 -210 CURVE",
"168 -201 OFFCURVE",
"142 -170 OFFCURVE",
"147 -130 CURVE SMOOTH",
"152 -80 OFFCURVE",
"196 -40 OFFCURVE",
"244 -40 CURVE SMOOTH"
);
}
);
width = 672;
}
);
leftKerningGroup = S;
rightKerningGroup = d;
unicode = 0218;
},
{
glyphname = T;
lastChange = "2017-03-22 17:52:50 +0000";
layers = (
{
layerId = "A4E552E4-62BE-43BB-A58F-34F0EE3B77B8";
paths = (
{
closed = 1;
nodes = (
"204 0 LINE",
"392 0 LINE",
"392 660 LINE",
"588 660 LINE",
"588 825 LINE",
"8 825 LINE",
"8 660 LINE",
"204 660 LINE"
);
}
);
width = 596;
},
{
layerId = "7B60DD57-6012-4D0F-BD38-A72A4BAC0E9D";
paths = (
{
closed = 1;
nodes = (
"234 0 LINE",
"302 0 LINE",
"302 760 LINE",
"538 760 LINE",
"538 825 LINE",
"-2 825 LINE",
"-2 760 LINE",
"234 760 LINE"
);
}
);
width = 536;
},
{
layerId = "3FEB53C4-AE65-4B2F-B735-1C16ECFA7AEE";
paths = (
{
closed = 1;
nodes = (
"117 0 LINE",
"305 0 LINE",
"375 660 LINE",
"571 660 LINE",
"588 825 LINE",
"8 825 LINE",
"-9 660 LINE",
"187 660 LINE"
);
}
);
width = 596;
}
);
leftKerningGroup = T;
rightKerningGroup = T;
unicode = 0054;
},
{
glyphname = Tcaron;
lastChange = "2017-03-22 17:52:50 +0000";
layers = (
{
layerId = "A4E552E4-62BE-43BB-A58F-34F0EE3B77B8";
paths = (
{
closed = 1;
nodes = (
"204 0 LINE",
"392 0 LINE",
"392 660 LINE",
"588 660 LINE",
"588 825 LINE",
"8 825 LINE",
"8 660 LINE",
"204 660 LINE"
);
},
{
closed = 1;
nodes = (
"298 899 LINE",
"519 1061 LINE",
"451 1152 LINE",
"298 1040 LINE",
"145 1152 LINE",
"77 1061 LINE"
);
}
);
width = 596;
},
{
layerId = "7B60DD57-6012-4D0F-BD38-A72A4BAC0E9D";
paths = (
{
closed = 1;
nodes = (
"204 0 LINE",
"392 0 LINE",
"392 660 LINE",
"588 660 LINE",
"588 825 LINE",
"8 825 LINE",
"8 660 LINE",
"204 660 LINE"
);
},
{
closed = 1;
nodes = (
"298 899 LINE",
"519 1061 LINE",
"451 1152 LINE",
"298 1040 LINE",
"145 1152 LINE",
"77 1061 LINE"
);
}
);
width = 596;
},
{
layerId = "3FEB53C4-AE65-4B2F-B735-1C16ECFA7AEE";
paths = (
{
closed = 1;
nodes = (
"117 0 LINE",
"305 0 LINE",
"375 660 LINE",
"571 660 LINE",
"588 825 LINE",
"8 825 LINE",
"-9 660 LINE",
"187 660 LINE"
);
},
{
closed = 1;
nodes = (
"306 899 LINE",
"544 1061 LINE",
"485 1152 LINE",
"321 1040 LINE",
"179 1152 LINE",
"102 1061 LINE"
);
}
);
width = 596;
}
);
leftKerningGroup = T;
rightKerningGroup = T;
unicode = 0164;
},
{
glyphname = Tcommaaccent;
lastChange = "2017-03-22 17:52:50 +0000";
layers = (
{
layerId = "A4E552E4-62BE-43BB-A58F-34F0EE3B77B8";
paths = (
{
closed = 1;
nodes = (
"204 0 LINE",
"392 0 LINE",
"392 660 LINE",
"588 660 LINE",
"588 825 LINE",
"8 825 LINE",
"8 660 LINE",
"204 660 LINE"
);
},
{
closed = 1;
nodes = (
"347 -40 OFFCURVE",
"387 -80 OFFCURVE",
"387 -130 CURVE SMOOTH",
"387 -223 OFFCURVE",
"320 -299 OFFCURVE",
"257 -351 CURVE",
"217 -320 LINE",
"217 -320 OFFCURVE",
"264 -275 OFFCURVE",
"276 -210 CURVE",
"238 -201 OFFCURVE",
"209 -170 OFFCURVE",
"209 -130 CURVE SMOOTH",
"209 -80 OFFCURVE",
"249 -40 OFFCURVE",
"297 -40 CURVE SMOOTH"
);
}
);
width = 596;
},
{
layerId = "7B60DD57-6012-4D0F-BD38-A72A4BAC0E9D";
paths = (
{
closed = 1;
nodes = (
"204 0 LINE",
"392 0 LINE",
"392 660 LINE",
"588 660 LINE",
"588 825 LINE",
"8 825 LINE",
"8 660 LINE",
"204 660 LINE"
);
},
{
closed = 1;
nodes = (
"347 -40 OFFCURVE",
"387 -80 OFFCURVE",
"387 -130 CURVE SMOOTH",
"387 -223 OFFCURVE",
"320 -299 OFFCURVE",
"257 -351 CURVE",
"217 -320 LINE",
"217 -320 OFFCURVE",
"264 -275 OFFCURVE",
"276 -210 CURVE",
"238 -201 OFFCURVE",
"209 -170 OFFCURVE",
"209 -130 CURVE SMOOTH",
"209 -80 OFFCURVE",
"249 -40 OFFCURVE",
"297 -40 CURVE SMOOTH"
);
}
);
width = 596;
},
{
layerId = "3FEB53C4-AE65-4B2F-B735-1C16ECFA7AEE";
paths = (
{
closed = 1;
nodes = (
"117 0 LINE",
"305 0 LINE",
"375 660 LINE",
"571 660 LINE",
"588 825 LINE",
"8 825 LINE",
"-9 660 LINE",
"187 660 LINE"
);
},
{
closed = 1;
nodes = (
"256 -40 OFFCURVE",
"292 -80 OFFCURVE",
"287 -130 CURVE SMOOTH",
"277 -223 OFFCURVE",
"202 -299 OFFCURVE",
"133 -351 CURVE",
"97 -320 LINE",
"97 -320 OFFCURVE",
"148 -275 OFFCURVE",
"167 -210 CURVE",
"130 -201 OFFCURVE",
"104 -170 OFFCURVE",
"109 -130 CURVE SMOOTH",
"114 -80 OFFCURVE",
"158 -40 OFFCURVE",
"206 -40 CURVE SMOOTH"
);
}
);
width = 596;
}
);
leftKerningGroup = T;
rightKerningGroup = T;
unicode = 0162;
},
{
glyphname = U;
lastChange = "2017-03-22 17:52:50 +0000";
layers = (
{
layerId = "A4E552E4-62BE-43BB-A58F-34F0EE3B77B8";
paths = (
{
closed = 1;
nodes = (
"506 388 LINE SMOOTH",
"506 230 OFFCURVE",
"464 170 OFFCURVE",
"372 170 CURVE SMOOTH",
"280 170 OFFCURVE",
"238 230 OFFCURVE",
"238 388 CURVE SMOOTH",
"238 825 LINE",
"50 825 LINE",
"50 333 LINE SMOOTH",
"50 129 OFFCURVE",
"162 -15 OFFCURVE",
"372 -15 CURVE SMOOTH",
"582 -15 OFFCURVE",
"694 129 OFFCURVE",
"694 333 CURVE SMOOTH",
"694 825 LINE",
"506 825 LINE"
);
}
);
width = 744;
},
{
layerId = "7B60DD57-6012-4D0F-BD38-A72A4BAC0E9D";
paths = (
{
closed = 1;
nodes = (
"536 298 LINE SMOOTH",
"536 170 OFFCURVE",
"474 50 OFFCURVE",
"332 50 CURVE SMOOTH",
"190 50 OFFCURVE",
"128 170 OFFCURVE",
"128 298 CURVE SMOOTH",
"128 825 LINE",
"60 825 LINE",
"60 313 LINE SMOOTH",
"60 109 OFFCURVE",
"152 -15 OFFCURVE",
"332 -15 CURVE SMOOTH",
"512 -15 OFFCURVE",
"604 109 OFFCURVE",
"604 313 CURVE SMOOTH",
"604 825 LINE",
"536 825 LINE"
);
}
);
width = 664;
},
{
layerId = "3FEB53C4-AE65-4B2F-B735-1C16ECFA7AEE";
paths = (
{
closed = 1;
nodes = (
"460 388 LINE SMOOTH",
"443 230 OFFCURVE",
"395 170 OFFCURVE",
"303 170 CURVE SMOOTH",
"211 170 OFFCURVE",
"175 230 OFFCURVE",
"192 388 CURVE SMOOTH",
"238 825 LINE",
"50 825 LINE",
"-2 333 LINE SMOOTH",
"-23 129 OFFCURVE",
"74 -15 OFFCURVE",
"284 -15 CURVE SMOOTH",
"494 -15 OFFCURVE",
"621 129 OFFCURVE",
"642 333 CURVE SMOOTH",
"694 825 LINE",
"506 825 LINE"
);
}
);
width = 744;
}
);
rightKerningGroup = d;
unicode = 0055;
},
{
glyphname = Umacron;
lastChange = "2017-03-22 17:52:50 +0000";
layers = (
{
components = (
{
name = U;
}
);
layerId = "A4E552E4-62BE-43BB-A58F-34F0EE3B77B8";
paths = (
{
closed = 1;
nodes = (
"576 946 LINE",
"576 1066 LINE",
"168 1066 LINE",
"168 946 LINE"
);
}
);
width = 744;
},
{
components = (
{
name = U;
}
);
layerId = "7B60DD57-6012-4D0F-BD38-A72A4BAC0E9D";
paths = (
{
closed = 1;
nodes = (
"576 946 LINE",
"576 1066 LINE",
"168 1066 LINE",
"168 946 LINE"
);
}
);
width = 744;
},
{
components = (
{
name = U;
}
);
layerId = "3FEB53C4-AE65-4B2F-B735-1C16ECFA7AEE";
paths = (
{
closed = 1;
nodes = (
"589 946 LINE",
"601 1066 LINE",
"193 1066 LINE",
"181 946 LINE"
);
}
);
width = 744;
}
);
rightKerningGroup = d;
unicode = 016A;
},
{
glyphname = Uring;
lastChange = "2017-03-22 17:52:50 +0000";
layers = (
{
layerId = "A4E552E4-62BE-43BB-A58F-34F0EE3B77B8";
paths = (
{
closed = 1;
nodes = (
"506 348 LINE SMOOTH",
"506 210 OFFCURVE",
"464 170 OFFCURVE",
"372 170 CURVE SMOOTH",
"280 170 OFFCURVE",
"238 210 OFFCURVE",
"238 348 CURVE SMOOTH",
"238 825 LINE",
"50 825 LINE",
"50 293 LINE SMOOTH",
"50 89 OFFCURVE",
"162 -15 OFFCURVE",
"372 -15 CURVE SMOOTH",
"582 -15 OFFCURVE",
"694 89 OFFCURVE",
"694 293 CURVE SMOOTH",
"694 825 LINE",
"506 825 LINE"
);
},
{
closed = 1;
nodes = (
"211 961 OFFCURVE",
"276 902 OFFCURVE",
"372 902 CURVE SMOOTH",
"466 902 OFFCURVE",
"533 961 OFFCURVE",
"533 1045 CURVE SMOOTH",
"533 1128 OFFCURVE",
"463 1187 OFFCURVE",
"372 1187 CURVE SMOOTH",
"282 1187 OFFCURVE",
"211 1128 OFFCURVE",
"211 1045 CURVE SMOOTH"
);
},
{
closed = 1;
nodes = (
"311 1079 OFFCURVE",
"339 1107 OFFCURVE",
"372 1107 CURVE SMOOTH",
"406 1107 OFFCURVE",
"433 1079 OFFCURVE",
"433 1045 CURVE SMOOTH",
"433 1010 OFFCURVE",
"407 981 OFFCURVE",
"372 981 CURVE SMOOTH",
"336 981 OFFCURVE",
"311 1010 OFFCURVE",
"311 1045 CURVE SMOOTH"
);
}
);
width = 744;
},
{
layerId = "7B60DD57-6012-4D0F-BD38-A72A4BAC0E9D";
paths = (
{
closed = 1;
nodes = (
"506 348 LINE SMOOTH",
"506 210 OFFCURVE",
"464 170 OFFCURVE",
"372 170 CURVE SMOOTH",
"280 170 OFFCURVE",
"238 210 OFFCURVE",
"238 348 CURVE SMOOTH",
"238 825 LINE",
"50 825 LINE",
"50 293 LINE SMOOTH",
"50 89 OFFCURVE",
"162 -15 OFFCURVE",
"372 -15 CURVE SMOOTH",
"582 -15 OFFCURVE",
"694 89 OFFCURVE",
"694 293 CURVE SMOOTH",
"694 825 LINE",
"506 825 LINE"
);
},
{
closed = 1;
nodes = (
"211 961 OFFCURVE",
"276 902 OFFCURVE",
"372 902 CURVE SMOOTH",
"466 902 OFFCURVE",
"533 961 OFFCURVE",
"533 1045 CURVE SMOOTH",
"533 1128 OFFCURVE",
"463 1187 OFFCURVE",
"372 1187 CURVE SMOOTH",
"282 1187 OFFCURVE",
"211 1128 OFFCURVE",
"211 1045 CURVE SMOOTH"
);
},
{
closed = 1;
nodes = (
"311 1079 OFFCURVE",
"339 1107 OFFCURVE",
"372 1107 CURVE SMOOTH",
"406 1107 OFFCURVE",
"433 1079 OFFCURVE",
"433 1045 CURVE SMOOTH",
"433 1010 OFFCURVE",
"407 981 OFFCURVE",
"372 981 CURVE SMOOTH",
"336 981 OFFCURVE",
"311 1010 OFFCURVE",
"311 1045 CURVE SMOOTH"
);
}
);
width = 744;
},
{
layerId = "3FEB53C4-AE65-4B2F-B735-1C16ECFA7AEE";
paths = (
{
closed = 1;
nodes = (
"456 348 LINE SMOOTH",
"441 210 OFFCURVE",
"395 170 OFFCURVE",
"303 170 CURVE SMOOTH",
"211 170 OFFCURVE",
"173 210 OFFCURVE",
"188 348 CURVE SMOOTH",
"238 825 LINE",
"50 825 LINE",
"-6 293 LINE SMOOTH",
"-27 89 OFFCURVE",
"74 -15 OFFCURVE",
"284 -15 CURVE SMOOTH",
"494 -15 OFFCURVE",
"617 89 OFFCURVE",
"638 293 CURVE SMOOTH",
"694 825 LINE",
"506 825 LINE"
);
},
{
closed = 1;
nodes = (
"225 961 OFFCURVE",
"284 902 OFFCURVE",
"380 902 CURVE SMOOTH",
"474 902 OFFCURVE",
"547 961 OFFCURVE",
"556 1045 CURVE SMOOTH",
"565 1128 OFFCURVE",
"501 1187 OFFCURVE",
"410 1187 CURVE SMOOTH",
"320 1187 OFFCURVE",
"243 1128 OFFCURVE",
"234 1045 CURVE SMOOTH"
);
},
{
closed = 1;
nodes = (
"338 1079 OFFCURVE",
"369 1107 OFFCURVE",
"402 1107 CURVE SMOOTH",
"436 1107 OFFCURVE",
"460 1079 OFFCURVE",
"456 1045 CURVE SMOOTH",
"452 1010 OFFCURVE",
"423 981 OFFCURVE",
"388 981 CURVE SMOOTH",
"352 981 OFFCURVE",
"330 1010 OFFCURVE",
"334 1045 CURVE SMOOTH"
);
}
);
width = 744;
}
);
rightKerningGroup = d;
unicode = 016E;
},
{
glyphname = V;
lastChange = "2017-03-25 14:28:05 +0000";
layers = (
{
layerId = "A4E552E4-62BE-43BB-A58F-34F0EE3B77B8";
paths = (
{
closed = 1;
nodes = (
"792 825 LINE",
"580 825 LINE",
"392 303 LINE",
"204 825 LINE",
"-8 825 LINE",
"315 0 LINE",
"469 0 LINE"
);
}
);
width = 784;
},
{
layerId = "7B60DD57-6012-4D0F-BD38-A72A4BAC0E9D";
paths = (
{
closed = 1;
nodes = (
"691 825 LINE",
"615 825 LINE",
"342 93 LINE",
"69 825 LINE",
"-7 825 LINE",
"305 0 LINE",
"379 0 LINE"
);
}
);
width = 684;
},
{
layerId = "3FEB53C4-AE65-4B2F-B735-1C16ECFA7AEE";
paths = (
{
closed = 1;
nodes = (
"852 825 LINE",
"640 825 LINE",
"397 303 LINE",
"264 825 LINE",
"52 825 LINE",
"288 0 LINE",
"442 0 LINE"
);
}
);
width = 784;
}
);
leftKerningGroup = V;
rightKerningGroup = V;
unicode = 0056;
},
{
glyphname = W;
lastChange = "2017-03-22 17:52:50 +0000";
layers = (
{
layerId = "A4E552E4-62BE-43BB-A58F-34F0EE3B77B8";
paths = (
{
closed = 1;
nodes = (
"1136 825 LINE",
"928 825 LINE",
"787 259 LINE",
"782 259 LINE",
"632 825 LINE",
"490 825 LINE",
"340 259 LINE",
"335 259 LINE",
"194 825 LINE",
"-15 825 LINE",
"220 0 LINE",
"429 0 LINE",
"561 463 LINE",
"693 0 LINE",
"901 0 LINE"
);
}
);
width = 1136;
},
{
layerId = "7B60DD57-6012-4D0F-BD38-A72A4BAC0E9D";
paths = (
{
closed = 1;
nodes = (
"888 825 LINE",
"814 825 LINE",
"673 123 LINE",
"668 123 LINE",
"476 825 LINE",
"398 825 LINE",
"206 123 LINE",
"206 123 LINE",
"60 825 LINE",
"-15 825 LINE",
"166 0 LINE",
"245 0 LINE",
"437 703 LINE",
"629 0 LINE",
"707 0 LINE"
);
}
);
width = 888;
},
{
layerId = "3FEB53C4-AE65-4B2F-B735-1C16ECFA7AEE";
paths = (
{
closed = 1;
nodes = (
"1136 825 LINE",
"928 825 LINE",
"728 259 LINE",
"723 259 LINE",
"632 825 LINE",
"490 825 LINE",
"281 259 LINE",
"276 259 LINE",
"194 825 LINE",
"-15 825 LINE",
"133 0 LINE",
"342 0 LINE",
"523 463 LINE",
"606 0 LINE",
"814 0 LINE"
);
}
);
width = 1136;
}
);
leftKerningGroup = V;
rightKerningGroup = V;
unicode = 0057;
},
{
glyphname = X;
lastChange = "2017-03-22 17:52:50 +0000";
layers = (
{
layerId = "A4E552E4-62BE-43BB-A58F-34F0EE3B77B8";
paths = (
{
closed = 1;
nodes = (
"780 825 LINE",
"546 825 LINE",
"394 600 LINE",
"242 825 LINE",
"18 825 LINE",
"278 444 LINE",
"-24 0 LINE",
"209 0 LINE",
"394 281 LINE",
"579 0 LINE",
"822 0 LINE",
"510 444 LINE"
);
}
);
width = 798;
},
{
layerId = "7B60DD57-6012-4D0F-BD38-A72A4BAC0E9D";
paths = (
{
closed = 1;
nodes = (
"632 825 LINE",
"552 825 LINE",
"320 490 LINE",
"88 825 LINE",
"8 825 LINE",
"278 444 LINE",
"-24 0 LINE",
"55 0 LINE",
"320 391 LINE",
"585 0 LINE",
"664 0 LINE",
"362 444 LINE"
);
}
);
width = 640;
},
{
layerId = "3FEB53C4-AE65-4B2F-B735-1C16ECFA7AEE";
paths = (
{
closed = 1;
nodes = (
"780 825 LINE",
"546 825 LINE",
"370 600 LINE",
"242 825 LINE",
"18 825 LINE",
"238 444 LINE",
"-111 0 LINE",
"122 0 LINE",
"337 281 LINE",
"492 0 LINE",
"735 0 LINE",
"470 444 LINE"
);
}
);
width = 798;
}
);
rightKerningGroup = d;
unicode = 0058;
},
{
glyphname = Y;
lastChange = "2017-03-22 17:52:50 +0000";
layers = (
{
layerId = "A4E552E4-62BE-43BB-A58F-34F0EE3B77B8";
paths = (
{
closed = 1;
nodes = (
"274 0 LINE",
"462 0 LINE",
"462 370 LINE",
"746 825 LINE",
"520 825 LINE",
"368 561 LINE",
"216 825 LINE",
"-10 825 LINE",
"274 370 LINE"
);
}
);
width = 736;
},
{
layerId = "7B60DD57-6012-4D0F-BD38-A72A4BAC0E9D";
paths = (
{
closed = 1;
nodes = (
"264 0 LINE",
"332 0 LINE",
"332 320 LINE",
"606 825 LINE",
"530 825 LINE",
"298 384 LINE",
"66 825 LINE",
"-10 825 LINE",
"264 320 LINE"
);
}
);
width = 596;
},
{
layerId = "3FEB53C4-AE65-4B2F-B735-1C16ECFA7AEE";
paths = (
{
closed = 1;
nodes = (
"187 0 LINE",
"375 0 LINE",
"414 370 LINE",
"746 825 LINE",
"520 825 LINE",
"340 561 LINE",
"216 825 LINE",
"-10 825 LINE",
"226 370 LINE"
);
}
);
width = 736;
}
);
leftKerningGroup = Y;
rightKerningGroup = Y;
unicode = 0059;
},
{
glyphname = Yacute;
lastChange = "2017-03-22 17:52:50 +0000";
layers = (
{
layerId = "A4E552E4-62BE-43BB-A58F-34F0EE3B77B8";
paths = (
{
closed = 1;
nodes = (
"274 0 LINE",
"462 0 LINE",
"462 370 LINE",
"766 825 LINE",
"540 825 LINE",
"368 561 LINE",
"196 825 LINE",
"-30 825 LINE",
"274 370 LINE"
);
},
{
closed = 1;
nodes = (
"545 1037 LINE",
"454 1152 LINE",
"251 976 LINE",
"307 899 LINE"
);
}
);
width = 736;
},
{
layerId = "7B60DD57-6012-4D0F-BD38-A72A4BAC0E9D";
paths = (
{
closed = 1;
nodes = (
"274 0 LINE",
"462 0 LINE",
"462 370 LINE",
"766 825 LINE",
"540 825 LINE",
"368 561 LINE",
"196 825 LINE",
"-30 825 LINE",
"274 370 LINE"
);
},
{
closed = 1;
nodes = (
"545 1037 LINE",
"454 1152 LINE",
"251 976 LINE",
"307 899 LINE"
);
}
);
width = 736;
},
{
layerId = "3FEB53C4-AE65-4B2F-B735-1C16ECFA7AEE";
paths = (
{
closed = 1;
nodes = (
"187 0 LINE",
"375 0 LINE",
"414 370 LINE",
"766 825 LINE",
"540 825 LINE",
"340 561 LINE",
"196 825 LINE",
"-30 825 LINE",
"226 370 LINE"
);
},
{
closed = 1;
nodes = (
"567 1037 LINE",
"488 1152 LINE",
"267 976 LINE",
"315 899 LINE"
);
}
);
width = 736;
}
);
leftKerningGroup = Y;
rightKerningGroup = Y;
unicode = 00DD;
},
{
glyphname = Ydieresis;
lastChange = "2017-03-22 17:52:50 +0000";
layers = (
{
layerId = "A4E552E4-62BE-43BB-A58F-34F0EE3B77B8";
paths = (
{
closed = 1;
nodes = (
"274 0 LINE",
"462 0 LINE",
"462 370 LINE",
"766 825 LINE",
"540 825 LINE",
"368 561 LINE",
"196 825 LINE",
"-30 825 LINE",
"274 370 LINE"
);
},
{
closed = 1;
nodes = (
"198 1103 OFFCURVE",
"157 1062 OFFCURVE",
"157 1011 CURVE SMOOTH",
"157 960 OFFCURVE",
"198 919 OFFCURVE",
"249 919 CURVE SMOOTH",
"300 919 OFFCURVE",
"341 960 OFFCURVE",
"341 1011 CURVE SMOOTH",
"341 1062 OFFCURVE",
"300 1103 OFFCURVE",
"249 1103 CURVE SMOOTH"
);
},
{
closed = 1;
nodes = (
"435 1103 OFFCURVE",
"394 1062 OFFCURVE",
"394 1011 CURVE SMOOTH",
"394 960 OFFCURVE",
"435 919 OFFCURVE",
"486 919 CURVE SMOOTH",
"537 919 OFFCURVE",
"578 960 OFFCURVE",
"578 1011 CURVE SMOOTH",
"578 1062 OFFCURVE",
"537 1103 OFFCURVE",
"486 1103 CURVE SMOOTH"
);
}
);
width = 736;
},
{
layerId = "7B60DD57-6012-4D0F-BD38-A72A4BAC0E9D";
paths = (
{
closed = 1;
nodes = (
"274 0 LINE",
"462 0 LINE",
"462 370 LINE",
"766 825 LINE",
"540 825 LINE",
"368 561 LINE",
"196 825 LINE",
"-30 825 LINE",
"274 370 LINE"
);
},
{
closed = 1;
nodes = (
"198 1103 OFFCURVE",
"157 1062 OFFCURVE",
"157 1011 CURVE SMOOTH",
"157 960 OFFCURVE",
"198 919 OFFCURVE",
"249 919 CURVE SMOOTH",
"300 919 OFFCURVE",
"341 960 OFFCURVE",
"341 1011 CURVE SMOOTH",
"341 1062 OFFCURVE",
"300 1103 OFFCURVE",
"249 1103 CURVE SMOOTH"
);
},
{
closed = 1;
nodes = (
"435 1103 OFFCURVE",
"394 1062 OFFCURVE",
"394 1011 CURVE SMOOTH",
"394 960 OFFCURVE",
"435 919 OFFCURVE",
"486 919 CURVE SMOOTH",
"537 919 OFFCURVE",
"578 960 OFFCURVE",
"578 1011 CURVE SMOOTH",
"578 1062 OFFCURVE",
"537 1103 OFFCURVE",
"486 1103 CURVE SMOOTH"
);
}
);
width = 736;
},
{
layerId = "3FEB53C4-AE65-4B2F-B735-1C16ECFA7AEE";
paths = (
{
closed = 1;
nodes = (
"187 0 LINE",
"375 0 LINE",
"414 370 LINE",
"766 825 LINE",
"540 825 LINE",
"340 561 LINE",
"196 825 LINE",
"-30 825 LINE",
"226 370 LINE"
);
},
{
closed = 1;
nodes = (
"227 1103 OFFCURVE",
"182 1062 OFFCURVE",
"177 1011 CURVE SMOOTH",
"171 960 OFFCURVE",
"208 919 OFFCURVE",
"259 919 CURVE SMOOTH",
"310 919 OFFCURVE",
"355 960 OFFCURVE",
"361 1011 CURVE SMOOTH",
"366 1062 OFFCURVE",
"329 1103 OFFCURVE",
"278 1103 CURVE SMOOTH"
);
},
{
closed = 1;
nodes = (
"464 1103 OFFCURVE",
"419 1062 OFFCURVE",
"414 1011 CURVE SMOOTH",
"408 960 OFFCURVE",
"445 919 OFFCURVE",
"496 919 CURVE SMOOTH",
"547 919 OFFCURVE",
"592 960 OFFCURVE",
"598 1011 CURVE SMOOTH",
"603 1062 OFFCURVE",
"566 1103 OFFCURVE",
"515 1103 CURVE SMOOTH"
);
}
);
width = 736;
}
);
leftKerningGroup = Y;
rightKerningGroup = Y;
unicode = 0178;
},
{
glyphname = Z;
lastChange = "2017-03-22 17:52:50 +0000";
layers = (
{
layerId = "A4E552E4-62BE-43BB-A58F-34F0EE3B77B8";
paths = (
{
closed = 1;
nodes = (
"74 660 LINE",
"424 660 LINE",
"16 0 LINE",
"726 0 LINE",
"726 165 LINE",
"344 165 LINE",
"753 825 LINE",
"74 825 LINE"
);
}
);
width = 769;
},
{
layerId = "7B60DD57-6012-4D0F-BD38-A72A4BAC0E9D";
paths = (
{
closed = 1;
nodes = (
"73 760 LINE",
"510 760 LINE",
"15 0 LINE",
"605 0 LINE",
"605 65 LINE",
"140 65 LINE",
"632 825 LINE",
"73 825 LINE"
);
}
);
width = 647;
},
{
layerId = "3FEB53C4-AE65-4B2F-B735-1C16ECFA7AEE";
paths = (
{
closed = 1;
nodes = (
"57 660 LINE",
"407 660 LINE",
"-71 0 LINE",
"639 0 LINE",
"657 165 LINE",
"275 165 LINE",
"753 825 LINE",
"74 825 LINE"
);
}
);
width = 769;
}
);
unicode = 005A;
},
{
glyphname = Zacute;
lastChange = "2017-03-22 17:52:50 +0000";
layers = (
{
layerId = "A4E552E4-62BE-43BB-A58F-34F0EE3B77B8";
paths = (
{
closed = 1;
nodes = (
"74 660 LINE",
"424 660 LINE",
"16 0 LINE",
"726 0 LINE",
"726 165 LINE",
"344 165 LINE",
"753 825 LINE",
"74 825 LINE"
);
},
{
closed = 1;
nodes = (
"531 1037 LINE",
"440 1152 LINE",
"237 976 LINE",
"293 899 LINE"
);
}
);
width = 769;
},
{
layerId = "7B60DD57-6012-4D0F-BD38-A72A4BAC0E9D";
paths = (
{
closed = 1;
nodes = (
"74 660 LINE",
"424 660 LINE",
"16 0 LINE",
"726 0 LINE",
"726 165 LINE",
"344 165 LINE",
"753 825 LINE",
"74 825 LINE"
);
},
{
closed = 1;
nodes = (
"531 1037 LINE",
"440 1152 LINE",
"237 976 LINE",
"293 899 LINE"
);
}
);
width = 769;
},
{
layerId = "3FEB53C4-AE65-4B2F-B735-1C16ECFA7AEE";
paths = (
{
closed = 1;
nodes = (
"57 660 LINE",
"407 660 LINE",
"-71 0 LINE",
"639 0 LINE",
"657 165 LINE",
"275 165 LINE",
"753 825 LINE",
"74 825 LINE"
);
},
{
closed = 1;
nodes = (
"553 1037 LINE",
"474 1152 LINE",
"253 976 LINE",
"301 899 LINE"
);
}
);
width = 769;
}
);
rightKerningGroup = d;
unicode = 0179;
},
{
glyphname = Zcaron;
lastChange = "2017-03-22 17:52:50 +0000";
layers = (
{
layerId = "A4E552E4-62BE-43BB-A58F-34F0EE3B77B8";
paths = (
{
closed = 1;
nodes = (
"74 660 LINE",
"424 660 LINE",
"16 0 LINE",
"726 0 LINE",
"726 165 LINE",
"344 165 LINE",
"753 825 LINE",
"74 825 LINE"
);
},
{
closed = 1;
nodes = (
"384 899 LINE",
"605 1061 LINE",
"537 1152 LINE",
"384 1040 LINE",
"231 1152 LINE",
"163 1061 LINE"
);
}
);
width = 769;
},
{
layerId = "7B60DD57-6012-4D0F-BD38-A72A4BAC0E9D";
paths = (
{
closed = 1;
nodes = (
"74 660 LINE",
"424 660 LINE",
"16 0 LINE",
"726 0 LINE",
"726 165 LINE",
"344 165 LINE",
"753 825 LINE",
"74 825 LINE"
);
},
{
closed = 1;
nodes = (
"384 899 LINE",
"605 1061 LINE",
"537 1152 LINE",
"384 1040 LINE",
"231 1152 LINE",
"163 1061 LINE"
);
}
);
width = 769;
},
{
layerId = "3FEB53C4-AE65-4B2F-B735-1C16ECFA7AEE";
paths = (
{
closed = 1;
nodes = (
"57 660 LINE",
"407 660 LINE",
"-71 0 LINE",
"639 0 LINE",
"657 165 LINE",
"275 165 LINE",
"753 825 LINE",
"74 825 LINE"
);
},
{
closed = 1;
nodes = (
"392 899 LINE",
"630 1061 LINE",
"571 1152 LINE",
"407 1040 LINE",
"265 1152 LINE",
"188 1061 LINE"
);
}
);
width = 769;
}
);
rightKerningGroup = d;
unicode = 017D;
},
{
glyphname = Zdotaccent;
lastChange = "2017-03-22 17:52:50 +0000";
layers = (
{
layerId = "A4E552E4-62BE-43BB-A58F-34F0EE3B77B8";
paths = (
{
closed = 1;
nodes = (
"74 660 LINE",
"424 660 LINE",
"16 0 LINE",
"726 0 LINE",
"726 165 LINE",
"344 165 LINE",
"753 825 LINE",
"74 825 LINE"
);
},
{
closed = 1;
nodes = (
"333 1103 OFFCURVE",
"292 1062 OFFCURVE",
"292 1011 CURVE SMOOTH",
"292 960 OFFCURVE",
"333 919 OFFCURVE",
"384 919 CURVE SMOOTH",
"435 919 OFFCURVE",
"476 960 OFFCURVE",
"476 1011 CURVE SMOOTH",
"476 1062 OFFCURVE",
"435 1103 OFFCURVE",
"384 1103 CURVE SMOOTH"
);
}
);
width = 769;
},
{
layerId = "7B60DD57-6012-4D0F-BD38-A72A4BAC0E9D";
paths = (
{
closed = 1;
nodes = (
"74 660 LINE",
"424 660 LINE",
"16 0 LINE",
"726 0 LINE",
"726 165 LINE",
"344 165 LINE",
"753 825 LINE",
"74 825 LINE"
);
},
{
closed = 1;
nodes = (
"333 1103 OFFCURVE",
"292 1062 OFFCURVE",
"292 1011 CURVE SMOOTH",
"292 960 OFFCURVE",
"333 919 OFFCURVE",
"384 919 CURVE SMOOTH",
"435 919 OFFCURVE",
"476 960 OFFCURVE",
"476 1011 CURVE SMOOTH",
"476 1062 OFFCURVE",
"435 1103 OFFCURVE",
"384 1103 CURVE SMOOTH"
);
}
);
width = 769;
},
{
layerId = "3FEB53C4-AE65-4B2F-B735-1C16ECFA7AEE";
paths = (
{
closed = 1;
nodes = (
"57 660 LINE",
"407 660 LINE",
"-71 0 LINE",
"639 0 LINE",
"657 165 LINE",
"275 165 LINE",
"753 825 LINE",
"74 825 LINE"
);
},
{
closed = 1;
nodes = (
"362 1103 OFFCURVE",
"317 1062 OFFCURVE",
"312 1011 CURVE SMOOTH",
"306 960 OFFCURVE",
"343 919 OFFCURVE",
"394 919 CURVE SMOOTH",
"445 919 OFFCURVE",
"490 960 OFFCURVE",
"496 1011 CURVE SMOOTH",
"501 1062 OFFCURVE",
"464 1103 OFFCURVE",
"413 1103 CURVE SMOOTH"
);
}
);
width = 769;
}
);
rightKerningGroup = d;
unicode = 017B;
},
{
glyphname = C.ss01;
lastChange = "2017-03-22 17:52:50 +0000";
layers = (
{
layerId = "A4E552E4-62BE-43BB-A58F-34F0EE3B77B8";
paths = (
{
closed = 1;
nodes = (
"658 808 LINE",
"599 835 OFFCURVE",
"554 840 OFFCURVE",
"475 840 CURVE SMOOTH",
"234 840 OFFCURVE",
"23 654 OFFCURVE",
"23 413 CURVE SMOOTH",
"23 172 OFFCURVE",
"216 -15 OFFCURVE",
"475 -15 CURVE SMOOTH",
"545 -15 OFFCURVE",
"600 -11 OFFCURVE",
"658 15 CURVE",
"658 220 LINE",
"633 198 OFFCURVE",
"591 167 OFFCURVE",
"475 167 CURVE SMOOTH",
"312 167 OFFCURVE",
"234 290 OFFCURVE",
"234 413 CURVE SMOOTH",
"234 536 OFFCURVE",
"321 659 OFFCURVE",
"475 659 CURVE SMOOTH",
"590 659 OFFCURVE",
"633 626 OFFCURVE",
"658 603 CURVE"
);
}
);
width = 723;
},
{
layerId = "7B60DD57-6012-4D0F-BD38-A72A4BAC0E9D";
paths = (
{
closed = 1;
nodes = (
"658 808 LINE",
"599 835 OFFCURVE",
"554 840 OFFCURVE",
"475 840 CURVE SMOOTH",
"234 840 OFFCURVE",
"23 654 OFFCURVE",
"23 413 CURVE SMOOTH",
"23 172 OFFCURVE",
"216 -15 OFFCURVE",
"475 -15 CURVE SMOOTH",
"545 -15 OFFCURVE",
"600 -11 OFFCURVE",
"658 15 CURVE",
"658 220 LINE",
"633 198 OFFCURVE",
"591 167 OFFCURVE",
"475 167 CURVE SMOOTH",
"312 167 OFFCURVE",
"234 290 OFFCURVE",
"234 413 CURVE SMOOTH",
"234 536 OFFCURVE",
"321 659 OFFCURVE",
"475 659 CURVE SMOOTH",
"590 659 OFFCURVE",
"633 626 OFFCURVE",
"658 603 CURVE"
);
}
);
width = 723;
},
{
layerId = "3FEB53C4-AE65-4B2F-B735-1C16ECFA7AEE";
paths = (
{
closed = 1;
nodes = (
"656 808 LINE",
"600 835 OFFCURVE",
"556 840 OFFCURVE",
"477 840 CURVE SMOOTH",
"236 840 OFFCURVE",
"5 654 OFFCURVE",
"-20 413 CURVE SMOOTH",
"-46 172 OFFCURVE",
"128 -15 OFFCURVE",
"387 -15 CURVE SMOOTH",
"457 -15 OFFCURVE",
"512 -11 OFFCURVE",
"573 15 CURVE",
"594 220 LINE",
"567 198 OFFCURVE",
"522 167 OFFCURVE",
"406 167 CURVE SMOOTH",
"243 167 OFFCURVE",
"178 290 OFFCURVE",
"191 413 CURVE SMOOTH",
"204 536 OFFCURVE",
"304 659 OFFCURVE",
"458 659 CURVE SMOOTH",
"573 659 OFFCURVE",
"612 626 OFFCURVE",
"635 603 CURVE"
);
}
);
width = 723;
}
);
leftKerningGroup = C;
rightKerningGroup = C;
},
{
glyphname = Q.ss01;
lastChange = "2017-03-22 17:52:50 +0000";
layers = (
{
layerId = "A4E552E4-62BE-43BB-A58F-34F0EE3B77B8";
paths = (
{
closed = 1;
nodes = (
"261 -173 LINE",
"261 -173 OFFCURVE",
"305 -127 OFFCURVE",
"383 -127 CURVE SMOOTH",
"510 -127 OFFCURVE",
"561 -205 OFFCURVE",
"684 -205 CURVE SMOOTH",
"815 -205 OFFCURVE",
"868 -93 OFFCURVE",
"868 -93 CURVE",
"809 34 LINE",
"809 34 OFFCURVE",
"770 -20 OFFCURVE",
"685 -20 CURVE SMOOTH",
"636 -20 OFFCURVE",
"576 -1 OFFCURVE",
"557 -1 CURVE",
"557 3 LINE",
"728 55 OFFCURVE",
"844 216 OFFCURVE",
"844 413 CURVE SMOOTH",
"844 654 OFFCURVE",
"663 840 OFFCURVE",
"434 840 CURVE SMOOTH",
"207 840 OFFCURVE",
"23 654 OFFCURVE",
"23 413 CURVE SMOOTH",
"23 201 OFFCURVE",
"152 31 OFFCURVE",
"348 -7 CURVE",
"348 -11 LINE",
"288 -11 OFFCURVE",
"216 -105 OFFCURVE",
"216 -105 CURVE"
);
},
{
closed = 1;
nodes = (
"226 536 OFFCURVE",
"289 651 OFFCURVE",
"434 651 CURVE SMOOTH",
"580 651 OFFCURVE",
"641 536 OFFCURVE",
"641 413 CURVE SMOOTH",
"641 290 OFFCURVE",
"584 175 OFFCURVE",
"434 175 CURVE SMOOTH",
"280 175 OFFCURVE",
"226 290 OFFCURVE",
"226 413 CURVE SMOOTH"
);
}
);
width = 868;
},
{
layerId = "7B60DD57-6012-4D0F-BD38-A72A4BAC0E9D";
paths = (
{
closed = 1;
nodes = (
"261 -173 LINE",
"261 -173 OFFCURVE",
"305 -127 OFFCURVE",
"383 -127 CURVE SMOOTH",
"510 -127 OFFCURVE",
"561 -205 OFFCURVE",
"684 -205 CURVE SMOOTH",
"815 -205 OFFCURVE",
"868 -93 OFFCURVE",
"868 -93 CURVE",
"809 34 LINE",
"809 34 OFFCURVE",
"770 -20 OFFCURVE",
"685 -20 CURVE SMOOTH",
"636 -20 OFFCURVE",
"576 -1 OFFCURVE",
"557 -1 CURVE",
"557 3 LINE",
"728 55 OFFCURVE",
"844 216 OFFCURVE",
"844 413 CURVE SMOOTH",
"844 654 OFFCURVE",
"663 840 OFFCURVE",
"434 840 CURVE SMOOTH",
"207 840 OFFCURVE",
"23 654 OFFCURVE",
"23 413 CURVE SMOOTH",
"23 201 OFFCURVE",
"152 31 OFFCURVE",
"348 -7 CURVE",
"348 -11 LINE",
"288 -11 OFFCURVE",
"216 -105 OFFCURVE",
"216 -105 CURVE"
);
},
{
closed = 1;
nodes = (
"226 536 OFFCURVE",
"289 651 OFFCURVE",
"434 651 CURVE SMOOTH",
"580 651 OFFCURVE",
"641 536 OFFCURVE",
"641 413 CURVE SMOOTH",
"641 290 OFFCURVE",
"584 175 OFFCURVE",
"434 175 CURVE SMOOTH",
"280 175 OFFCURVE",
"226 290 OFFCURVE",
"226 413 CURVE SMOOTH"
);
}
);
width = 868;
},
{
layerId = "3FEB53C4-AE65-4B2F-B735-1C16ECFA7AEE";
paths = (
{
closed = 1;
nodes = (
"156 -173 LINE",
"156 -173 OFFCURVE",
"205 -127 OFFCURVE",
"283 -127 CURVE SMOOTH",
"410 -127 OFFCURVE",
"453 -205 OFFCURVE",
"576 -205 CURVE SMOOTH",
"707 -205 OFFCURVE",
"772 -93 OFFCURVE",
"772 -93 CURVE",
"726 34 LINE",
"726 34 OFFCURVE",
"681 -20 OFFCURVE",
"596 -20 CURVE SMOOTH",
"547 -20 OFFCURVE",
"489 -1 OFFCURVE",
"470 -1 CURVE",
"471 3 LINE",
"647 55 OFFCURVE",
"780 216 OFFCURVE",
"801 413 CURVE SMOOTH",
"826 654 OFFCURVE",
"665 840 OFFCURVE",
"436 840 CURVE SMOOTH",
"209 840 OFFCURVE",
"5 654 OFFCURVE",
"-20 413 CURVE SMOOTH",
"-43 201 OFFCURVE",
"69 31 OFFCURVE",
"261 -7 CURVE",
"260 -11 LINE",
"200 -11 OFFCURVE",
"118 -105 OFFCURVE",
"118 -105 CURVE"
);
},
{
closed = 1;
nodes = (
"196 536 OFFCURVE",
"271 651 OFFCURVE",
"416 651 CURVE SMOOTH",
"562 651 OFFCURVE",
"611 536 OFFCURVE",
"598 413 CURVE SMOOTH",
"585 290 OFFCURVE",
"516 175 OFFCURVE",
"366 175 CURVE SMOOTH",
"212 175 OFFCURVE",
"170 290 OFFCURVE",
"183 413 CURVE SMOOTH"
);
}
);
width = 868;
}
);
},
{
glyphname = R.ss01;
lastChange = "2017-03-22 17:52:50 +0000";
layers = (
{
layerId = "A4E552E4-62BE-43BB-A58F-34F0EE3B77B8";
paths = (
{
closed = 1;
nodes = (
"60 0 LINE",
"248 0 LINE",
"248 326 LINE",
"444 73 LINE",
"444 73 OFFCURVE",
"502 -15 OFFCURVE",
"607 -15 CURVE SMOOTH",
"697 -15 OFFCURVE",
"743 33 OFFCURVE",
"743 33 CURVE",
"689 169 LINE",
"689 169 OFFCURVE",
"670 154 OFFCURVE",
"643 154 CURVE SMOOTH",
"607 154 OFFCURVE",
"582 192 OFFCURVE",
"455 341 CURVE",
"556 373 OFFCURVE",
"624 456 OFFCURVE",
"624 580 CURVE SMOOTH",
"624 742 OFFCURVE",
"508 825 OFFCURVE",
"355 825 CURVE SMOOTH",
"60 825 LINE"
);
},
{
closed = 1;
nodes = (
"248 675 LINE",
"270 675 LINE SMOOTH",
"341 675 OFFCURVE",
"426 670 OFFCURVE",
"426 567 CURVE SMOOTH",
"426 464 OFFCURVE",
"341 459 OFFCURVE",
"270 459 CURVE SMOOTH",
"248 459 LINE"
);
}
);
width = 722;
},
{
layerId = "7B60DD57-6012-4D0F-BD38-A72A4BAC0E9D";
paths = (
{
closed = 1;
nodes = (
"60 0 LINE",
"248 0 LINE",
"248 326 LINE",
"444 73 LINE",
"444 73 OFFCURVE",
"502 -15 OFFCURVE",
"607 -15 CURVE SMOOTH",
"697 -15 OFFCURVE",
"743 33 OFFCURVE",
"743 33 CURVE",
"689 169 LINE",
"689 169 OFFCURVE",
"670 154 OFFCURVE",
"643 154 CURVE SMOOTH",
"607 154 OFFCURVE",
"582 192 OFFCURVE",
"455 341 CURVE",
"556 373 OFFCURVE",
"624 456 OFFCURVE",
"624 580 CURVE SMOOTH",
"624 742 OFFCURVE",
"508 825 OFFCURVE",
"355 825 CURVE SMOOTH",
"60 825 LINE"
);
},
{
closed = 1;
nodes = (
"248 675 LINE",
"270 675 LINE SMOOTH",
"341 675 OFFCURVE",
"426 670 OFFCURVE",
"426 567 CURVE SMOOTH",
"426 464 OFFCURVE",
"341 459 OFFCURVE",
"270 459 CURVE SMOOTH",
"248 459 LINE"
);
}
);
width = 722;
},
{
layerId = "3FEB53C4-AE65-4B2F-B735-1C16ECFA7AEE";
paths = (
{
closed = 1;
nodes = (
"-27 0 LINE",
"161 0 LINE",
"196 326 LINE",
"365 73 LINE",
"365 73 OFFCURVE",
"414 -15 OFFCURVE",
"519 -15 CURVE SMOOTH",
"609 -15 OFFCURVE",
"660 33 OFFCURVE",
"660 33 CURVE",
"620 169 LINE",
"620 169 OFFCURVE",
"599 154 OFFCURVE",
"572 154 CURVE SMOOTH",
"536 154 OFFCURVE",
"515 192 OFFCURVE",
"404 341 CURVE",
"508 373 OFFCURVE",
"585 456 OFFCURVE",
"598 580 CURVE SMOOTH",
"615 742 OFFCURVE",
"508 825 OFFCURVE",
"355 825 CURVE SMOOTH",
"60 825 LINE"
);
},
{
closed = 1;
nodes = (
"232 675 LINE",
"254 675 LINE SMOOTH",
"325 675 OFFCURVE",
"410 670 OFFCURVE",
"399 567 CURVE SMOOTH",
"388 464 OFFCURVE",
"303 459 OFFCURVE",
"232 459 CURVE SMOOTH",
"210 459 LINE"
);
}
);
width = 722;
}
);
rightKerningGroup = R;
},
{
glyphname = Q.ss02;
lastChange = "2017-03-22 17:52:50 +0000";
layers = (
{
layerId = "A4E552E4-62BE-43BB-A58F-34F0EE3B77B8";
paths = (
{
closed = 1;
nodes = (
"896 142 LINE",
"847 155 OFFCURVE",
"810 169 OFFCURVE",
"783 182 CURVE",
"822 248 OFFCURVE",
"844 327 OFFCURVE",
"844 413 CURVE SMOOTH",
"844 654 OFFCURVE",
"663 840 OFFCURVE",
"434 840 CURVE SMOOTH",
"207 840 OFFCURVE",
"23 654 OFFCURVE",
"23 413 CURVE SMOOTH",
"23 172 OFFCURVE",
"190 -15 OFFCURVE",
"434 -15 CURVE SMOOTH",
"520 -15 OFFCURVE",
"598 9 OFFCURVE",
"662 53 CURVE",
"699 27 OFFCURVE",
"752 -3 OFFCURVE",
"813 -26 CURVE"
);
},
{
closed = 1;
nodes = (
"226 536 OFFCURVE",
"289 651 OFFCURVE",
"434 651 CURVE SMOOTH",
"580 651 OFFCURVE",
"641 536 OFFCURVE",
"641 413 CURVE SMOOTH",
"641 363 OFFCURVE",
"632 315 OFFCURVE",
"611 275 CURVE",
"527 332 OFFCURVE",
"471 394 OFFCURVE",
"471 394 CURVE",
"391 294 LINE",
"409 271 OFFCURVE",
"446 226 OFFCURVE",
"493 182 CURVE",
"475 177 OFFCURVE",
"455 175 OFFCURVE",
"434 175 CURVE SMOOTH",
"280 175 OFFCURVE",
"226 290 OFFCURVE",
"226 413 CURVE SMOOTH"
);
}
);
width = 876;
},
{
layerId = "7B60DD57-6012-4D0F-BD38-A72A4BAC0E9D";
paths = (
{
closed = 1;
nodes = (
"896 142 LINE",
"847 155 OFFCURVE",
"810 169 OFFCURVE",
"783 182 CURVE",
"822 248 OFFCURVE",
"844 327 OFFCURVE",
"844 413 CURVE SMOOTH",
"844 654 OFFCURVE",
"663 840 OFFCURVE",
"434 840 CURVE SMOOTH",
"207 840 OFFCURVE",
"23 654 OFFCURVE",
"23 413 CURVE SMOOTH",
"23 172 OFFCURVE",
"190 -15 OFFCURVE",
"434 -15 CURVE SMOOTH",
"520 -15 OFFCURVE",
"598 9 OFFCURVE",
"662 53 CURVE",
"699 27 OFFCURVE",
"752 -3 OFFCURVE",
"813 -26 CURVE"
);
},
{
closed = 1;
nodes = (
"226 536 OFFCURVE",
"289 651 OFFCURVE",
"434 651 CURVE SMOOTH",
"580 651 OFFCURVE",
"641 536 OFFCURVE",
"641 413 CURVE SMOOTH",
"641 363 OFFCURVE",
"632 315 OFFCURVE",
"611 275 CURVE",
"527 332 OFFCURVE",
"471 394 OFFCURVE",
"471 394 CURVE",
"391 294 LINE",
"409 271 OFFCURVE",
"446 226 OFFCURVE",
"493 182 CURVE",
"475 177 OFFCURVE",
"455 175 OFFCURVE",
"434 175 CURVE SMOOTH",
"280 175 OFFCURVE",
"226 290 OFFCURVE",
"226 413 CURVE SMOOTH"
);
}
);
width = 876;
},
{
layerId = "3FEB53C4-AE65-4B2F-B735-1C16ECFA7AEE";
paths = (
{
closed = 1;
nodes = (
"824 142 LINE",
"777 155 OFFCURVE",
"741 169 OFFCURVE",
"715 182 CURVE",
"761 248 OFFCURVE",
"792 327 OFFCURVE",
"801 413 CURVE SMOOTH",
"826 654 OFFCURVE",
"665 840 OFFCURVE",
"436 840 CURVE SMOOTH",
"209 840 OFFCURVE",
"5 654 OFFCURVE",
"-20 413 CURVE SMOOTH",
"-46 172 OFFCURVE",
"102 -15 OFFCURVE",
"346 -15 CURVE SMOOTH",
"432 -15 OFFCURVE",
"512 9 OFFCURVE",
"581 53 CURVE",
"615 27 OFFCURVE",
"665 -3 OFFCURVE",
"724 -26 CURVE"
);
},
{
closed = 1;
nodes = (
"196 536 OFFCURVE",
"271 651 OFFCURVE",
"416 651 CURVE SMOOTH",
"562 651 OFFCURVE",
"611 536 OFFCURVE",
"598 413 CURVE SMOOTH",
"592 363 OFFCURVE",
"578 315 OFFCURVE",
"553 275 CURVE",
"475 332 OFFCURVE",
"426 394 OFFCURVE",
"426 394 CURVE",
"335 294 LINE",
"351 271 OFFCURVE",
"383 226 OFFCURVE",
"425 182 CURVE",
"407 177 OFFCURVE",
"387 175 OFFCURVE",
"366 175 CURVE SMOOTH",
"212 175 OFFCURVE",
"170 290 OFFCURVE",
"183 413 CURVE SMOOTH"
);
}
);
width = 876;
}
);
leftKerningGroup = G;
rightKerningGroup = d;
},
{
glyphname = a;
lastChange = "2017-03-25 13:15:00 +0000";
layers = (
{
layerId = "A4E552E4-62BE-43BB-A58F-34F0EE3B77B8";
paths = (
{
closed = 1;
nodes = (
"23 106 OFFCURVE",
"128 -15 OFFCURVE",
"278 -15 CURVE SMOOTH",
"378 -15 OFFCURVE",
"435 52 OFFCURVE",
"446 78 CURVE",
"448 78 LINE",
"448 0 LINE",
"623 0 LINE",
"623 513 LINE",
"446 513 LINE",
"446 444 LINE",
"430 475 OFFCURVE",
"377 528 OFFCURVE",
"278 528 CURVE SMOOTH",
"128 528 OFFCURVE",
"23 406 OFFCURVE",
"23 256 CURVE SMOOTH"
);
},
{
closed = 1;
nodes = (
"211 327 OFFCURVE",
"264 377 OFFCURVE",
"331 377 CURVE SMOOTH",
"397 377 OFFCURVE",
"446 327 OFFCURVE",
"446 256 CURVE SMOOTH",
"446 186 OFFCURVE",
"400 136 OFFCURVE",
"331 136 CURVE SMOOTH",
"259 136 OFFCURVE",
"211 186 OFFCURVE",
"211 256 CURVE SMOOTH"
);
}
);
width = 683;
},
{
layerId = "7B60DD57-6012-4D0F-BD38-A72A4BAC0E9D";
paths = (
{
closed = 1;
nodes = (
"23 86 OFFCURVE",
"131 -15 OFFCURVE",
"271 -15 CURVE SMOOTH",
"391 -15 OFFCURVE",
"462 62 OFFCURVE",
"468 91 CURVE",
"470 91 LINE",
"470 0 LINE",
"538 0 LINE",
"538 513 LINE",
"468 513 LINE",
"468 424 LINE",
"461 457 OFFCURVE",
"390 528 OFFCURVE",
"271 528 CURVE SMOOTH",
"131 528 OFFCURVE",
"23 426 OFFCURVE",
"23 256 CURVE SMOOTH"
);
},
{
closed = 1;
nodes = (
"93 387 OFFCURVE",
"172 464 OFFCURVE",
"271 464 CURVE SMOOTH",
"380 464 OFFCURVE",
"468 377 OFFCURVE",
"468 256 CURVE SMOOTH",
"468 136 OFFCURVE",
"383 49 OFFCURVE",
"271 49 CURVE SMOOTH",
"172 49 OFFCURVE",
"93 126 OFFCURVE",
"93 256 CURVE SMOOTH"
);
}
);
width = 598;
},
{
anchors = (
{
name = bottom;
position = "{377, -2}";
},
{
name = ogonek;
position = "{650, 10}";
},
{
name = top;
position = "{411, 513}";
}
);
background = {
components = (
{
name = q;
transform = "{1, 0, 0, 1, 60, 0}";
}
);
};
guideLines = (
{
angle = 84;
position = "{446, 238}";
}
);
layerId = "3FEB53C4-AE65-4B2F-B735-1C16ECFA7AEE";
paths = (
{
closed = 1;
nodes = (
"9 106 OFFCURVE",
"104 -23 OFFCURVE",
"254 -11 CURVE SMOOTH",
"382 -1 OFFCURVE",
"428 124 OFFCURVE",
"438 153 CURVE",
"433 104 LINE",
"422 0 LINE",
"599 0 LINE",
"652 512 LINE",
"589 519 OFFCURVE",
"512 524 OFFCURVE",
"415 525 CURVE SMOOTH",
"136 528 OFFCURVE",
"41 406 OFFCURVE",
"25 256 CURVE SMOOTH"
);
},
{
closed = 1;
nodes = (
"217 346 OFFCURVE",
"279 381 OFFCURVE",
"346 380 CURVE SMOOTH",
"458 379 LINE",
"454 332 LINE SMOOTH",
"445 222 OFFCURVE",
"384 155 OFFCURVE",
"316 155 CURVE SMOOTH",
"244 155 OFFCURVE",
"203 205 OFFCURVE",
"210 275 CURVE SMOOTH"
);
}
);
width = 686;
}
);
leftKerningGroup = aacute;
leftMetricsKey = o;
rightKerningGroup = aacute;
unicode = 0061;
},
{
glyphname = aacute;
lastChange = "2017-03-25 13:39:07 +0000";
layers = (
{
layerId = "A4E552E4-62BE-43BB-A58F-34F0EE3B77B8";
paths = (
{
closed = 1;
nodes = (
"23 406 OFFCURVE",
"128 528 OFFCURVE",
"278 528 CURVE SMOOTH",
"347 528 OFFCURVE",
"404 505 OFFCURVE",
"446 464 CURVE",
"446 513 LINE",
"623 513 LINE",
"623 0 LINE",
"448 0 LINE",
"448 58 LINE",
"446 58 LINE",
"408 16 OFFCURVE",
"348 -15 OFFCURVE",
"278 -15 CURVE SMOOTH",
"128 -15 OFFCURVE",
"23 106 OFFCURVE",
"23 256 CURVE SMOOTH"
);
},
{
closed = 1;
nodes = (
"211 186 OFFCURVE",
"259 136 OFFCURVE",
"331 136 CURVE SMOOTH",
"400 136 OFFCURVE",
"450 186 OFFCURVE",
"450 256 CURVE SMOOTH",
"450 327 OFFCURVE",
"397 377 OFFCURVE",
"331 377 CURVE SMOOTH",
"264 377 OFFCURVE",
"211 327 OFFCURVE",
"211 256 CURVE SMOOTH"
);
},
{
closed = 1;
nodes = (
"577 725 LINE",
"486 840 LINE",
"283 664 LINE",
"339 587 LINE"
);
}
);
width = 683;
},
{
layerId = "7B60DD57-6012-4D0F-BD38-A72A4BAC0E9D";
paths = (
{
closed = 1;
nodes = (
"23 406 OFFCURVE",
"128 528 OFFCURVE",
"278 528 CURVE SMOOTH",
"347 528 OFFCURVE",
"404 505 OFFCURVE",
"446 464 CURVE",
"446 513 LINE",
"623 513 LINE",
"623 0 LINE",
"448 0 LINE",
"448 58 LINE",
"446 58 LINE",
"408 16 OFFCURVE",
"348 -15 OFFCURVE",
"278 -15 CURVE SMOOTH",
"128 -15 OFFCURVE",
"23 106 OFFCURVE",
"23 256 CURVE SMOOTH"
);
},
{
closed = 1;
nodes = (
"211 186 OFFCURVE",
"259 136 OFFCURVE",
"331 136 CURVE SMOOTH",
"400 136 OFFCURVE",
"450 186 OFFCURVE",
"450 256 CURVE SMOOTH",
"450 327 OFFCURVE",
"397 377 OFFCURVE",
"331 377 CURVE SMOOTH",
"264 377 OFFCURVE",
"211 327 OFFCURVE",
"211 256 CURVE SMOOTH"
);
},
{
closed = 1;
nodes = (
"577 725 LINE",
"486 840 LINE",
"283 664 LINE",
"339 587 LINE"
);
}
);
width = 683;
},
{
components = (
{
name = a;
},
{
name = acute;
transform = "{1, 0, 0, 1, 199, 0}";
}
);
layerId = "3FEB53C4-AE65-4B2F-B735-1C16ECFA7AEE";
width = 686;
}
);
leftKerningGroup = aacute;
rightKerningGroup = aacute;
unicode = 00E1;
},
{
glyphname = abreve;
lastChange = "2017-03-22 17:52:50 +0000";
layers = (
{
layerId = "A4E552E4-62BE-43BB-A58F-34F0EE3B77B8";
paths = (
{
closed = 1;
nodes = (
"23 106 OFFCURVE",
"128 -15 OFFCURVE",
"278 -15 CURVE SMOOTH",
"348 -15 OFFCURVE",
"408 16 OFFCURVE",
"446 58 CURVE",
"448 58 LINE",
"448 0 LINE",
"623 0 LINE",
"623 513 LINE",
"446 513 LINE",
"446 464 LINE",
"404 505 OFFCURVE",
"347 528 OFFCURVE",
"278 528 CURVE SMOOTH",
"128 528 OFFCURVE",
"23 406 OFFCURVE",
"23 256 CURVE SMOOTH"
);
},
{
closed = 1;
nodes = (
"211 327 OFFCURVE",
"264 377 OFFCURVE",
"331 377 CURVE SMOOTH",
"397 377 OFFCURVE",
"450 327 OFFCURVE",
"450 256 CURVE SMOOTH",
"450 186 OFFCURVE",
"400 136 OFFCURVE",
"331 136 CURVE SMOOTH",
"259 136 OFFCURVE",
"211 186 OFFCURVE",
"211 256 CURVE SMOOTH"
);
},
{
closed = 1;
nodes = (
"446 840 LINE",
"446 840 OFFCURVE",
"435 737 OFFCURVE",
"341 737 CURVE SMOOTH",
"247 737 OFFCURVE",
"236 840 OFFCURVE",
"236 840 CURVE",
"110 809 LINE",
"122 702 OFFCURVE",
"212 628 OFFCURVE",
"341 628 CURVE SMOOTH",
"470 628 OFFCURVE",
"560 702 OFFCURVE",
"572 809 CURVE"
);
}
);
width = 683;
},
{
layerId = "7B60DD57-6012-4D0F-BD38-A72A4BAC0E9D";
paths = (
{
closed = 1;
nodes = (
"23 106 OFFCURVE",
"128 -15 OFFCURVE",
"278 -15 CURVE SMOOTH",
"348 -15 OFFCURVE",
"408 16 OFFCURVE",
"446 58 CURVE",
"448 58 LINE",
"448 0 LINE",
"623 0 LINE",
"623 513 LINE",
"446 513 LINE",
"446 464 LINE",
"404 505 OFFCURVE",
"347 528 OFFCURVE",
"278 528 CURVE SMOOTH",
"128 528 OFFCURVE",
"23 406 OFFCURVE",
"23 256 CURVE SMOOTH"
);
},
{
closed = 1;
nodes = (
"211 327 OFFCURVE",
"264 377 OFFCURVE",
"331 377 CURVE SMOOTH",
"397 377 OFFCURVE",
"450 327 OFFCURVE",
"450 256 CURVE SMOOTH",
"450 186 OFFCURVE",
"400 136 OFFCURVE",
"331 136 CURVE SMOOTH",
"259 136 OFFCURVE",
"211 186 OFFCURVE",
"211 256 CURVE SMOOTH"
);
},
{
closed = 1;
nodes = (
"446 840 LINE",
"446 840 OFFCURVE",
"435 737 OFFCURVE",
"341 737 CURVE SMOOTH",
"247 737 OFFCURVE",
"236 840 OFFCURVE",
"236 840 CURVE",
"110 809 LINE",
"122 702 OFFCURVE",
"212 628 OFFCURVE",
"341 628 CURVE SMOOTH",
"470 628 OFFCURVE",
"560 702 OFFCURVE",
"572 809 CURVE"
);
}
);
width = 683;
},
{
layerId = "3FEB53C4-AE65-4B2F-B735-1C16ECFA7AEE";
paths = (
{
closed = 1;
nodes = (
"-53 106 OFFCURVE",
"40 -15 OFFCURVE",
"190 -15 CURVE SMOOTH",
"260 -15 OFFCURVE",
"323 16 OFFCURVE",
"365 58 CURVE",
"367 58 LINE",
"361 0 LINE",
"536 0 LINE",
"590 513 LINE",
"413 513 LINE",
"408 464 LINE",
"370 505 OFFCURVE",
"316 528 OFFCURVE",
"247 528 CURVE SMOOTH",
"97 528 OFFCURVE",
"-21 406 OFFCURVE",
"-37 256 CURVE SMOOTH"
);
},
{
closed = 1;
nodes = (
"159 327 OFFCURVE",
"217 377 OFFCURVE",
"284 377 CURVE SMOOTH",
"350 377 OFFCURVE",
"398 327 OFFCURVE",
"390 256 CURVE SMOOTH",
"383 186 OFFCURVE",
"328 136 OFFCURVE",
"259 136 CURVE SMOOTH",
"187 136 OFFCURVE",
"144 186 OFFCURVE",
"151 256 CURVE SMOOTH"
);
},
{
closed = 1;
nodes = (
"448 840 LINE",
"448 840 OFFCURVE",
"426 737 OFFCURVE",
"332 737 CURVE SMOOTH",
"238 737 OFFCURVE",
"238 840 OFFCURVE",
"238 840 CURVE",
"108 809 LINE",
"109 702 OFFCURVE",
"191 628 OFFCURVE",
"320 628 CURVE SMOOTH",
"449 628 OFFCURVE",
"547 702 OFFCURVE",
"570 809 CURVE"
);
}
);
width = 683;
}
);
leftKerningGroup = aacute;
rightKerningGroup = aacute;
unicode = 0103;
},
{
glyphname = acircumflex;
lastChange = "2017-03-22 17:52:50 +0000";
layers = (
{
layerId = "A4E552E4-62BE-43BB-A58F-34F0EE3B77B8";
paths = (
{
closed = 1;
nodes = (
"23 406 OFFCURVE",
"128 528 OFFCURVE",
"278 528 CURVE SMOOTH",
"347 528 OFFCURVE",
"404 505 OFFCURVE",
"446 464 CURVE",
"446 513 LINE",
"623 513 LINE",
"623 0 LINE",
"448 0 LINE",
"448 58 LINE",
"446 58 LINE",
"408 16 OFFCURVE",
"348 -15 OFFCURVE",
"278 -15 CURVE SMOOTH",
"128 -15 OFFCURVE",
"23 106 OFFCURVE",
"23 256 CURVE SMOOTH"
);
},
{
closed = 1;
nodes = (
"211 186 OFFCURVE",
"259 136 OFFCURVE",
"331 136 CURVE SMOOTH",
"400 136 OFFCURVE",
"450 186 OFFCURVE",
"450 256 CURVE SMOOTH",
"450 327 OFFCURVE",
"397 377 OFFCURVE",
"331 377 CURVE SMOOTH",
"264 377 OFFCURVE",
"211 327 OFFCURVE",
"211 256 CURVE SMOOTH"
);
},
{
closed = 1;
nodes = (
"341 699 LINE",
"494 587 LINE",
"562 678 LINE",
"341 840 LINE",
"120 678 LINE",
"188 587 LINE"
);
}
);
width = 683;
},
{
layerId = "7B60DD57-6012-4D0F-BD38-A72A4BAC0E9D";
paths = (
{
closed = 1;
nodes = (
"23 406 OFFCURVE",
"128 528 OFFCURVE",
"278 528 CURVE SMOOTH",
"347 528 OFFCURVE",
"404 505 OFFCURVE",
"446 464 CURVE",
"446 513 LINE",
"623 513 LINE",
"623 0 LINE",
"448 0 LINE",
"448 58 LINE",
"446 58 LINE",
"408 16 OFFCURVE",
"348 -15 OFFCURVE",
"278 -15 CURVE SMOOTH",
"128 -15 OFFCURVE",
"23 106 OFFCURVE",
"23 256 CURVE SMOOTH"
);
},
{
closed = 1;
nodes = (
"211 186 OFFCURVE",
"259 136 OFFCURVE",
"331 136 CURVE SMOOTH",
"400 136 OFFCURVE",
"450 186 OFFCURVE",
"450 256 CURVE SMOOTH",
"450 327 OFFCURVE",
"397 377 OFFCURVE",
"331 377 CURVE SMOOTH",
"264 377 OFFCURVE",
"211 327 OFFCURVE",
"211 256 CURVE SMOOTH"
);
},
{
closed = 1;
nodes = (
"341 699 LINE",
"494 587 LINE",
"562 678 LINE",
"341 840 LINE",
"120 678 LINE",
"188 587 LINE"
);
}
);
width = 683;
},
{
layerId = "3FEB53C4-AE65-4B2F-B735-1C16ECFA7AEE";
paths = (
{
closed = 1;
nodes = (
"-21 406 OFFCURVE",
"97 528 OFFCURVE",
"247 528 CURVE SMOOTH",
"316 528 OFFCURVE",
"370 505 OFFCURVE",
"408 464 CURVE",
"413 513 LINE",
"590 513 LINE",
"536 0 LINE",
"361 0 LINE",
"367 58 LINE",
"365 58 LINE",
"323 16 OFFCURVE",
"260 -15 OFFCURVE",
"190 -15 CURVE SMOOTH",
"40 -15 OFFCURVE",
"-53 106 OFFCURVE",
"-37 256 CURVE SMOOTH"
);
},
{
closed = 1;
nodes = (
"144 186 OFFCURVE",
"187 136 OFFCURVE",
"259 136 CURVE SMOOTH",
"328 136 OFFCURVE",
"383 186 OFFCURVE",
"390 256 CURVE SMOOTH",
"398 327 OFFCURVE",
"350 377 OFFCURVE",
"284 377 CURVE SMOOTH",
"217 377 OFFCURVE",
"159 327 OFFCURVE",
"151 256 CURVE SMOOTH"
);
},
{
closed = 1;
nodes = (
"328 699 LINE",
"469 587 LINE",
"547 678 LINE",
"343 840 LINE",
"105 678 LINE",
"163 587 LINE"
);
}
);
width = 683;
}
);
leftKerningGroup = aacute;
rightKerningGroup = aacute;
unicode = 00E2;
},
{
glyphname = adieresis;
lastChange = "2017-03-22 17:52:50 +0000";
layers = (
{
layerId = "A4E552E4-62BE-43BB-A58F-34F0EE3B77B8";
paths = (
{
closed = 1;
nodes = (
"23 406 OFFCURVE",
"128 528 OFFCURVE",
"278 528 CURVE SMOOTH",
"347 528 OFFCURVE",
"404 505 OFFCURVE",
"446 464 CURVE",
"446 513 LINE",
"623 513 LINE",
"623 0 LINE",
"448 0 LINE",
"448 58 LINE",
"446 58 LINE",
"408 16 OFFCURVE",
"348 -15 OFFCURVE",
"278 -15 CURVE SMOOTH",
"128 -15 OFFCURVE",
"23 106 OFFCURVE",
"23 256 CURVE SMOOTH"
);
},
{
closed = 1;
nodes = (
"211 186 OFFCURVE",
"259 136 OFFCURVE",
"331 136 CURVE SMOOTH",
"400 136 OFFCURVE",
"450 186 OFFCURVE",
"450 256 CURVE SMOOTH",
"450 327 OFFCURVE",
"397 377 OFFCURVE",
"331 377 CURVE SMOOTH",
"264 377 OFFCURVE",
"211 327 OFFCURVE",
"211 256 CURVE SMOOTH"
);
},
{
closed = 1;
nodes = (
"172 791 OFFCURVE",
"131 750 OFFCURVE",
"131 699 CURVE SMOOTH",
"131 648 OFFCURVE",
"172 607 OFFCURVE",
"223 607 CURVE SMOOTH",
"274 607 OFFCURVE",
"315 648 OFFCURVE",
"315 699 CURVE SMOOTH",
"315 750 OFFCURVE",
"274 791 OFFCURVE",
"223 791 CURVE SMOOTH"
);
},
{
closed = 1;
nodes = (
"409 791 OFFCURVE",
"368 750 OFFCURVE",
"368 699 CURVE SMOOTH",
"368 648 OFFCURVE",
"409 607 OFFCURVE",
"460 607 CURVE SMOOTH",
"511 607 OFFCURVE",
"552 648 OFFCURVE",
"552 699 CURVE SMOOTH",
"552 750 OFFCURVE",
"511 791 OFFCURVE",
"460 791 CURVE SMOOTH"
);
}
);
width = 683;
},
{
layerId = "7B60DD57-6012-4D0F-BD38-A72A4BAC0E9D";
paths = (
{
closed = 1;
nodes = (
"23 406 OFFCURVE",
"128 528 OFFCURVE",
"278 528 CURVE SMOOTH",
"347 528 OFFCURVE",
"404 505 OFFCURVE",
"446 464 CURVE",
"446 513 LINE",
"623 513 LINE",
"623 0 LINE",
"448 0 LINE",
"448 58 LINE",
"446 58 LINE",
"408 16 OFFCURVE",
"348 -15 OFFCURVE",
"278 -15 CURVE SMOOTH",
"128 -15 OFFCURVE",
"23 106 OFFCURVE",
"23 256 CURVE SMOOTH"
);
},
{
closed = 1;
nodes = (
"211 186 OFFCURVE",
"259 136 OFFCURVE",
"331 136 CURVE SMOOTH",
"400 136 OFFCURVE",
"450 186 OFFCURVE",
"450 256 CURVE SMOOTH",
"450 327 OFFCURVE",
"397 377 OFFCURVE",
"331 377 CURVE SMOOTH",
"264 377 OFFCURVE",
"211 327 OFFCURVE",
"211 256 CURVE SMOOTH"
);
},
{
closed = 1;
nodes = (
"172 791 OFFCURVE",
"131 750 OFFCURVE",
"131 699 CURVE SMOOTH",
"131 648 OFFCURVE",
"172 607 OFFCURVE",
"223 607 CURVE SMOOTH",
"274 607 OFFCURVE",
"315 648 OFFCURVE",
"315 699 CURVE SMOOTH",
"315 750 OFFCURVE",
"274 791 OFFCURVE",
"223 791 CURVE SMOOTH"
);
},
{
closed = 1;
nodes = (
"409 791 OFFCURVE",
"368 750 OFFCURVE",
"368 699 CURVE SMOOTH",
"368 648 OFFCURVE",
"409 607 OFFCURVE",
"460 607 CURVE SMOOTH",
"511 607 OFFCURVE",
"552 648 OFFCURVE",
"552 699 CURVE SMOOTH",
"552 750 OFFCURVE",
"511 791 OFFCURVE",
"460 791 CURVE SMOOTH"
);
}
);
width = 683;
},
{
layerId = "3FEB53C4-AE65-4B2F-B735-1C16ECFA7AEE";
paths = (
{
closed = 1;
nodes = (
"-21 406 OFFCURVE",
"97 528 OFFCURVE",
"247 528 CURVE SMOOTH",
"316 528 OFFCURVE",
"370 505 OFFCURVE",
"408 464 CURVE",
"413 513 LINE",
"590 513 LINE",
"536 0 LINE",
"361 0 LINE",
"367 58 LINE",
"365 58 LINE",
"323 16 OFFCURVE",
"260 -15 OFFCURVE",
"190 -15 CURVE SMOOTH",
"40 -15 OFFCURVE",
"-53 106 OFFCURVE",
"-37 256 CURVE SMOOTH"
);
},
{
closed = 1;
nodes = (
"144 186 OFFCURVE",
"187 136 OFFCURVE",
"259 136 CURVE SMOOTH",
"328 136 OFFCURVE",
"383 186 OFFCURVE",
"390 256 CURVE SMOOTH",
"398 327 OFFCURVE",
"350 377 OFFCURVE",
"284 377 CURVE SMOOTH",
"217 377 OFFCURVE",
"159 327 OFFCURVE",
"151 256 CURVE SMOOTH"
);
},
{
closed = 1;
nodes = (
"168 791 OFFCURVE",
"123 750 OFFCURVE",
"118 699 CURVE SMOOTH",
"112 648 OFFCURVE",
"149 607 OFFCURVE",
"200 607 CURVE SMOOTH",
"251 607 OFFCURVE",
"296 648 OFFCURVE",
"302 699 CURVE SMOOTH",
"307 750 OFFCURVE",
"270 791 OFFCURVE",
"219 791 CURVE SMOOTH"
);
},
{
closed = 1;
nodes = (
"405 791 OFFCURVE",
"360 750 OFFCURVE",
"355 699 CURVE SMOOTH",
"349 648 OFFCURVE",
"386 607 OFFCURVE",
"437 607 CURVE SMOOTH",
"488 607 OFFCURVE",
"533 648 OFFCURVE",
"539 699 CURVE SMOOTH",
"544 750 OFFCURVE",
"507 791 OFFCURVE",
"456 791 CURVE SMOOTH"
);
}
);
width = 683;
}
);
leftKerningGroup = aacute;
rightKerningGroup = aacute;
unicode = 00E4;
},
{
glyphname = agrave;
lastChange = "2017-03-22 17:52:50 +0000";
layers = (
{
layerId = "A4E552E4-62BE-43BB-A58F-34F0EE3B77B8";
paths = (
{
closed = 1;
nodes = (
"23 406 OFFCURVE",
"128 528 OFFCURVE",
"278 528 CURVE SMOOTH",
"347 528 OFFCURVE",
"404 505 OFFCURVE",
"446 464 CURVE",
"446 513 LINE",
"623 513 LINE",
"623 0 LINE",
"448 0 LINE",
"448 58 LINE",
"446 58 LINE",
"408 16 OFFCURVE",
"348 -15 OFFCURVE",
"278 -15 CURVE SMOOTH",
"128 -15 OFFCURVE",
"23 106 OFFCURVE",
"23 256 CURVE SMOOTH"
);
},
{
closed = 1;
nodes = (
"211 186 OFFCURVE",
"259 136 OFFCURVE",
"331 136 CURVE SMOOTH",
"400 136 OFFCURVE",
"450 186 OFFCURVE",
"450 256 CURVE SMOOTH",
"450 327 OFFCURVE",
"397 377 OFFCURVE",
"331 377 CURVE SMOOTH",
"264 377 OFFCURVE",
"211 327 OFFCURVE",
"211 256 CURVE SMOOTH"
);
},
{
closed = 1;
nodes = (
"343 587 LINE",
"399 664 LINE",
"196 840 LINE",
"105 725 LINE"
);
}
);
width = 683;
},
{
layerId = "7B60DD57-6012-4D0F-BD38-A72A4BAC0E9D";
paths = (
{
closed = 1;
nodes = (
"23 406 OFFCURVE",
"128 528 OFFCURVE",
"278 528 CURVE SMOOTH",
"347 528 OFFCURVE",
"404 505 OFFCURVE",
"446 464 CURVE",
"446 513 LINE",
"623 513 LINE",
"623 0 LINE",
"448 0 LINE",
"448 58 LINE",
"446 58 LINE",
"408 16 OFFCURVE",
"348 -15 OFFCURVE",
"278 -15 CURVE SMOOTH",
"128 -15 OFFCURVE",
"23 106 OFFCURVE",
"23 256 CURVE SMOOTH"
);
},
{
closed = 1;
nodes = (
"211 186 OFFCURVE",
"259 136 OFFCURVE",
"331 136 CURVE SMOOTH",
"400 136 OFFCURVE",
"450 186 OFFCURVE",
"450 256 CURVE SMOOTH",
"450 327 OFFCURVE",
"397 377 OFFCURVE",
"331 377 CURVE SMOOTH",
"264 377 OFFCURVE",
"211 327 OFFCURVE",
"211 256 CURVE SMOOTH"
);
},
{
closed = 1;
nodes = (
"343 587 LINE",
"399 664 LINE",
"196 840 LINE",
"105 725 LINE"
);
}
);
width = 683;
},
{
layerId = "3FEB53C4-AE65-4B2F-B735-1C16ECFA7AEE";
paths = (
{
closed = 1;
nodes = (
"-21 406 OFFCURVE",
"97 528 OFFCURVE",
"247 528 CURVE SMOOTH",
"316 528 OFFCURVE",
"370 505 OFFCURVE",
"408 464 CURVE",
"413 513 LINE",
"590 513 LINE",
"536 0 LINE",
"361 0 LINE",
"367 58 LINE",
"365 58 LINE",
"323 16 OFFCURVE",
"260 -15 OFFCURVE",
"190 -15 CURVE SMOOTH",
"40 -15 OFFCURVE",
"-53 106 OFFCURVE",
"-37 256 CURVE SMOOTH"
);
},
{
closed = 1;
nodes = (
"144 186 OFFCURVE",
"187 136 OFFCURVE",
"259 136 CURVE SMOOTH",
"328 136 OFFCURVE",
"383 186 OFFCURVE",
"390 256 CURVE SMOOTH",
"398 327 OFFCURVE",
"350 377 OFFCURVE",
"284 377 CURVE SMOOTH",
"217 377 OFFCURVE",
"159 327 OFFCURVE",
"151 256 CURVE SMOOTH"
);
},
{
closed = 1;
nodes = (
"318 587 LINE",
"382 664 LINE",
"198 840 LINE",
"94 725 LINE"
);
}
);
width = 683;
}
);
leftKerningGroup = aacute;
rightKerningGroup = aacute;
unicode = 00E0;
},
{
glyphname = amacron;
lastChange = "2017-03-22 17:52:50 +0000";
layers = (
{
layerId = "A4E552E4-62BE-43BB-A58F-34F0EE3B77B8";
paths = (
{
closed = 1;
nodes = (
"23 406 OFFCURVE",
"128 528 OFFCURVE",
"278 528 CURVE SMOOTH",
"347 528 OFFCURVE",
"404 505 OFFCURVE",
"446 464 CURVE",
"446 513 LINE",
"623 513 LINE",
"623 0 LINE",
"448 0 LINE",
"448 58 LINE",
"446 58 LINE",
"408 16 OFFCURVE",
"348 -15 OFFCURVE",
"278 -15 CURVE SMOOTH",
"128 -15 OFFCURVE",
"23 106 OFFCURVE",
"23 256 CURVE SMOOTH"
);
},
{
closed = 1;
nodes = (
"211 186 OFFCURVE",
"259 136 OFFCURVE",
"331 136 CURVE SMOOTH",
"400 136 OFFCURVE",
"450 186 OFFCURVE",
"450 256 CURVE SMOOTH",
"450 327 OFFCURVE",
"397 377 OFFCURVE",
"331 377 CURVE SMOOTH",
"264 377 OFFCURVE",
"211 327 OFFCURVE",
"211 256 CURVE SMOOTH"
);
},
{
closed = 1;
nodes = (
"545 634 LINE",
"545 754 LINE",
"137 754 LINE",
"137 634 LINE"
);
}
);
width = 683;
},
{
layerId = "7B60DD57-6012-4D0F-BD38-A72A4BAC0E9D";
paths = (
{
closed = 1;
nodes = (
"23 406 OFFCURVE",
"128 528 OFFCURVE",
"278 528 CURVE SMOOTH",
"347 528 OFFCURVE",
"404 505 OFFCURVE",
"446 464 CURVE",
"446 513 LINE",
"623 513 LINE",
"623 0 LINE",
"448 0 LINE",
"448 58 LINE",
"446 58 LINE",
"408 16 OFFCURVE",
"348 -15 OFFCURVE",
"278 -15 CURVE SMOOTH",
"128 -15 OFFCURVE",
"23 106 OFFCURVE",
"23 256 CURVE SMOOTH"
);
},
{
closed = 1;
nodes = (
"211 186 OFFCURVE",
"259 136 OFFCURVE",
"331 136 CURVE SMOOTH",
"400 136 OFFCURVE",
"450 186 OFFCURVE",
"450 256 CURVE SMOOTH",
"450 327 OFFCURVE",
"397 377 OFFCURVE",
"331 377 CURVE SMOOTH",
"264 377 OFFCURVE",
"211 327 OFFCURVE",
"211 256 CURVE SMOOTH"
);
},
{
closed = 1;
nodes = (
"545 634 LINE",
"545 754 LINE",
"137 754 LINE",
"137 634 LINE"
);
}
);
width = 683;
},
{
layerId = "3FEB53C4-AE65-4B2F-B735-1C16ECFA7AEE";
paths = (
{
closed = 1;
nodes = (
"-21 406 OFFCURVE",
"97 528 OFFCURVE",
"247 528 CURVE SMOOTH",
"316 528 OFFCURVE",
"370 505 OFFCURVE",
"408 464 CURVE",
"413 513 LINE",
"590 513 LINE",
"536 0 LINE",
"361 0 LINE",
"367 58 LINE",
"365 58 LINE",
"323 16 OFFCURVE",
"260 -15 OFFCURVE",
"190 -15 CURVE SMOOTH",
"40 -15 OFFCURVE",
"-53 106 OFFCURVE",
"-37 256 CURVE SMOOTH"
);
},
{
closed = 1;
nodes = (
"144 186 OFFCURVE",
"187 136 OFFCURVE",
"259 136 CURVE SMOOTH",
"328 136 OFFCURVE",
"383 186 OFFCURVE",
"390 256 CURVE SMOOTH",
"398 327 OFFCURVE",
"350 377 OFFCURVE",
"284 377 CURVE SMOOTH",
"217 377 OFFCURVE",
"159 327 OFFCURVE",
"151 256 CURVE SMOOTH"
);
},
{
closed = 1;
nodes = (
"525 634 LINE",
"538 754 LINE",
"130 754 LINE",
"117 634 LINE"
);
}
);
width = 683;
}
);
leftKerningGroup = aacute;
rightKerningGroup = aacute;
unicode = 0101;
},
